<svg width="273" height="215" viewBox="0 0 273 215" fill="none" xmlns="http://www.w3.org/2000/svg">
<path d="M249.236 70.4805H0.236084V71.4805H249.236V70.4805Z" fill="#F5F5F5"/>
<path d="M244.236 143.48H0.236084V144.48H244.236V143.48Z" fill="#F5F5F5"/>
<path d="M246.236 117.48H0.236084V124.97H246.236V117.48Z" stroke="#F5F5F5" stroke-width="0.472324" stroke-miterlimit="10"/>
<path d="M246.236 47.4805H0.236084V54.9701H246.236V47.4805Z" stroke="#F5F5F5" stroke-width="0.472324" stroke-miterlimit="10"/>
<path d="M211.236 47.4805H0.236084V54.4805H211.236V47.4805Z" fill="#F27C06"/>
<path d="M3.80608 170.48C2.99408 170.48 2.36875 170.284 1.93008 169.892C1.50075 169.491 1.28608 168.894 1.28608 168.1V163.06C1.28608 162.267 1.50075 161.674 1.93008 161.282C2.36875 160.881 2.99408 160.68 3.80608 160.68H5.69608V161.744H3.66608C3.32075 161.744 3.04075 161.847 2.82608 162.052C2.61142 162.258 2.50408 162.505 2.50408 162.794V168.366C2.50408 168.656 2.61142 168.903 2.82608 169.108C3.04075 169.314 3.32075 169.416 3.66608 169.416H4.95408V166.378H3.77808V165.328H6.11608V170.48H3.80608ZM13.7494 170.48C13.628 170.48 13.4927 170.443 13.3434 170.368C13.2034 170.294 13.082 170.191 12.9794 170.06C12.7647 170.34 12.48 170.48 12.1254 170.48H11.1594C10.45 170.48 9.93203 170.34 9.60536 170.06C9.28803 169.771 9.12936 169.281 9.12936 168.59V168.31C9.12936 166.864 9.8107 166.14 11.1734 166.14H12.6294V165.44C12.6294 165.151 12.5407 164.927 12.3634 164.768C12.186 164.61 11.9247 164.53 11.5794 164.53H9.68936V163.48H11.4394C12.2514 163.48 12.8487 163.658 13.2314 164.012C13.6234 164.367 13.8194 164.936 13.8194 165.72V169.08C13.8194 169.22 13.8707 169.328 13.9734 169.402C14.0854 169.468 14.2674 169.5 14.5194 169.5V170.48H13.7494ZM11.9854 169.43C12.2654 169.43 12.4427 169.365 12.5174 169.234C12.592 169.104 12.6294 168.936 12.6294 168.73V167.19H11.1594C10.9167 167.19 10.716 167.27 10.5574 167.428C10.3987 167.587 10.3194 167.788 10.3194 168.03V168.73C10.3194 168.973 10.3754 169.15 10.4874 169.262C10.5994 169.374 10.7767 169.43 11.0194 169.43H11.9854ZM18.7155 170.48C18.3982 170.48 18.1182 170.368 17.8755 170.144C17.6422 169.92 17.5255 169.566 17.5255 169.08V160.68H18.7155V169.01C18.7155 169.16 18.7529 169.267 18.8275 169.332C18.9022 169.398 19.0282 169.43 19.2055 169.43H19.4855V170.48H18.7155ZM26.6255 170.48C26.5042 170.48 26.3689 170.443 26.2195 170.368C26.0795 170.294 25.9582 170.191 25.8555 170.06C25.6409 170.34 25.3562 170.48 25.0015 170.48H24.0355C23.3262 170.48 22.8082 170.34 22.4815 170.06C22.1642 169.771 22.0055 169.281 22.0055 168.59V168.31C22.0055 166.864 22.6869 166.14 24.0495 166.14H25.5055V165.44C25.5055 165.151 25.4169 164.927 25.2395 164.768C25.0622 164.61 24.8009 164.53 24.4555 164.53H22.5655V163.48H24.3155C25.1275 163.48 25.7249 163.658 26.1075 164.012C26.4995 164.367 26.6955 164.936 26.6955 165.72V169.08C26.6955 169.22 26.7469 169.328 26.8495 169.402C26.9615 169.468 27.1435 169.5 27.3955 169.5V170.48H26.6255ZM24.8615 169.43C25.1415 169.43 25.3189 169.365 25.3935 169.234C25.4682 169.104 25.5055 168.936 25.5055 168.73V167.19H24.0355C23.7929 167.19 23.5922 167.27 23.4335 167.428C23.2749 167.587 23.1955 167.788 23.1955 168.03V168.73C23.1955 168.973 23.2515 169.15 23.3635 169.262C23.4755 169.374 23.6529 169.43 23.8955 169.43H24.8615ZM33.9577 170.48L32.6277 167.89L31.2277 170.48H29.9117L31.9417 166.868L30.0797 163.48H31.4517L32.6557 165.79L33.8737 163.48H35.1757L33.2857 166.812L35.3577 170.48H33.9577ZM41.0711 171.096C40.9591 171.516 40.8425 171.852 40.7211 172.104C40.5998 172.366 40.4271 172.566 40.2031 172.706C39.9885 172.856 39.6991 172.93 39.3351 172.93C39.1391 172.93 38.8731 172.902 38.5371 172.846V171.824C38.7985 171.862 39.0411 171.88 39.2651 171.88C39.5265 171.88 39.7131 171.67 39.8251 171.25L40.0491 170.48H39.7691L37.5991 163.48H38.8871L40.5111 169.262L41.8831 163.48H43.1011L41.0711 171.096ZM50.6563 170.48V169.458H51.6363V161.702H50.6563V160.68H53.8343V161.702H52.8543V169.458H53.8343V170.48H50.6563ZM62.1837 168.268C62.1837 169.071 61.997 169.64 61.6237 169.976C61.2597 170.312 60.653 170.48 59.8037 170.48H57.0597V160.68H59.6357C60.4757 160.68 61.1103 160.853 61.5397 161.198C61.969 161.534 62.1837 162.09 62.1837 162.864V168.268ZM60.9657 162.738C60.9657 162.43 60.8723 162.188 60.6857 162.01C60.499 161.824 60.2517 161.73 59.9437 161.73H58.2777V169.43H59.9297C60.2843 169.43 60.5457 169.351 60.7137 169.192C60.8817 169.024 60.9657 168.763 60.9657 168.408V162.738ZM65.5488 164.88V163.48H66.9488V164.88H65.5488ZM65.5488 170.48V169.08H66.9488V170.48H65.5488ZM79.7061 170.48L79.1741 168.002H76.4441L75.8981 170.48H74.6521L77.0181 160.68H78.6281L80.9521 170.48H79.7061ZM77.8021 161.604L76.6681 166.952H78.9501L77.8021 161.604ZM88.9321 168.268C88.9321 169.071 88.7454 169.64 88.3721 169.976C88.0081 170.312 87.4014 170.48 86.5521 170.48H83.8921V160.68H86.3841C87.2148 160.68 87.8214 160.848 88.2041 161.184C88.5961 161.52 88.7921 162.08 88.7921 162.864V163.662C88.7921 164.381 88.5354 164.922 88.0221 165.286C88.6288 165.622 88.9321 166.196 88.9321 167.008V168.268ZM87.5741 162.738C87.5741 162.384 87.4901 162.127 87.3221 161.968C87.1634 161.81 86.9068 161.73 86.5521 161.73H85.1101V164.824H86.5521C86.8414 164.824 87.0841 164.731 87.2801 164.544C87.4761 164.358 87.5741 164.11 87.5741 163.802V162.738ZM87.7141 166.882C87.7141 166.574 87.6208 166.332 87.4341 166.154C87.2474 165.968 87.0001 165.874 86.6921 165.874H85.1101V169.43H86.6781C87.0328 169.43 87.2941 169.351 87.4621 169.192C87.6301 169.024 87.7141 168.763 87.7141 168.408V166.882ZM95.2165 165.93V170.48H93.9565V165.93L91.4505 160.68H92.7945L94.6425 164.754L96.4905 160.68H97.7645L95.2165 165.93ZM100.007 167.274V166.182H103.395V167.274H100.007ZM106.241 169.248L108.341 166.056C108.649 165.59 108.854 165.268 108.957 165.09C109.06 164.904 109.13 164.722 109.167 164.544C109.204 164.367 109.223 164.11 109.223 163.774V162.794C109.223 162.505 109.116 162.258 108.901 162.052C108.686 161.847 108.406 161.744 108.061 161.744H106.521V160.68H107.921C108.733 160.68 109.354 160.881 109.783 161.282C110.222 161.674 110.441 162.267 110.441 163.06V163.648C110.441 164.115 110.418 164.47 110.371 164.712C110.324 164.955 110.24 165.184 110.119 165.398C110.007 165.613 109.783 165.977 109.447 166.49L107.515 169.416H110.721V170.48H106.241V169.248ZM119.047 168.1C119.047 168.875 118.833 169.468 118.403 169.878C117.983 170.28 117.414 170.48 116.695 170.48H116.555C115.837 170.48 115.263 170.28 114.833 169.878C114.413 169.468 114.203 168.875 114.203 168.1V163.06C114.203 162.276 114.413 161.684 114.833 161.282C115.253 160.881 115.827 160.68 116.555 160.68H116.695C117.423 160.68 117.997 160.881 118.417 161.282C118.837 161.684 119.047 162.276 119.047 163.06V168.1ZM117.857 162.794C117.857 162.505 117.745 162.258 117.521 162.052C117.307 161.838 117.031 161.73 116.695 161.73H116.555C116.219 161.73 115.939 161.838 115.715 162.052C115.501 162.258 115.393 162.505 115.393 162.794V168.366C115.393 168.656 115.501 168.908 115.715 169.122C115.939 169.328 116.219 169.43 116.555 169.43H116.695C117.031 169.43 117.307 169.328 117.521 169.122C117.745 168.908 117.857 168.656 117.857 168.366V162.794ZM127.023 168.1C127.023 168.875 126.809 169.468 126.379 169.878C125.959 170.28 125.39 170.48 124.671 170.48H124.531C123.813 170.48 123.239 170.28 122.809 169.878C122.389 169.468 122.179 168.875 122.179 168.1V163.06C122.179 162.276 122.389 161.684 122.809 161.282C123.229 160.881 123.803 160.68 124.531 160.68H124.671C125.399 160.68 125.973 160.881 126.393 161.282C126.813 161.684 127.023 162.276 127.023 163.06V168.1ZM125.833 162.794C125.833 162.505 125.721 162.258 125.497 162.052C125.283 161.838 125.007 161.73 124.671 161.73H124.531C124.195 161.73 123.915 161.838 123.691 162.052C123.477 162.258 123.369 162.505 123.369 162.794V168.366C123.369 168.656 123.477 168.908 123.691 169.122C123.915 169.328 124.195 169.43 124.531 169.43H124.671C125.007 169.43 125.283 169.328 125.497 169.122C125.721 168.908 125.833 168.656 125.833 168.366V162.794ZM134.524 168.268C134.524 169.043 134.337 169.608 133.964 169.962C133.59 170.308 132.984 170.48 132.144 170.48H130.45V169.43H132.27C132.624 169.43 132.886 169.351 133.054 169.192C133.222 169.024 133.306 168.763 133.306 168.408V166.63C133.306 166.322 133.212 166.08 133.026 165.902C132.839 165.716 132.592 165.622 132.284 165.622H130.59V160.68H134.314V161.73H131.78V164.572H132.214C132.932 164.572 133.497 164.75 133.908 165.104C134.318 165.459 134.524 166.01 134.524 166.756V168.268Z" fill="white"/>
<path d="M2.64408 2.70247V6.04847H5.66808V7.07047H2.64408V11.4805H1.42608V1.68047H6.01808V2.70247H2.64408ZM9.09819 2.94047V1.68047H10.4282V2.94047H9.09819ZM9.16819 11.4805V4.48047H10.3582V11.4805H9.16819ZM15.1198 11.4805C14.8025 11.4805 14.5225 11.3685 14.2798 11.1445C14.0465 10.9205 13.9298 10.5658 13.9298 10.0805V1.68047H15.1198V10.0105C15.1198 10.1598 15.1572 10.2671 15.2318 10.3325C15.3065 10.3978 15.4325 10.4305 15.6098 10.4305H15.8898V11.4805H15.1198ZM21.1398 11.4805C20.3185 11.4805 19.7165 11.3078 19.3338 10.9625C18.9512 10.6078 18.7598 10.0338 18.7598 9.24047V6.72047C18.7598 5.9178 18.9325 5.3438 19.2778 4.99847C19.6232 4.65314 20.1972 4.48047 20.9998 4.48047H21.3778C22.0405 4.48047 22.5398 4.66714 22.8758 5.04047C23.2212 5.40447 23.3938 5.94113 23.3938 6.65047V8.47047H19.9498V9.52047C19.9498 9.8098 20.0385 10.0338 20.2158 10.1925C20.3932 10.3511 20.6545 10.4305 20.9998 10.4305H22.9458V11.4805H21.1398ZM22.2318 7.42047V6.37047C22.2318 6.1278 22.1525 5.92714 21.9938 5.76847C21.8352 5.6098 21.6345 5.53047 21.3918 5.53047H20.8598C20.5238 5.53047 20.2858 5.6098 20.1458 5.76847C20.0152 5.9178 19.9498 6.1418 19.9498 6.44047V7.42047H22.2318ZM36.114 9.10047C36.114 9.8938 35.8947 10.4911 35.456 10.8925C35.0267 11.2845 34.406 11.4805 33.594 11.4805H31.746V10.4165H33.734C34.0794 10.4165 34.3594 10.3138 34.574 10.1085C34.7887 9.90314 34.896 9.6558 34.896 9.36647V7.91047C34.896 7.63047 34.8214 7.40647 34.672 7.23847C34.532 7.06114 34.3174 6.97247 34.028 6.97247H33.748C33.0574 6.97247 32.5114 6.7718 32.11 6.37047C31.7087 5.9598 31.508 5.36714 31.508 4.59247V4.06047C31.508 3.26714 31.7227 2.67447 32.152 2.28247C32.5907 1.88113 33.216 1.68047 34.028 1.68047H35.89V2.74447H33.888C33.5427 2.74447 33.2627 2.84714 33.048 3.05247C32.8334 3.2578 32.726 3.50513 32.726 3.79447V4.85847C32.726 5.1478 32.8194 5.39047 33.006 5.58647C33.1927 5.77314 33.4354 5.86647 33.734 5.86647H34.014C34.6767 5.86647 35.19 6.0578 35.554 6.44047C35.9274 6.82314 36.114 7.4018 36.114 8.17647V9.10047ZM39.3404 2.94047V1.68047H40.6704V2.94047H39.3404ZM39.4104 11.4805V4.48047H40.6004V11.4805H39.4104ZM45.04 10.4445H47.924V11.4805H43.752V10.3605L46.79 5.51647H44.032V4.48047H48.064V5.72647L45.04 10.4445ZM53.5285 11.4805C52.7072 11.4805 52.1052 11.3078 51.7225 10.9625C51.3398 10.6078 51.1485 10.0338 51.1485 9.24047V6.72047C51.1485 5.9178 51.3212 5.3438 51.6665 4.99847C52.0118 4.65314 52.5858 4.48047 53.3885 4.48047H53.7665C54.4292 4.48047 54.9285 4.66714 55.2645 5.04047C55.6098 5.40447 55.7825 5.94113 55.7825 6.65047V8.47047H52.3385V9.52047C52.3385 9.8098 52.4272 10.0338 52.6045 10.1925C52.7818 10.3511 53.0432 10.4305 53.3885 10.4305H55.3345V11.4805H53.5285ZM54.6205 7.42047V6.37047C54.6205 6.1278 54.5412 5.92714 54.3825 5.76847C54.2238 5.6098 54.0232 5.53047 53.7805 5.53047H53.2485C52.9125 5.53047 52.6745 5.6098 52.5345 5.76847C52.4038 5.9178 52.3385 6.1418 52.3385 6.44047V7.42047H54.6205ZM59 5.88047V4.48047H60.4V5.88047H59ZM59 11.4805V10.0805H60.4V11.4805H59ZM68.6353 10.2485L70.7353 7.05647C71.0433 6.5898 71.2486 6.2678 71.3513 6.09047C71.4539 5.9038 71.5239 5.7218 71.5613 5.54447C71.5986 5.36714 71.6173 5.11047 71.6173 4.77447V3.79447C71.6173 3.50513 71.5099 3.2578 71.2953 3.05247C71.0806 2.84714 70.8006 2.74447 70.4553 2.74447H68.9153V1.68047H70.3153C71.1273 1.68047 71.7479 1.88113 72.1773 2.28247C72.6159 2.67447 72.8353 3.26714 72.8353 4.06047V4.64847C72.8353 5.11514 72.8119 5.4698 72.7653 5.71247C72.7186 5.95514 72.6346 6.1838 72.5133 6.39847C72.4013 6.61314 72.1773 6.97714 71.8413 7.49047L69.9093 10.4165H73.1153V11.4805H68.6353V10.2485ZM76.6394 11.4805V10.0805H78.0394V11.4805H76.6394ZM82.9002 11.4805H81.6542L83.9922 2.73047H80.8842V1.68047H85.1542V3.03847L82.9002 11.4805ZM99.4131 11.4805V2.68847L97.9151 8.19047H96.7531L95.2551 2.68847V11.4805H94.1351V1.68047H96.1091L97.3831 6.69247L98.6431 1.68047H100.575V11.4805H99.4131ZM109.393 9.26847C109.393 10.0711 109.207 10.6405 108.833 10.9765C108.469 11.3125 107.863 11.4805 107.013 11.4805H104.353V1.68047H106.845C107.676 1.68047 108.283 1.84847 108.665 2.18447C109.057 2.52047 109.253 3.08047 109.253 3.86447V4.66247C109.253 5.38114 108.997 5.92247 108.483 6.28647C109.09 6.62247 109.393 7.19647 109.393 8.00847V9.26847ZM108.035 3.73847C108.035 3.3838 107.951 3.12714 107.783 2.96847C107.625 2.8098 107.368 2.73047 107.013 2.73047H105.571V5.82447H107.013C107.303 5.82447 107.545 5.73114 107.741 5.54447C107.937 5.3578 108.035 5.11047 108.035 4.80247V3.73847ZM108.175 7.88247C108.175 7.57447 108.082 7.3318 107.895 7.15447C107.709 6.9678 107.461 6.87447 107.153 6.87447H105.571V10.4305H107.139C107.494 10.4305 107.755 10.3511 107.923 10.1925C108.091 10.0245 108.175 9.76314 108.175 9.40847V7.88247ZM117.714 4.41047C117.714 3.3278 117.849 2.45047 118.12 1.77847C118.4 1.10647 118.787 0.513801 119.282 0.000468016H120.514C120.066 0.541802 119.734 0.999135 119.52 1.37247C119.305 1.73647 119.146 2.14714 119.044 2.60447C118.95 3.0618 118.904 3.65447 118.904 4.38247V8.77847C118.904 9.50647 118.95 10.0991 119.044 10.5565C119.146 11.0138 119.305 11.4245 119.52 11.7885C119.734 12.1618 120.066 12.6191 120.514 13.1605H119.282C118.787 12.6471 118.4 12.0545 118.12 11.3825C117.849 10.7105 117.714 9.83314 117.714 8.75047V4.41047ZM128.008 11.4805C127.887 11.4805 127.751 11.4431 127.602 11.3685C127.462 11.2938 127.341 11.1911 127.238 11.0605C127.023 11.3405 126.739 11.4805 126.384 11.4805H125.418C124.709 11.4805 124.191 11.3405 123.864 11.0605C123.547 10.7711 123.388 10.2811 123.388 9.59047V9.31047C123.388 7.8638 124.069 7.14047 125.432 7.14047H126.888V6.44047C126.888 6.15114 126.799 5.92714 126.622 5.76847C126.445 5.6098 126.183 5.53047 125.838 5.53047H123.948V4.48047H125.698C126.51 4.48047 127.107 4.6578 127.49 5.01247C127.882 5.36714 128.078 5.93647 128.078 6.72047V10.0805C128.078 10.2205 128.129 10.3278 128.232 10.4025C128.344 10.4678 128.526 10.5005 128.778 10.5005V11.4805H128.008ZM126.244 10.4305C126.524 10.4305 126.701 10.3651 126.776 10.2345C126.851 10.1038 126.888 9.9358 126.888 9.73047V8.19047H125.418C125.175 8.19047 124.975 8.2698 124.816 8.42847C124.657 8.58714 124.578 8.7878 124.578 9.03047V9.73047C124.578 9.97314 124.634 10.1505 124.746 10.2625C124.858 10.3745 125.035 10.4305 125.278 10.4305H126.244ZM131.854 4.48047H132.974V4.85847C133.282 4.60647 133.655 4.48047 134.094 4.48047H135.116V5.60047H133.954C133.646 5.60047 133.417 5.70314 133.268 5.90847C133.119 6.1138 133.044 6.31447 133.044 6.51047V11.4805H131.854V4.48047ZM139.951 11.4805C139.13 11.4805 138.528 11.3078 138.145 10.9625C137.762 10.6078 137.571 10.0338 137.571 9.24047V6.72047C137.571 5.93647 137.762 5.36714 138.145 5.01247C138.537 4.6578 139.139 4.48047 139.951 4.48047H141.477V5.53047H139.811C139.466 5.53047 139.204 5.6098 139.027 5.76847C138.85 5.92714 138.761 6.15114 138.761 6.44047V9.52047C138.761 9.8098 138.85 10.0338 139.027 10.1925C139.204 10.3511 139.466 10.4305 139.811 10.4305H141.477V11.4805H139.951ZM144.703 1.68047H145.893V4.76047C146.173 4.5738 146.523 4.48047 146.943 4.48047H147.307C148.063 4.48047 148.623 4.6578 148.987 5.01247C149.36 5.36714 149.547 5.93647 149.547 6.72047V11.4805H148.357V6.44047C148.357 6.16047 148.273 5.94114 148.105 5.78247C147.946 5.61447 147.727 5.53047 147.447 5.53047H146.803C146.504 5.53047 146.276 5.6098 146.117 5.76847C145.968 5.9178 145.893 6.08114 145.893 6.25847V11.4805H144.703V1.68047ZM153.047 2.94047V1.68047H154.377V2.94047H153.047ZM153.117 11.4805V4.48047H154.307V11.4805H153.117ZM160.93 11.4805H159.208L157.318 4.48047H158.592L160.104 10.4865L161.574 4.48047H162.806L160.93 11.4805ZM169.945 11.4805C169.824 11.4805 169.688 11.4431 169.539 11.3685C169.399 11.2938 169.278 11.1911 169.175 11.0605C168.96 11.3405 168.676 11.4805 168.321 11.4805H167.355C166.646 11.4805 166.128 11.3405 165.801 11.0605C165.484 10.7711 165.325 10.2811 165.325 9.59047V9.31047C165.325 7.8638 166.006 7.14047 167.369 7.14047H168.825V6.44047C168.825 6.15114 168.736 5.92714 168.559 5.76847C168.382 5.6098 168.12 5.53047 167.775 5.53047H165.885V4.48047H167.635C168.447 4.48047 169.044 4.6578 169.427 5.01247C169.819 5.36714 170.015 5.93647 170.015 6.72047V10.0805C170.015 10.2205 170.066 10.3278 170.169 10.4025C170.281 10.4678 170.463 10.5005 170.715 10.5005V11.4805H169.945ZM168.181 10.4305C168.461 10.4305 168.638 10.3651 168.713 10.2345C168.788 10.1038 168.825 9.9358 168.825 9.73047V8.19047H167.355C167.112 8.19047 166.912 8.2698 166.753 8.42847C166.594 8.58714 166.515 8.7878 166.515 9.03047V9.73047C166.515 9.97314 166.571 10.1505 166.683 10.2625C166.795 10.3745 166.972 10.4305 167.215 10.4305H168.181ZM174.911 11.4805C174.594 11.4805 174.314 11.3685 174.071 11.1445C173.838 10.9205 173.721 10.5658 173.721 10.0805V1.68047H174.911V10.0105C174.911 10.1598 174.949 10.2671 175.023 10.3325C175.098 10.3978 175.224 10.4305 175.401 10.4305H175.681V11.4805H174.911ZM183.728 4.48047H184.848V4.85847C185.156 4.60647 185.529 4.48047 185.968 4.48047H186.99V5.60047H185.828C185.52 5.60047 185.291 5.70314 185.142 5.90847C184.993 6.1138 184.918 6.31447 184.918 6.51047V11.4805H183.728V4.48047ZM191.825 11.4805C191.004 11.4805 190.402 11.3078 190.019 10.9625C189.636 10.6078 189.445 10.0338 189.445 9.24047V6.72047C189.445 5.9178 189.618 5.3438 189.963 4.99847C190.308 4.65314 190.882 4.48047 191.685 4.48047H192.063C192.726 4.48047 193.225 4.66714 193.561 5.04047C193.906 5.40447 194.079 5.94113 194.079 6.65047V8.47047H190.635V9.52047C190.635 9.8098 190.724 10.0338 190.901 10.1925C191.078 10.3511 191.34 10.4305 191.685 10.4305H193.631V11.4805H191.825ZM192.917 7.42047V6.37047C192.917 6.1278 192.838 5.92714 192.679 5.76847C192.52 5.6098 192.32 5.53047 192.077 5.53047H191.545C191.209 5.53047 190.971 5.6098 190.831 5.76847C190.7 5.9178 190.635 6.1418 190.635 6.44047V7.42047H192.917ZM199.746 11.4805C198.925 11.4805 198.323 11.3078 197.94 10.9625C197.558 10.6078 197.366 10.0338 197.366 9.24047V6.72047C197.366 5.93647 197.558 5.36714 197.94 5.01247C198.332 4.6578 198.934 4.48047 199.746 4.48047H201.272V5.53047H199.606C199.261 5.53047 199 5.6098 198.822 5.76847C198.645 5.92714 198.556 6.15114 198.556 6.44047V9.52047C198.556 9.8098 198.645 10.0338 198.822 10.1925C199 10.3511 199.261 10.4305 199.606 10.4305H201.272V11.4805H199.746ZM209.164 9.24047C209.164 10.0245 208.968 10.5938 208.576 10.9485C208.193 11.3031 207.596 11.4805 206.784 11.4805H206.602C205.79 11.4805 205.188 11.3031 204.796 10.9485C204.413 10.5938 204.222 10.0245 204.222 9.24047V6.72047C204.222 5.93647 204.413 5.36714 204.796 5.01247C205.188 4.6578 205.79 4.48047 206.602 4.48047H206.784C207.596 4.48047 208.193 4.6578 208.576 5.01247C208.968 5.36714 209.164 5.93647 209.164 6.72047V9.24047ZM207.974 6.44047C207.974 6.15114 207.885 5.92714 207.708 5.76847C207.53 5.6098 207.269 5.53047 206.924 5.53047H206.462C206.116 5.53047 205.855 5.6098 205.678 5.76847C205.5 5.92714 205.412 6.15114 205.412 6.44047V9.52047C205.412 9.8098 205.5 10.0338 205.678 10.1925C205.855 10.3511 206.116 10.4305 206.462 10.4305H206.924C207.269 10.4305 207.53 10.3511 207.708 10.1925C207.885 10.0338 207.974 9.8098 207.974 9.52047V6.44047ZM212.666 4.48047H213.786V4.85847C214.094 4.60647 214.467 4.48047 214.906 4.48047H215.928V5.60047H214.766C214.458 5.60047 214.229 5.70314 214.08 5.90847C213.931 6.1138 213.856 6.31447 213.856 6.51047V11.4805H212.666V4.48047ZM222.177 11.1585C221.869 11.3731 221.496 11.4805 221.057 11.4805H220.763C219.942 11.4805 219.34 11.3078 218.957 10.9625C218.574 10.6078 218.383 10.0338 218.383 9.24047V6.72047C218.383 5.93647 218.574 5.36714 218.957 5.01247C219.349 4.6578 219.951 4.48047 220.763 4.48047H222.107V1.68047H223.297V11.4805H222.177V11.1585ZM221.197 10.4305C221.505 10.4305 221.734 10.3511 221.883 10.1925C222.032 10.0245 222.107 9.84714 222.107 9.66047V5.53047H220.623C220.278 5.53047 220.016 5.6098 219.839 5.76847C219.662 5.92714 219.573 6.15114 219.573 6.44047V9.52047C219.573 9.8098 219.662 10.0338 219.839 10.1925C220.016 10.3511 220.278 10.4305 220.623 10.4305H221.197ZM229.457 8.75047C229.457 9.83314 229.317 10.7105 229.037 11.3825C228.766 12.0545 228.383 12.6471 227.889 13.1605H226.657C227.105 12.6191 227.436 12.1618 227.651 11.7885C227.865 11.4245 228.019 11.0138 228.113 10.5565C228.215 10.0991 228.267 9.50647 228.267 8.77847V4.38247C228.267 3.65447 228.215 3.0618 228.113 2.60447C228.019 2.14714 227.865 1.73647 227.651 1.37247C227.436 0.999135 227.105 0.541802 226.657 0.000468016H227.889C228.383 0.513801 228.766 1.10647 229.037 1.77847C229.317 2.45047 229.457 3.3278 229.457 4.41047V8.75047Z" fill="white"/>
<path d="M3.80608 191.48C2.99408 191.48 2.36875 191.284 1.93008 190.892C1.50075 190.491 1.28608 189.894 1.28608 189.1V184.06C1.28608 183.267 1.50075 182.674 1.93008 182.282C2.36875 181.881 2.99408 181.68 3.80608 181.68H5.51408V182.744H3.66608C3.32075 182.744 3.04075 182.847 2.82608 183.052C2.61142 183.258 2.50408 183.505 2.50408 183.794V189.366C2.50408 189.656 2.61142 189.903 2.82608 190.108C3.04075 190.314 3.32075 190.416 3.66608 190.416H5.51408V191.48H3.80608ZM13.3993 189.24C13.3993 190.024 13.2033 190.594 12.8113 190.948C12.4286 191.303 11.8313 191.48 11.0193 191.48H10.8373C10.0253 191.48 9.42326 191.303 9.03126 190.948C8.64859 190.594 8.45726 190.024 8.45726 189.24V186.72C8.45726 185.936 8.64859 185.367 9.03126 185.012C9.42326 184.658 10.0253 184.48 10.8373 184.48H11.0193C11.8313 184.48 12.4286 184.658 12.8113 185.012C13.2033 185.367 13.3993 185.936 13.3993 186.72V189.24ZM12.2093 186.44C12.2093 186.151 12.1206 185.927 11.9433 185.768C11.7659 185.61 11.5046 185.53 11.1593 185.53H10.6973C10.3519 185.53 10.0906 185.61 9.91326 185.768C9.73592 185.927 9.64726 186.151 9.64726 186.44V189.52C9.64726 189.81 9.73592 190.034 9.91326 190.192C10.0906 190.351 10.3519 190.43 10.6973 190.43H11.1593C11.5046 190.43 11.7659 190.351 11.9433 190.192C12.1206 190.034 12.2093 189.81 12.2093 189.52V186.44ZM21.8436 189.24C21.8436 190.024 21.6476 190.594 21.2556 190.948C20.8729 191.303 20.2756 191.48 19.4636 191.48H19.2816C18.4696 191.48 17.8676 191.303 17.4756 190.948C17.0929 190.594 16.9016 190.024 16.9016 189.24V186.72C16.9016 185.936 17.0929 185.367 17.4756 185.012C17.8676 184.658 18.4696 184.48 19.2816 184.48H19.4636C20.2756 184.48 20.8729 184.658 21.2556 185.012C21.6476 185.367 21.8436 185.936 21.8436 186.72V189.24ZM20.6536 186.44C20.6536 186.151 20.5649 185.927 20.3876 185.768C20.2102 185.61 19.9489 185.53 19.6036 185.53H19.1416C18.7962 185.53 18.5349 185.61 18.3576 185.768C18.1802 185.927 18.0916 186.151 18.0916 186.44V189.52C18.0916 189.81 18.1802 190.034 18.3576 190.192C18.5349 190.351 18.7962 190.43 19.1416 190.43H19.6036C19.9489 190.43 20.2102 190.351 20.3876 190.192C20.5649 190.034 20.6536 189.81 20.6536 189.52V186.44ZM25.4858 184.48H26.6058V184.858C26.9138 184.606 27.2872 184.48 27.7258 184.48H28.7478V185.6H27.5858C27.2778 185.6 27.0492 185.703 26.8998 185.908C26.7505 186.114 26.6758 186.314 26.6758 186.51V191.48H25.4858V184.48ZM35.1369 191.158C34.8289 191.373 34.4555 191.48 34.0169 191.48H33.7229C32.9015 191.48 32.2995 191.308 31.9169 190.962C31.5342 190.608 31.3429 190.034 31.3429 189.24V186.72C31.3429 185.936 31.5342 185.367 31.9169 185.012C32.3089 184.658 32.9109 184.48 33.7229 184.48H35.0669V181.68H36.2569V191.48H35.1369V191.158ZM34.1569 190.43C34.4649 190.43 34.6935 190.351 34.8429 190.192C34.9922 190.024 35.0669 189.847 35.0669 189.66V185.53H33.5829C33.2375 185.53 32.9762 185.61 32.7989 185.768C32.6215 185.927 32.5329 186.151 32.5329 186.44V189.52C32.5329 189.81 32.6215 190.034 32.7989 190.192C32.9762 190.351 33.2375 190.43 33.5829 190.43H34.1569ZM39.9666 182.94V181.68H41.2966V182.94H39.9666ZM40.0366 191.48V184.48H41.2266V191.48H40.0366ZM45.0082 184.48H46.1282V184.816C46.4175 184.592 46.7909 184.48 47.2482 184.48H47.6122C48.3682 184.48 48.9282 184.658 49.2922 185.012C49.6655 185.367 49.8522 185.936 49.8522 186.72V191.48H48.6622V186.44C48.6622 186.16 48.5782 185.941 48.4102 185.782C48.2515 185.614 48.0322 185.53 47.7522 185.53H47.1082C46.8002 185.53 46.5715 185.614 46.4222 185.782C46.2729 185.941 46.1982 186.114 46.1982 186.3V191.48H45.0082V184.48ZM57.6919 191.48C57.5705 191.48 57.4352 191.443 57.2859 191.368C57.1459 191.294 57.0245 191.191 56.9219 191.06C56.7072 191.34 56.4225 191.48 56.0679 191.48H55.1019C54.3925 191.48 53.8745 191.34 53.5479 191.06C53.2305 190.771 53.0719 190.281 53.0719 189.59V189.31C53.0719 187.864 53.7532 187.14 55.1159 187.14H56.5719V186.44C56.5719 186.151 56.4832 185.927 56.3059 185.768C56.1285 185.61 55.8672 185.53 55.5219 185.53H53.6319V184.48H55.3819C56.1939 184.48 56.7912 184.658 57.1739 185.012C57.5659 185.367 57.7619 185.936 57.7619 186.72V190.08C57.7619 190.22 57.8132 190.328 57.9159 190.402C58.0279 190.468 58.2099 190.5 58.4619 190.5V191.48H57.6919ZM55.9279 190.43C56.2079 190.43 56.3852 190.365 56.4599 190.234C56.5345 190.104 56.5719 189.936 56.5719 189.73V188.19H55.1019C54.8592 188.19 54.6585 188.27 54.4999 188.428C54.3412 188.587 54.2619 188.788 54.2619 189.03V189.73C54.2619 189.973 54.3179 190.15 54.4299 190.262C54.5419 190.374 54.7192 190.43 54.9619 190.43H55.9279ZM63.218 191.48C62.742 191.48 62.378 191.326 62.126 191.018C61.874 190.71 61.748 190.304 61.748 189.8V185.53H60.838V184.48H61.748V182.8H62.938V184.48H64.562V185.53H62.938V189.87C62.938 190.076 62.9894 190.22 63.092 190.304C63.1947 190.388 63.3534 190.43 63.568 190.43H64.562V191.48H63.218ZM69.8057 191.48C68.9844 191.48 68.3824 191.308 67.9997 190.962C67.617 190.608 67.4257 190.034 67.4257 189.24V186.72C67.4257 185.918 67.5984 185.344 67.9437 184.998C68.289 184.653 68.863 184.48 69.6657 184.48H70.0437C70.7064 184.48 71.2057 184.667 71.5417 185.04C71.887 185.404 72.0597 185.941 72.0597 186.65V188.47H68.6157V189.52C68.6157 189.81 68.7044 190.034 68.8817 190.192C69.059 190.351 69.3204 190.43 69.6657 190.43H71.6117V191.48H69.8057ZM70.8977 187.42V186.37C70.8977 186.128 70.8184 185.927 70.6597 185.768C70.501 185.61 70.3004 185.53 70.0577 185.53H69.5257C69.1897 185.53 68.9517 185.61 68.8117 185.768C68.681 185.918 68.6157 186.142 68.6157 186.44V187.42H70.8977ZM79.3232 189.73C79.3232 190.318 79.1412 190.757 78.7772 191.046C78.4225 191.336 77.9045 191.48 77.2232 191.48H75.4172V190.43H77.3632C77.6152 190.43 77.8065 190.379 77.9372 190.276C78.0678 190.164 78.1332 190.006 78.1332 189.8V189.058C78.1332 188.638 77.9325 188.428 77.5312 188.428H77.2932C76.6398 188.428 76.1498 188.288 75.8232 188.008C75.5058 187.719 75.3472 187.266 75.3472 186.65V186.244C75.3472 185.619 75.5245 185.171 75.8792 184.9C76.2338 184.62 76.7565 184.48 77.4472 184.48H79.0432V185.53H77.3072C77.0738 185.53 76.8872 185.586 76.7472 185.698C76.6072 185.801 76.5372 185.955 76.5372 186.16V186.664C76.5372 186.879 76.5978 187.038 76.7192 187.14C76.8498 187.243 77.0132 187.294 77.2092 187.294H77.4052C78.0305 187.294 78.5065 187.448 78.8332 187.756C79.1598 188.055 79.3232 188.503 79.3232 189.1V189.73ZM82.549 185.88V184.48H83.949V185.88H82.549ZM82.549 191.48V190.08H83.949V191.48H82.549ZM95.2363 187.42H93.9903V191.48H92.7723V181.68H95.2783C96.0716 181.68 96.6689 181.858 97.0703 182.212C97.4809 182.558 97.6863 183.108 97.6863 183.864V185.208C97.6863 186.263 97.2663 186.921 96.4263 187.182L98.3723 191.48H97.0423L95.2363 187.42ZM96.4683 183.738C96.4683 183.384 96.3843 183.127 96.2163 182.968C96.0576 182.81 95.8009 182.73 95.4463 182.73H93.9903V186.37H95.4463C95.8009 186.37 96.0576 186.291 96.2163 186.132C96.3843 185.964 96.4683 185.703 96.4683 185.348V183.738ZM105.8 191.48L105.268 189.002H102.538L101.992 191.48H100.746L103.112 181.68H104.722L107.046 191.48H105.8ZM103.896 182.604L102.762 187.952H105.044L103.896 182.604ZM109.846 185.88V184.48H111.246V185.88H109.846ZM109.846 191.48V190.08H111.246V191.48H109.846ZM119.761 190.248L121.861 187.056C122.169 186.59 122.374 186.268 122.477 186.09C122.58 185.904 122.65 185.722 122.687 185.544C122.724 185.367 122.743 185.11 122.743 184.774V183.794C122.743 183.505 122.636 183.258 122.421 183.052C122.206 182.847 121.926 182.744 121.581 182.744H120.041V181.68H121.441C122.253 181.68 122.874 181.881 123.303 182.282C123.742 182.674 123.961 183.267 123.961 184.06V184.648C123.961 185.115 123.938 185.47 123.891 185.712C123.844 185.955 123.76 186.184 123.639 186.398C123.527 186.613 123.303 186.977 122.967 187.49L121.035 190.416H124.241V191.48H119.761V190.248ZM132.707 189.1C132.707 189.875 132.492 190.468 132.063 190.878C131.643 191.28 131.074 191.48 130.355 191.48H130.215C129.496 191.48 128.922 191.28 128.493 190.878C128.073 190.468 127.863 189.875 127.863 189.1V184.06C127.863 183.276 128.073 182.684 128.493 182.282C128.913 181.881 129.487 181.68 130.215 181.68H130.355C131.083 181.68 131.657 181.881 132.077 182.282C132.497 182.684 132.707 183.276 132.707 184.06V189.1ZM131.517 183.794C131.517 183.505 131.405 183.258 131.181 183.052C130.966 182.838 130.691 182.73 130.355 182.73H130.215C129.879 182.73 129.599 182.838 129.375 183.052C129.16 183.258 129.053 183.505 129.053 183.794V189.366C129.053 189.656 129.16 189.908 129.375 190.122C129.599 190.328 129.879 190.43 130.215 190.43H130.355C130.691 190.43 130.966 190.328 131.181 190.122C131.405 189.908 131.517 189.656 131.517 189.366V183.794ZM136.231 181.68H137.421V184.76C137.701 184.574 138.051 184.48 138.471 184.48H138.835C139.591 184.48 140.151 184.658 140.515 185.012C140.889 185.367 141.075 185.936 141.075 186.72V191.48H139.885V186.44C139.885 186.16 139.801 185.941 139.633 185.782C139.475 185.614 139.255 185.53 138.975 185.53H138.331C138.033 185.53 137.804 185.61 137.645 185.768C137.496 185.918 137.421 186.081 137.421 186.258V191.48H136.231V181.68ZM154.554 189.1C154.554 189.875 154.339 190.468 153.91 190.878C153.49 191.28 152.92 191.48 152.202 191.48H152.062C151.343 191.48 150.769 191.28 150.34 190.878C149.92 190.468 149.71 189.875 149.71 189.1V184.06C149.71 183.276 149.92 182.684 150.34 182.282C150.76 181.881 151.334 181.68 152.062 181.68H152.202C152.93 181.68 153.504 181.881 153.924 182.282C154.344 182.684 154.554 183.276 154.554 184.06V189.1ZM153.364 183.794C153.364 183.505 153.252 183.258 153.028 183.052C152.813 182.838 152.538 182.73 152.202 182.73H152.062C151.726 182.73 151.446 182.838 151.222 183.052C151.007 183.258 150.9 183.505 150.9 183.794V189.366C150.9 189.656 151.007 189.908 151.222 190.122C151.446 190.328 151.726 190.43 152.062 190.43H152.202C152.538 190.43 152.813 190.328 153.028 190.122C153.252 189.908 153.364 189.656 153.364 189.366V183.794ZM161.886 189.296V191.48H160.696V189.296H157.924V188.092L159.31 181.68H160.444L159.128 188.274H160.696V185.082H161.886V188.274H162.866V189.296H161.886ZM166.194 184.48H167.314V184.816C167.603 184.592 167.977 184.48 168.434 184.48H168.518C169.367 184.48 169.974 184.695 170.338 185.124C170.683 184.695 171.164 184.48 171.78 184.48H171.864C172.62 184.48 173.18 184.658 173.544 185.012C173.917 185.367 174.104 185.936 174.104 186.72V191.48H172.914V186.44C172.914 186.16 172.83 185.941 172.662 185.782C172.503 185.614 172.284 185.53 172.004 185.53H171.64C171.351 185.53 171.131 185.619 170.982 185.796C170.842 185.964 170.763 186.146 170.744 186.342V191.48H169.554V186.44C169.554 186.16 169.475 185.941 169.316 185.782C169.157 185.614 168.938 185.53 168.658 185.53H168.294C167.995 185.53 167.767 185.61 167.608 185.768C167.459 185.918 167.384 186.081 167.384 186.258V191.48H166.194V184.48ZM187.579 189.1C187.579 189.875 187.364 190.468 186.935 190.878C186.515 191.28 185.946 191.48 185.227 191.48H185.087C184.368 191.48 183.794 191.28 183.365 190.878C182.945 190.468 182.735 189.875 182.735 189.1V184.06C182.735 183.276 182.945 182.684 183.365 182.282C183.785 181.881 184.359 181.68 185.087 181.68H185.227C185.955 181.68 186.529 181.881 186.949 182.282C187.369 182.684 187.579 183.276 187.579 184.06V189.1ZM186.389 183.794C186.389 183.505 186.277 183.258 186.053 183.052C185.838 182.838 185.563 182.73 185.227 182.73H185.087C184.751 182.73 184.471 182.838 184.247 183.052C184.032 183.258 183.925 183.505 183.925 183.794V189.366C183.925 189.656 184.032 189.908 184.247 190.122C184.471 190.328 184.751 190.43 185.087 190.43H185.227C185.563 190.43 185.838 190.328 186.053 190.122C186.277 189.908 186.389 189.656 186.389 189.366V183.794ZM190.893 184.06C190.893 183.295 191.103 182.707 191.523 182.296C191.943 181.886 192.47 181.68 193.105 181.68H193.455C194.09 181.68 194.617 181.886 195.037 182.296C195.457 182.707 195.667 183.295 195.667 184.06V189.1C195.667 189.894 195.452 190.491 195.023 190.892C194.603 191.284 193.987 191.48 193.175 191.48H191.705V190.416H193.315C193.66 190.416 193.94 190.314 194.155 190.108C194.37 189.903 194.477 189.656 194.477 189.366V187.84H193.245C192.442 187.84 191.85 187.663 191.467 187.308C191.084 186.954 190.893 186.384 190.893 185.6V184.06ZM194.477 183.794C194.477 183.496 194.379 183.244 194.183 183.038C193.987 182.833 193.721 182.73 193.385 182.73H193.175C192.839 182.73 192.573 182.833 192.377 183.038C192.181 183.244 192.083 183.496 192.083 183.794V185.866C192.083 186.156 192.167 186.384 192.335 186.552C192.512 186.711 192.769 186.79 193.105 186.79H194.477V183.794ZM202.915 189.73C202.915 190.318 202.733 190.757 202.369 191.046C202.015 191.336 201.497 191.48 200.815 191.48H199.009V190.43H200.955C201.207 190.43 201.399 190.379 201.529 190.276C201.66 190.164 201.725 190.006 201.725 189.8V189.058C201.725 188.638 201.525 188.428 201.123 188.428H200.885C200.232 188.428 199.742 188.288 199.415 188.008C199.098 187.719 198.939 187.266 198.939 186.65V186.244C198.939 185.619 199.117 185.171 199.471 184.9C199.826 184.62 200.349 184.48 201.039 184.48H202.635V185.53H200.899C200.666 185.53 200.479 185.586 200.339 185.698C200.199 185.801 200.129 185.955 200.129 186.16V186.664C200.129 186.879 200.19 187.038 200.311 187.14C200.442 187.243 200.605 187.294 200.801 187.294H200.997C201.623 187.294 202.099 187.448 202.425 187.756C202.752 188.055 202.915 188.503 202.915 189.1V189.73Z" fill="white"/>
<path d="M4.70208 91.4805L2.56008 82.7165V91.4805H1.42608V81.6805H3.41408L5.57008 90.4445V81.6805H6.70408V91.4805H4.70208ZM12.7923 91.4805C11.971 91.4805 11.369 91.3078 10.9863 90.9625C10.6037 90.6078 10.4123 90.0338 10.4123 89.2405V86.7205C10.4123 85.9178 10.585 85.3438 10.9303 84.9985C11.2757 84.6531 11.8497 84.4805 12.6523 84.4805H13.0303C13.693 84.4805 14.1923 84.6671 14.5283 85.0405C14.8737 85.4045 15.0463 85.9411 15.0463 86.6505V88.4705H11.6023V89.5205C11.6023 89.8098 11.691 90.0338 11.8683 90.1925C12.0457 90.3511 12.307 90.4305 12.6523 90.4305H14.5983V91.4805H12.7923ZM13.8843 87.4205V86.3705C13.8843 86.1278 13.805 85.9271 13.6463 85.7685C13.4877 85.6098 13.287 85.5305 13.0443 85.5305H12.5123C12.1763 85.5305 11.9383 85.6098 11.7983 85.7685C11.6677 85.9178 11.6023 86.1418 11.6023 86.4405V87.4205H13.8843ZM20.1538 91.4805C19.6778 91.4805 19.3138 91.3265 19.0618 91.0185C18.8098 90.7105 18.6838 90.3045 18.6838 89.8005V85.5305H17.7738V84.4805H18.6838V82.8005H19.8738V84.4805H21.4978V85.5305H19.8738V89.8705C19.8738 90.0758 19.9252 90.2205 20.0278 90.3045C20.1305 90.3885 20.2892 90.4305 20.5038 90.4305H21.4978V91.4805H20.1538ZM30.8155 91.4805H28.9815L28.0995 87.6865L27.1335 91.4805H25.3415L23.9415 84.4805H25.1735L26.3075 90.5845L27.5535 85.7405H28.7435L29.9055 90.5845L31.0395 84.4805H32.2015L30.8155 91.4805ZM40.0857 89.2405C40.0857 90.0245 39.8897 90.5938 39.4977 90.9485C39.115 91.3031 38.5177 91.4805 37.7057 91.4805H37.5237C36.7117 91.4805 36.1097 91.3031 35.7177 90.9485C35.335 90.5938 35.1437 90.0245 35.1437 89.2405V86.7205C35.1437 85.9365 35.335 85.3671 35.7177 85.0125C36.1097 84.6578 36.7117 84.4805 37.5237 84.4805H37.7057C38.5177 84.4805 39.115 84.6578 39.4977 85.0125C39.8897 85.3671 40.0857 85.9365 40.0857 86.7205V89.2405ZM38.8957 86.4405C38.8957 86.1511 38.807 85.9271 38.6297 85.7685C38.4523 85.6098 38.191 85.5305 37.8457 85.5305H37.3837C37.0383 85.5305 36.777 85.6098 36.5997 85.7685C36.4223 85.9271 36.3337 86.1511 36.3337 86.4405V89.5205C36.3337 89.8098 36.4223 90.0338 36.5997 90.1925C36.777 90.3511 37.0383 90.4305 37.3837 90.4305H37.8457C38.191 90.4305 38.4523 90.3511 38.6297 90.1925C38.807 90.0338 38.8957 89.8098 38.8957 89.5205V86.4405ZM43.728 84.4805H44.848V84.8585C45.156 84.6065 45.5293 84.4805 45.968 84.4805H46.99V85.6005H45.828C45.52 85.6005 45.2913 85.7031 45.142 85.9085C44.9926 86.1138 44.918 86.3145 44.918 86.5105V91.4805H43.728V84.4805ZM53.4301 91.4805L51.5121 88.0225L51.1201 88.4845V91.4805H49.9301V81.6805H51.1201V86.9165L53.2201 84.4805H54.7181L52.3521 87.1825L54.8161 91.4805H53.4301ZM57.8942 82.9405V81.6805H59.2242V82.9405H57.8942ZM57.9642 91.4805V84.4805H59.1542V91.4805H57.9642ZM62.9358 84.4805H64.0558V84.8165C64.3452 84.5925 64.7185 84.4805 65.1758 84.4805H65.5398C66.2958 84.4805 66.8558 84.6578 67.2198 85.0125C67.5932 85.3671 67.7798 85.9365 67.7798 86.7205V91.4805H66.5898V86.4405C66.5898 86.1605 66.5058 85.9411 66.3378 85.7825C66.1792 85.6145 65.9598 85.5305 65.6798 85.5305H65.0358C64.7278 85.5305 64.4992 85.6145 64.3498 85.7825C64.2005 85.9411 64.1258 86.1138 64.1258 86.3005V91.4805H62.9358V84.4805ZM76.5855 91.9705C76.5855 92.6051 76.3942 93.0765 76.0115 93.3845C75.6382 93.7018 75.0502 93.8605 74.2475 93.8605H71.4195V92.8105H74.3875C74.7235 92.8105 74.9755 92.7451 75.1435 92.6145C75.3115 92.4838 75.3955 92.3158 75.3955 92.1105V91.6625C75.3955 91.4478 75.3115 91.2798 75.1435 91.1585C74.9755 91.0278 74.7235 90.9625 74.3875 90.9625H72.0495V89.0305C71.7415 88.8625 71.5129 88.6198 71.3635 88.3025C71.2142 87.9851 71.1395 87.5745 71.1395 87.0705V86.7205C71.1395 85.9365 71.3309 85.3671 71.7135 85.0125C72.1055 84.6578 72.7075 84.4805 73.5195 84.4805H76.3755V87.0705C76.3755 87.7705 76.1842 88.3211 75.8015 88.7225C75.4189 89.1145 74.9102 89.3105 74.2755 89.3105H73.2395V89.9125H74.2475C75.0502 89.9125 75.6382 90.0711 76.0115 90.3885C76.3942 90.6965 76.5855 91.1678 76.5855 91.8025V91.9705ZM74.2755 88.2605C74.5649 88.2605 74.7842 88.1671 74.9335 87.9805C75.0829 87.7938 75.1669 87.5978 75.1855 87.3925V85.5305H73.3795C73.0342 85.5305 72.7729 85.6098 72.5955 85.7685C72.4182 85.9271 72.3295 86.1511 72.3295 86.4405V87.3505C72.3295 87.6398 72.4182 87.8638 72.5955 88.0225C72.7729 88.1811 73.0342 88.2605 73.3795 88.2605H74.2755ZM79.7375 85.8805V84.4805H81.1375V85.8805H79.7375ZM79.7375 91.4805V90.0805H81.1375V91.4805H79.7375ZM1.42608 103.63V102.58H5.97608V103.63H1.42608ZM20.2544 105.1C20.2544 105.894 20.0351 106.491 19.5964 106.892C19.1671 107.284 18.5464 107.48 17.7344 107.48H17.5244C16.7124 107.48 16.0871 107.284 15.6484 106.892C15.2191 106.491 15.0044 105.894 15.0044 105.1V97.6805H16.2224V105.366C16.2224 105.656 16.3298 105.903 16.5444 106.108C16.7591 106.314 17.0391 106.416 17.3844 106.416H17.8744C18.2198 106.416 18.4998 106.314 18.7144 106.108C18.9291 105.903 19.0364 105.656 19.0364 105.366V97.6805H20.2544V105.1ZM24.0366 100.48H25.1566V100.816C25.446 100.592 25.8193 100.48 26.2766 100.48H26.5006C27.322 100.48 27.924 100.658 28.3066 101.012C28.6893 101.358 28.8806 101.927 28.8806 102.72V105.24C28.8806 106.024 28.6846 106.594 28.2926 106.948C27.91 107.303 27.3126 107.48 26.5006 107.48H25.2266V109.86H24.0366V100.48ZM26.1366 101.53C25.8286 101.53 25.6 101.614 25.4506 101.782C25.3013 101.941 25.2266 102.114 25.2266 102.3V106.43H26.6406C26.986 106.43 27.2473 106.351 27.4246 106.192C27.602 106.034 27.6906 105.81 27.6906 105.52V102.44C27.6906 102.151 27.602 101.927 27.4246 101.768C27.2473 101.61 26.986 101.53 26.6406 101.53H26.1366ZM37.4887 101.88V100.48H38.8887V101.88H37.4887ZM37.4887 107.48V106.08H38.8887V107.48H37.4887ZM50.6939 100.228C50.6939 100.611 50.6753 100.896 50.6379 101.082C50.6006 101.26 50.5166 101.442 50.3859 101.628C50.2646 101.815 50.0359 102.095 49.6999 102.468L49.0279 103.224V104.568H47.8379V102.874L48.5799 102.02C48.9066 101.647 49.1213 101.39 49.2239 101.25C49.3359 101.101 49.4106 100.97 49.4479 100.858C49.4853 100.737 49.5039 100.569 49.5039 100.354V99.6545C49.5039 99.3651 49.4199 99.1411 49.2519 98.9825C49.0839 98.8238 48.8273 98.7445 48.4819 98.7445H46.9419V97.6805H48.3419C49.9099 97.6805 50.6939 98.3805 50.6939 99.7805V100.228ZM47.7399 107.48V106.08H49.1399V107.48H47.7399ZM56.8277 100.228C56.8277 100.611 56.809 100.896 56.7717 101.082C56.7344 101.26 56.6504 101.442 56.5197 101.628C56.3984 101.815 56.1697 102.095 55.8337 102.468L55.1617 103.224V104.568H53.9717V102.874L54.7137 102.02C55.0404 101.647 55.255 101.39 55.3577 101.25C55.4697 101.101 55.5444 100.97 55.5817 100.858C55.619 100.737 55.6377 100.569 55.6377 100.354V99.6545C55.6377 99.3651 55.5537 99.1411 55.3857 98.9825C55.2177 98.8238 54.961 98.7445 54.6157 98.7445H53.0757V97.6805H54.4757C56.0437 97.6805 56.8277 98.3805 56.8277 99.7805V100.228ZM53.8737 107.48V106.08H55.2737V107.48H53.8737ZM91.0398 103.63V102.58H95.5898V103.63H91.0398ZM109.812 105.268C109.812 106.071 109.625 106.64 109.252 106.976C108.888 107.312 108.281 107.48 107.432 107.48H104.688V97.6805H107.264C108.104 97.6805 108.739 97.8531 109.168 98.1985C109.597 98.5345 109.812 99.0898 109.812 99.8645V105.268ZM108.594 99.7385C108.594 99.4305 108.501 99.1878 108.314 99.0105C108.127 98.8238 107.88 98.7305 107.572 98.7305H105.906V106.43H107.558C107.913 106.43 108.174 106.351 108.342 106.192C108.51 106.024 108.594 105.763 108.594 105.408V99.7385ZM118.329 105.24C118.329 106.024 118.133 106.594 117.741 106.948C117.359 107.303 116.761 107.48 115.949 107.48H115.767C114.955 107.48 114.353 107.303 113.961 106.948C113.579 106.594 113.387 106.024 113.387 105.24V102.72C113.387 101.936 113.579 101.367 113.961 101.012C114.353 100.658 114.955 100.48 115.767 100.48H115.949C116.761 100.48 117.359 100.658 117.741 101.012C118.133 101.367 118.329 101.936 118.329 102.72V105.24ZM117.139 102.44C117.139 102.151 117.051 101.927 116.873 101.768C116.696 101.61 116.435 101.53 116.089 101.53H115.627C115.282 101.53 115.021 101.61 114.843 101.768C114.666 101.927 114.577 102.151 114.577 102.44V105.52C114.577 105.81 114.666 106.034 114.843 106.192C115.021 106.351 115.282 106.43 115.627 106.43H116.089C116.435 106.43 116.696 106.351 116.873 106.192C117.051 106.034 117.139 105.81 117.139 105.52V102.44ZM128.149 107.48H126.315L125.433 103.686L124.467 107.48H122.675L121.275 100.48H122.507L123.641 106.584L124.887 101.74H126.077L127.239 106.584L128.373 100.48H129.535L128.149 107.48ZM132.754 100.48H133.874V100.816C134.163 100.592 134.536 100.48 134.994 100.48H135.358C136.114 100.48 136.674 100.658 137.038 101.012C137.411 101.367 137.598 101.936 137.598 102.72V107.48H136.408V102.44C136.408 102.16 136.324 101.941 136.156 101.782C135.997 101.614 135.778 101.53 135.498 101.53H134.854C134.546 101.53 134.317 101.614 134.168 101.782C134.018 101.941 133.944 102.114 133.944 102.3V107.48H132.754V100.48ZM141.097 101.88V100.48H142.497V101.88H141.097ZM141.097 107.48V106.08H142.497V107.48H141.097ZM154.303 100.228C154.303 100.611 154.284 100.896 154.247 101.082C154.209 101.26 154.125 101.442 153.995 101.628C153.873 101.815 153.645 102.095 153.309 102.468L152.637 103.224V104.568H151.447V102.874L152.189 102.02C152.515 101.647 152.73 101.39 152.833 101.25C152.945 101.101 153.019 100.97 153.057 100.858C153.094 100.737 153.113 100.569 153.113 100.354V99.6545C153.113 99.3651 153.029 99.1411 152.861 98.9825C152.693 98.8238 152.436 98.7445 152.091 98.7445H150.551V97.6805H151.951C153.519 97.6805 154.303 98.3805 154.303 99.7805V100.228ZM151.349 107.48V106.08H152.749V107.48H151.349ZM160.436 100.228C160.436 100.611 160.418 100.896 160.38 101.082C160.343 101.26 160.259 101.442 160.128 101.628C160.007 101.815 159.778 102.095 159.442 102.468L158.77 103.224V104.568H157.58V102.874L158.322 102.02C158.649 101.647 158.864 101.39 158.966 101.25C159.078 101.101 159.153 100.97 159.19 100.858C159.228 100.737 159.246 100.569 159.246 100.354V99.6545C159.246 99.3651 159.162 99.1411 158.994 98.9825C158.826 98.8238 158.57 98.7445 158.224 98.7445H156.684V97.6805H158.084C159.652 97.6805 160.436 98.3805 160.436 99.7805V100.228ZM157.482 107.48V106.08H158.882V107.48H157.482Z" fill="white"/>
<path d="M6.55008 27.2685C6.55008 28.0711 6.36342 28.6405 5.99008 28.9765C5.62608 29.3125 5.01942 29.4805 4.17008 29.4805H1.42608V19.6805H4.00208C4.84208 19.6805 5.47675 19.8531 5.90608 20.1985C6.33542 20.5345 6.55008 21.0898 6.55008 21.8645V27.2685ZM5.33208 21.7385C5.33208 21.4305 5.23875 21.1878 5.05208 21.0105C4.86542 20.8238 4.61808 20.7305 4.31008 20.7305H2.64408V28.4305H4.29608C4.65075 28.4305 4.91208 28.3511 5.08008 28.1925C5.24808 28.0245 5.33208 27.7631 5.33208 27.4085V21.7385ZM14.3952 29.4805C14.2739 29.4805 14.1386 29.4431 13.9892 29.3685C13.8492 29.2938 13.7279 29.1911 13.6252 29.0605C13.4106 29.3405 13.1259 29.4805 12.7712 29.4805H11.8052C11.0959 29.4805 10.5779 29.3405 10.2512 29.0605C9.93389 28.7711 9.77522 28.2811 9.77522 27.5905V27.3105C9.77522 25.8638 10.4566 25.1405 11.8192 25.1405H13.2752V24.4405C13.2752 24.1511 13.1866 23.9271 13.0092 23.7685C12.8319 23.6098 12.5706 23.5305 12.2252 23.5305H10.3352V22.4805H12.0852C12.8972 22.4805 13.4946 22.6578 13.8772 23.0125C14.2692 23.3671 14.4652 23.9365 14.4652 24.7205V28.0805C14.4652 28.2205 14.5166 28.3278 14.6192 28.4025C14.7312 28.4678 14.9132 28.5005 15.1652 28.5005V29.4805H14.3952ZM12.6312 28.4305C12.9112 28.4305 13.0886 28.3651 13.1632 28.2345C13.2379 28.1038 13.2752 27.9358 13.2752 27.7305V26.1905H11.8052C11.5626 26.1905 11.3619 26.2698 11.2032 26.4285C11.0446 26.5871 10.9652 26.7878 10.9652 27.0305V27.7305C10.9652 27.9731 11.0212 28.1505 11.1332 28.2625C11.2452 28.3745 11.4226 28.4305 11.6652 28.4305H12.6312ZM19.9214 29.4805C19.4454 29.4805 19.0814 29.3265 18.8294 29.0185C18.5774 28.7105 18.4514 28.3045 18.4514 27.8005V23.5305H17.5414V22.4805H18.4514V20.8005H19.6414V22.4805H21.2654V23.5305H19.6414V27.8705C19.6414 28.0758 19.6927 28.2205 19.7954 28.3045C19.8981 28.3885 20.0567 28.4305 20.2714 28.4305H21.2654V29.4805H19.9214ZM28.3991 29.4805C28.2777 29.4805 28.1424 29.4431 27.9931 29.3685C27.8531 29.2938 27.7317 29.1911 27.6291 29.0605C27.4144 29.3405 27.1297 29.4805 26.7751 29.4805H25.8091C25.0997 29.4805 24.5817 29.3405 24.2551 29.0605C23.9377 28.7711 23.7791 28.2811 23.7791 27.5905V27.3105C23.7791 25.8638 24.4604 25.1405 25.8231 25.1405H27.2791V24.4405C27.2791 24.1511 27.1904 23.9271 27.0131 23.7685C26.8357 23.6098 26.5744 23.5305 26.2291 23.5305H24.3391V22.4805H26.0891C26.9011 22.4805 27.4984 22.6578 27.8811 23.0125C28.2731 23.3671 28.4691 23.9365 28.4691 24.7205V28.0805C28.4691 28.2205 28.5204 28.3278 28.6231 28.4025C28.7351 28.4678 28.9171 28.5005 29.1691 28.5005V29.4805H28.3991ZM26.6351 28.4305C26.9151 28.4305 27.0924 28.3651 27.1671 28.2345C27.2417 28.1038 27.2791 27.9358 27.2791 27.7305V26.1905H25.8091C25.5664 26.1905 25.3657 26.2698 25.2071 26.4285C25.0484 26.5871 24.9691 26.7878 24.9691 27.0305V27.7305C24.9691 27.9731 25.0251 28.1505 25.1371 28.2625C25.2491 28.3745 25.4264 28.4305 25.6691 28.4305H26.6351ZM41.8179 27.1005C41.8179 27.8938 41.5986 28.4911 41.1599 28.8925C40.7306 29.2845 40.1099 29.4805 39.2979 29.4805H37.4499V28.4165H39.4379C39.7833 28.4165 40.0633 28.3138 40.2779 28.1085C40.4926 27.9031 40.5999 27.6558 40.5999 27.3665V25.9105C40.5999 25.6305 40.5253 25.4065 40.3759 25.2385C40.2359 25.0611 40.0213 24.9725 39.7319 24.9725H39.4519C38.7613 24.9725 38.2153 24.7718 37.8139 24.3705C37.4126 23.9598 37.2119 23.3671 37.2119 22.5925V22.0605C37.2119 21.2671 37.4266 20.6745 37.8559 20.2825C38.2946 19.8811 38.9199 19.6805 39.7319 19.6805H41.5939V20.7445H39.5919C39.2466 20.7445 38.9666 20.8471 38.7519 21.0525C38.5373 21.2578 38.4299 21.5051 38.4299 21.7945V22.8585C38.4299 23.1478 38.5233 23.3905 38.7099 23.5865C38.8966 23.7731 39.1393 23.8665 39.4379 23.8665H39.7179C40.3806 23.8665 40.8939 24.0578 41.2579 24.4405C41.6313 24.8231 41.8179 25.4018 41.8179 26.1765V27.1005ZM47.8912 30.0965C47.7792 30.5165 47.6625 30.8525 47.5412 31.1045C47.4199 31.3658 47.2472 31.5665 47.0232 31.7065C46.8085 31.8558 46.5192 31.9305 46.1552 31.9305C45.9592 31.9305 45.6932 31.9025 45.3572 31.8465V30.8245C45.6185 30.8618 45.8612 30.8805 46.0852 30.8805C46.3465 30.8805 46.5332 30.6705 46.6452 30.2505L46.8692 29.4805H46.5892L44.4192 22.4805H45.7072L47.3312 28.2625L48.7032 22.4805H49.9212L47.8912 30.0965ZM53.0697 22.4805H54.1897V22.8165C54.479 22.5925 54.8523 22.4805 55.3097 22.4805H55.6737C56.4297 22.4805 56.9897 22.6578 57.3537 23.0125C57.727 23.3671 57.9137 23.9365 57.9137 24.7205V29.4805H56.7237V24.4405C56.7237 24.1605 56.6397 23.9411 56.4717 23.7825C56.313 23.6145 56.0937 23.5305 55.8137 23.5305H55.1697C54.8617 23.5305 54.633 23.6145 54.4837 23.7825C54.3343 23.9411 54.2597 24.1138 54.2597 24.3005V29.4805H53.0697V22.4805ZM63.8633 29.4805C63.042 29.4805 62.44 29.3078 62.0573 28.9625C61.6747 28.6078 61.4833 28.0338 61.4833 27.2405V24.7205C61.4833 23.9365 61.6747 23.3671 62.0573 23.0125C62.4493 22.6578 63.0513 22.4805 63.8633 22.4805H65.3893V23.5305H63.7233C63.378 23.5305 63.1167 23.6098 62.9393 23.7685C62.762 23.9271 62.6733 24.1511 62.6733 24.4405V27.5205C62.6733 27.8098 62.762 28.0338 62.9393 28.1925C63.1167 28.3511 63.378 28.4305 63.7233 28.4305H65.3893V29.4805H63.8633ZM68.5451 23.8805V22.4805H69.9451V23.8805H68.5451ZM68.5451 29.4805V28.0805H69.9451V29.4805H68.5451ZM83.3744 27.2685C83.3744 28.0431 83.1878 28.6078 82.8144 28.9625C82.4411 29.3078 81.8344 29.4805 80.9944 29.4805H80.7424C79.9024 29.4805 79.2958 29.3078 78.9224 28.9625C78.5491 28.6078 78.3624 28.0431 78.3624 27.2685V26.0925C78.3624 25.2805 78.6658 24.7065 79.2724 24.3705C78.7778 24.0251 78.5304 23.4838 78.5304 22.7465V21.8645C78.5304 21.1178 78.7264 20.5671 79.1184 20.2125C79.5104 19.8578 80.0704 19.6805 80.7984 19.6805H80.9384C81.6664 19.6805 82.2264 19.8578 82.6184 20.2125C83.0104 20.5671 83.2064 21.1178 83.2064 21.8645V22.7465C83.2064 23.4838 82.9591 24.0251 82.4644 24.3705C83.0711 24.7065 83.3744 25.2805 83.3744 26.0925V27.2685ZM80.6304 20.7305C80.3224 20.7305 80.0984 20.8145 79.9584 20.9825C79.8184 21.1505 79.7484 21.4025 79.7484 21.7385V22.8865C79.7484 23.1851 79.8324 23.4278 80.0004 23.6145C80.1778 23.7918 80.3971 23.8898 80.6584 23.9085H80.9944C81.2838 23.9085 81.5218 23.8151 81.7084 23.6285C81.8951 23.4418 81.9884 23.1945 81.9884 22.8865V21.7385C81.9884 21.3838 81.9091 21.1271 81.7504 20.9685C81.6011 20.8098 81.3491 20.7305 80.9944 20.7305H80.6304ZM82.1564 25.9665C82.1564 25.6585 82.0631 25.4158 81.8764 25.2385C81.6898 25.0518 81.4424 24.9585 81.1344 24.9585H80.6024C80.2944 24.9585 80.0471 25.0518 79.8604 25.2385C79.6738 25.4158 79.5804 25.6585 79.5804 25.9665V27.4085C79.5804 27.7538 79.6551 28.0105 79.8044 28.1785C79.9538 28.3465 80.1871 28.4305 80.5044 28.4305H81.1204C81.4751 28.4305 81.7364 28.3511 81.9044 28.1925C82.0724 28.0245 82.1564 27.7631 82.1564 27.4085V25.9665ZM86.5766 28.2485L88.6766 25.0565C88.9846 24.5898 89.1899 24.2678 89.2926 24.0905C89.3953 23.9038 89.4653 23.7218 89.5026 23.5445C89.5399 23.3671 89.5586 23.1105 89.5586 22.7745V21.7945C89.5586 21.5051 89.4513 21.2578 89.2366 21.0525C89.0219 20.8471 88.7419 20.7445 88.3966 20.7445H86.8566V19.6805H88.2566C89.0686 19.6805 89.6893 19.8811 90.1186 20.2825C90.5573 20.6745 90.7766 21.2671 90.7766 22.0605V22.6485C90.7766 23.1151 90.7533 23.4698 90.7066 23.7125C90.6599 23.9551 90.5759 24.1838 90.4546 24.3985C90.3426 24.6131 90.1186 24.9771 89.7826 25.4905L87.8506 28.4165H91.0566V29.4805H86.5766V28.2485ZM98.7248 23.7125C98.7248 24.3005 98.5754 24.7485 98.2768 25.0565C97.9781 25.3551 97.5581 25.5045 97.0168 25.5045H96.7648C96.2234 25.5045 95.8034 25.3551 95.5048 25.0565C95.2061 24.7485 95.0568 24.3005 95.0568 23.7125V21.4725C95.0568 20.8845 95.2061 20.4411 95.5048 20.1425C95.8034 19.8345 96.2234 19.6805 96.7648 19.6805H97.0168C97.5581 19.6805 97.9781 19.8345 98.2768 20.1425C98.5754 20.4411 98.7248 20.8845 98.7248 21.4725V23.7125ZM98.7248 29.4805H97.5488L100.979 19.6805H102.071L98.7248 29.4805ZM97.7448 21.3185C97.7448 21.0851 97.6841 20.8938 97.5628 20.7445C97.4414 20.5951 97.2594 20.5205 97.0168 20.5205H96.7648C96.5221 20.5205 96.3401 20.5951 96.2188 20.7445C96.0974 20.8938 96.0368 21.0851 96.0368 21.3185V23.8665C96.0368 24.0998 96.0974 24.2911 96.2188 24.4405C96.3401 24.5898 96.5221 24.6645 96.7648 24.6645H97.0168C97.2594 24.6645 97.4414 24.5898 97.5628 24.4405C97.6841 24.2911 97.7448 24.0998 97.7448 23.8665V21.3185ZM104.521 27.6885C104.521 28.2765 104.371 28.7245 104.073 29.0325C103.774 29.3311 103.354 29.4805 102.813 29.4805H102.561C102.019 29.4805 101.599 29.3311 101.301 29.0325C101.002 28.7245 100.853 28.2765 100.853 27.6885V25.4485C100.853 24.8605 101.002 24.4171 101.301 24.1185C101.599 23.8105 102.019 23.6565 102.561 23.6565H102.813C103.354 23.6565 103.774 23.8105 104.073 24.1185C104.371 24.4171 104.521 24.8605 104.521 25.4485V27.6885ZM103.541 25.2945C103.541 25.0611 103.48 24.8698 103.359 24.7205C103.237 24.5711 103.055 24.4965 102.813 24.4965H102.561C102.318 24.4965 102.136 24.5711 102.015 24.7205C101.893 24.8698 101.833 25.0611 101.833 25.2945V27.8425C101.833 28.0758 101.893 28.2671 102.015 28.4165C102.136 28.5658 102.318 28.6405 102.561 28.6405H102.813C103.055 28.6405 103.237 28.5658 103.359 28.4165C103.48 28.2671 103.541 28.0758 103.541 27.8425V25.2945ZM115.878 29.4805C115.056 29.4805 114.454 29.3078 114.072 28.9625C113.689 28.6078 113.498 28.0338 113.498 27.2405V24.7205C113.498 23.9365 113.689 23.3671 114.072 23.0125C114.464 22.6578 115.066 22.4805 115.878 22.4805H117.404V23.5305H115.738C115.392 23.5305 115.131 23.6098 114.954 23.7685C114.776 23.9271 114.688 24.1511 114.688 24.4405V27.5205C114.688 27.8098 114.776 28.0338 114.954 28.1925C115.131 28.3511 115.392 28.4305 115.738 28.4305H117.404V29.4805H115.878ZM125.435 27.2405C125.435 28.0245 125.239 28.5938 124.847 28.9485C124.464 29.3031 123.867 29.4805 123.055 29.4805H122.873C122.061 29.4805 121.459 29.3031 121.067 28.9485C120.684 28.5938 120.493 28.0245 120.493 27.2405V24.7205C120.493 23.9365 120.684 23.3671 121.067 23.0125C121.459 22.6578 122.061 22.4805 122.873 22.4805H123.055C123.867 22.4805 124.464 22.6578 124.847 23.0125C125.239 23.3671 125.435 23.9365 125.435 24.7205V27.2405ZM124.245 24.4405C124.245 24.1511 124.156 23.9271 123.979 23.7685C123.801 23.6098 123.54 23.5305 123.195 23.5305H122.733C122.387 23.5305 122.126 23.6098 121.949 23.7685C121.771 23.9271 121.683 24.1511 121.683 24.4405V27.5205C121.683 27.8098 121.771 28.0338 121.949 28.1925C122.126 28.3511 122.387 28.4305 122.733 28.4305H123.195C123.54 28.4305 123.801 28.3511 123.979 28.1925C124.156 28.0338 124.245 27.8098 124.245 27.5205V24.4405ZM129.077 22.4805H130.197V22.8165C130.486 22.5925 130.86 22.4805 131.317 22.4805H131.401C132.25 22.4805 132.857 22.6951 133.221 23.1245C133.566 22.6951 134.047 22.4805 134.663 22.4805H134.747C135.503 22.4805 136.063 22.6578 136.427 23.0125C136.8 23.3671 136.987 23.9365 136.987 24.7205V29.4805H135.797V24.4405C135.797 24.1605 135.713 23.9411 135.545 23.7825C135.386 23.6145 135.167 23.5305 134.887 23.5305H134.523C134.234 23.5305 134.014 23.6191 133.865 23.7965C133.725 23.9645 133.646 24.1465 133.627 24.3425V29.4805H132.437V24.4405C132.437 24.1605 132.358 23.9411 132.199 23.7825C132.04 23.6145 131.821 23.5305 131.541 23.5305H131.177C130.878 23.5305 130.65 23.6098 130.491 23.7685C130.342 23.9178 130.267 24.0811 130.267 24.2585V29.4805H129.077V22.4805ZM140.693 22.4805H141.813V22.8165C142.103 22.5925 142.476 22.4805 142.933 22.4805H143.157C143.979 22.4805 144.581 22.6578 144.963 23.0125C145.346 23.3578 145.537 23.9271 145.537 24.7205V27.2405C145.537 28.0245 145.341 28.5938 144.949 28.9485C144.567 29.3031 143.969 29.4805 143.157 29.4805H141.883V31.8605H140.693V22.4805ZM142.793 23.5305C142.485 23.5305 142.257 23.6145 142.107 23.7825C141.958 23.9411 141.883 24.1138 141.883 24.3005V28.4305H143.297C143.643 28.4305 143.904 28.3511 144.081 28.1925C144.259 28.0338 144.347 27.8098 144.347 27.5205V24.4405C144.347 24.1511 144.259 23.9271 144.081 23.7685C143.904 23.6098 143.643 23.5305 143.297 23.5305H142.793ZM150.299 29.4805C149.981 29.4805 149.701 29.3685 149.459 29.1445C149.225 28.9205 149.109 28.5658 149.109 28.0805V19.6805H150.299V28.0105C150.299 28.1598 150.336 28.2671 150.411 28.3325C150.485 28.3978 150.611 28.4305 150.789 28.4305H151.069V29.4805H150.299ZM156.459 29.4805C155.637 29.4805 155.035 29.3078 154.653 28.9625C154.27 28.6078 154.079 28.0338 154.079 27.2405V24.7205C154.079 23.9178 154.251 23.3438 154.597 22.9985C154.942 22.6531 155.516 22.4805 156.319 22.4805H156.697C157.359 22.4805 157.859 22.6671 158.195 23.0405C158.54 23.4045 158.713 23.9411 158.713 24.6505V26.4705H155.269V27.5205C155.269 27.8098 155.357 28.0338 155.535 28.1925C155.712 28.3511 155.973 28.4305 156.319 28.4305H158.265V29.4805H156.459ZM157.551 25.4205V24.3705C157.551 24.1278 157.471 23.9271 157.313 23.7685C157.154 23.6098 156.953 23.5305 156.711 23.5305H156.179C155.843 23.5305 155.605 23.6098 155.465 23.7685C155.334 23.9178 155.269 24.1418 155.269 24.4405V25.4205H157.551ZM163.82 29.4805C163.344 29.4805 162.98 29.3265 162.728 29.0185C162.476 28.7105 162.35 28.3045 162.35 27.8005V23.5305H161.44V22.4805H162.35V20.8005H163.54V22.4805H165.164V23.5305H163.54V27.8705C163.54 28.0758 163.591 28.2205 163.694 28.3045C163.797 28.3885 163.955 28.4305 164.17 28.4305H165.164V29.4805H163.82ZM170.408 29.4805C169.586 29.4805 168.984 29.3078 168.602 28.9625C168.219 28.6078 168.028 28.0338 168.028 27.2405V24.7205C168.028 23.9178 168.2 23.3438 168.546 22.9985C168.891 22.6531 169.465 22.4805 170.268 22.4805H170.646C171.308 22.4805 171.808 22.6671 172.144 23.0405C172.489 23.4045 172.662 23.9411 172.662 24.6505V26.4705H169.218V27.5205C169.218 27.8098 169.306 28.0338 169.484 28.1925C169.661 28.3511 169.922 28.4305 170.268 28.4305H172.214V29.4805H170.408ZM171.5 25.4205V24.3705C171.5 24.1278 171.42 23.9271 171.262 23.7685C171.103 23.6098 170.902 23.5305 170.66 23.5305H170.128C169.792 23.5305 169.554 23.6098 169.414 23.7685C169.283 23.9178 169.218 24.1418 169.218 24.4405V25.4205H171.5Z" fill="white"/>
</svg>
