<svg width="273" height="215" viewBox="0 0 273 215" fill="none" xmlns="http://www.w3.org/2000/svg">
<path d="M249.236 70.4746H0.236328V71.4746H249.236V70.4746Z" fill="#F5F5F5"/>
<path d="M244.236 143.475H0.236328V144.475H244.236V143.475Z" fill="#F5F5F5"/>
<path d="M246.236 117.475H0.236328V124.964H246.236V117.475Z" stroke="#F5F5F5" stroke-width="0.472324" stroke-miterlimit="10"/>
<path d="M246.236 47.4746H0.236328V54.9642H246.236V47.4746Z" stroke="#F5F5F5" stroke-width="0.472324" stroke-miterlimit="10"/>
<path d="M80.2363 47.4746H0.236328V54.4746H80.2363V47.4746Z" fill="#F27C06"/>
<path d="M3.80633 170.475C2.99433 170.475 2.36899 170.279 1.93033 169.887C1.50099 169.485 1.28633 168.888 1.28633 168.095V163.055C1.28633 162.261 1.50099 161.669 1.93033 161.277C2.36899 160.875 2.99433 160.675 3.80633 160.675H5.69633V161.739H3.66633C3.32099 161.739 3.04099 161.841 2.82633 162.047C2.61166 162.252 2.50433 162.499 2.50433 162.789V168.361C2.50433 168.65 2.61166 168.897 2.82633 169.103C3.04099 169.308 3.32099 169.411 3.66633 169.411H4.95433V166.373H3.77833V165.323H6.11633V170.475H3.80633ZM13.7496 170.475C13.6283 170.475 13.4929 170.437 13.3436 170.363C13.2036 170.288 13.0823 170.185 12.9796 170.055C12.7649 170.335 12.4803 170.475 12.1256 170.475H11.1596C10.4503 170.475 9.93228 170.335 9.60561 170.055C9.28828 169.765 9.12961 169.275 9.12961 168.585V168.305C9.12961 166.858 9.81094 166.135 11.1736 166.135H12.6296V165.435C12.6296 165.145 12.5409 164.921 12.3636 164.763C12.1863 164.604 11.9249 164.525 11.5796 164.525H9.68961V163.475H11.4396C12.2516 163.475 12.8489 163.652 13.2316 164.007C13.6236 164.361 13.8196 164.931 13.8196 165.715V169.075C13.8196 169.215 13.8709 169.322 13.9736 169.397C14.0856 169.462 14.2676 169.495 14.5196 169.495V170.475H13.7496ZM11.9856 169.425C12.2656 169.425 12.4429 169.359 12.5176 169.229C12.5923 169.098 12.6296 168.93 12.6296 168.725V167.185H11.1596C10.9169 167.185 10.7163 167.264 10.5576 167.423C10.3989 167.581 10.3196 167.782 10.3196 168.025V168.725C10.3196 168.967 10.3756 169.145 10.4876 169.257C10.5996 169.369 10.7769 169.425 11.0196 169.425H11.9856ZM18.7158 170.475C18.3984 170.475 18.1184 170.363 17.8758 170.139C17.6424 169.915 17.5258 169.56 17.5258 169.075V160.675H18.7158V169.005C18.7158 169.154 18.7531 169.261 18.8278 169.327C18.9024 169.392 19.0284 169.425 19.2058 169.425H19.4858V170.475H18.7158ZM26.6258 170.475C26.5044 170.475 26.3691 170.437 26.2198 170.363C26.0798 170.288 25.9584 170.185 25.8558 170.055C25.6411 170.335 25.3564 170.475 25.0018 170.475H24.0358C23.3264 170.475 22.8084 170.335 22.4818 170.055C22.1644 169.765 22.0058 169.275 22.0058 168.585V168.305C22.0058 166.858 22.6871 166.135 24.0498 166.135H25.5058V165.435C25.5058 165.145 25.4171 164.921 25.2398 164.763C25.0624 164.604 24.8011 164.525 24.4558 164.525H22.5658V163.475H24.3158C25.1278 163.475 25.7251 163.652 26.1078 164.007C26.4998 164.361 26.6958 164.931 26.6958 165.715V169.075C26.6958 169.215 26.7471 169.322 26.8498 169.397C26.9618 169.462 27.1438 169.495 27.3958 169.495V170.475H26.6258ZM24.8618 169.425C25.1418 169.425 25.3191 169.359 25.3938 169.229C25.4684 169.098 25.5058 168.93 25.5058 168.725V167.185H24.0358C23.7931 167.185 23.5924 167.264 23.4338 167.423C23.2751 167.581 23.1958 167.782 23.1958 168.025V168.725C23.1958 168.967 23.2518 169.145 23.3638 169.257C23.4758 169.369 23.6531 169.425 23.8958 169.425H24.8618ZM33.958 170.475L32.628 167.885L31.228 170.475H29.912L31.942 166.863L30.08 163.475H31.452L32.656 165.785L33.874 163.475H35.176L33.286 166.807L35.358 170.475H33.958ZM41.0714 171.091C40.9594 171.511 40.8427 171.847 40.7214 172.099C40.6 172.36 40.4274 172.561 40.2034 172.701C39.9887 172.85 39.6994 172.925 39.3354 172.925C39.1394 172.925 38.8734 172.897 38.5374 172.841V171.819C38.7987 171.856 39.0414 171.875 39.2654 171.875C39.5267 171.875 39.7134 171.665 39.8254 171.245L40.0494 170.475H39.7694L37.5994 163.475H38.8874L40.5114 169.257L41.8834 163.475H43.1014L41.0714 171.091ZM50.6566 170.475V169.453H51.6366V161.697H50.6566V160.675H53.8346V161.697H52.8546V169.453H53.8346V170.475H50.6566ZM62.1839 168.263C62.1839 169.065 61.9973 169.635 61.6239 169.971C61.2599 170.307 60.6533 170.475 59.8039 170.475H57.0599V160.675H59.6359C60.4759 160.675 61.1106 160.847 61.5399 161.193C61.9693 161.529 62.1839 162.084 62.1839 162.859V168.263ZM60.9659 162.733C60.9659 162.425 60.8726 162.182 60.6859 162.005C60.4993 161.818 60.2519 161.725 59.9439 161.725H58.2779V169.425H59.9299C60.2846 169.425 60.5459 169.345 60.7139 169.187C60.8819 169.019 60.9659 168.757 60.9659 168.403V162.733ZM65.5491 164.875V163.475H66.9491V164.875H65.5491ZM65.5491 170.475V169.075H66.9491V170.475H65.5491ZM79.5103 168.263C79.5103 169.037 79.3237 169.602 78.9503 169.957C78.577 170.302 77.9703 170.475 77.1303 170.475H75.4783V169.425H77.2563C77.611 169.425 77.8723 169.345 78.0403 169.187C78.2083 169.019 78.2923 168.757 78.2923 168.403V166.961C78.2923 166.653 78.199 166.41 78.0123 166.233C77.8257 166.046 77.5783 165.953 77.2703 165.953H75.9123V164.903H77.1303C77.4197 164.903 77.6623 164.809 77.8583 164.623C78.0543 164.436 78.1523 164.189 78.1523 163.881V162.733C78.1523 162.378 78.0683 162.121 77.9003 161.963C77.7417 161.804 77.485 161.725 77.1303 161.725H75.4783V160.675H76.9623C77.7557 160.675 78.353 160.852 78.7543 161.207C79.165 161.552 79.3703 162.103 79.3703 162.859V163.741C79.3703 164.459 79.1137 165.001 78.6003 165.365C79.207 165.701 79.5103 166.275 79.5103 167.087V168.263ZM88.5085 168.263C88.5085 169.065 88.3219 169.635 87.9485 169.971C87.5845 170.307 86.9779 170.475 86.1285 170.475H83.4685V160.675H85.9605C86.7912 160.675 87.3979 160.843 87.7805 161.179C88.1725 161.515 88.3685 162.075 88.3685 162.859V163.657C88.3685 164.375 88.1119 164.917 87.5985 165.281C88.2052 165.617 88.5085 166.191 88.5085 167.003V168.263ZM87.1505 162.733C87.1505 162.378 87.0665 162.121 86.8985 161.963C86.7399 161.804 86.4832 161.725 86.1285 161.725H84.6865V164.819H86.1285C86.4179 164.819 86.6605 164.725 86.8565 164.539C87.0525 164.352 87.1505 164.105 87.1505 163.797V162.733ZM87.2905 166.877C87.2905 166.569 87.1972 166.326 87.0105 166.149C86.8239 165.962 86.5765 165.869 86.2685 165.869H84.6865V169.425H86.2545C86.6092 169.425 86.8705 169.345 87.0385 169.187C87.2065 169.019 87.2905 168.757 87.2905 168.403V166.877ZM95.768 168.725C95.768 169.313 95.586 169.751 95.222 170.041C94.8673 170.33 94.3493 170.475 93.668 170.475H91.862V169.425H93.808C94.06 169.425 94.2513 169.373 94.382 169.271C94.5126 169.159 94.578 169 94.578 168.795V168.053C94.578 167.633 94.3773 167.423 93.976 167.423H93.738C93.0846 167.423 92.5946 167.283 92.268 167.003C91.9506 166.713 91.792 166.261 91.792 165.645V165.239C91.792 164.613 91.9693 164.165 92.324 163.895C92.6786 163.615 93.2013 163.475 93.892 163.475H95.488V164.525H93.752C93.5186 164.525 93.332 164.581 93.192 164.693C93.052 164.795 92.982 164.949 92.982 165.155V165.659C92.982 165.873 93.0426 166.032 93.164 166.135C93.2946 166.237 93.458 166.289 93.654 166.289H93.85C94.4753 166.289 94.9513 166.443 95.278 166.751C95.6046 167.049 95.768 167.497 95.768 168.095V168.725ZM99.1337 170.475V160.675H100.352V169.411H103.474V170.475H99.1337ZM108.446 170.475C107.625 170.475 107.023 170.302 106.64 169.957C106.257 169.602 106.066 169.028 106.066 168.235V165.715C106.066 164.931 106.257 164.361 106.64 164.007C107.032 163.652 107.634 163.475 108.446 163.475H109.972V164.525H108.306C107.961 164.525 107.699 164.604 107.522 164.763C107.345 164.921 107.256 165.145 107.256 165.435V168.515C107.256 168.804 107.345 169.028 107.522 169.187C107.699 169.345 107.961 169.425 108.306 169.425H109.972V170.475H108.446ZM118.304 166.625V165.575H122.854V166.625H118.304ZM133.451 170.475H132.205L134.543 161.725H131.435V160.675H135.705V162.033L133.451 170.475ZM144.255 168.263C144.255 169.037 144.068 169.602 143.695 169.957C143.322 170.302 142.715 170.475 141.875 170.475H141.623C140.783 170.475 140.176 170.302 139.803 169.957C139.43 169.602 139.243 169.037 139.243 168.263V167.087C139.243 166.275 139.546 165.701 140.153 165.365C139.658 165.019 139.411 164.478 139.411 163.741V162.859C139.411 162.112 139.607 161.561 139.999 161.207C140.391 160.852 140.951 160.675 141.679 160.675H141.819C142.547 160.675 143.107 160.852 143.499 161.207C143.891 161.561 144.087 162.112 144.087 162.859V163.741C144.087 164.478 143.84 165.019 143.345 165.365C143.952 165.701 144.255 166.275 144.255 167.087V168.263ZM141.511 161.725C141.203 161.725 140.979 161.809 140.839 161.977C140.699 162.145 140.629 162.397 140.629 162.733V163.881C140.629 164.179 140.713 164.422 140.881 164.609C141.058 164.786 141.278 164.884 141.539 164.903H141.875C142.164 164.903 142.402 164.809 142.589 164.623C142.776 164.436 142.869 164.189 142.869 163.881V162.733C142.869 162.378 142.79 162.121 142.631 161.963C142.482 161.804 142.23 161.725 141.875 161.725H141.511ZM143.037 166.961C143.037 166.653 142.944 166.41 142.757 166.233C142.57 166.046 142.323 165.953 142.015 165.953H141.483C141.175 165.953 140.928 166.046 140.741 166.233C140.554 166.41 140.461 166.653 140.461 166.961V168.403C140.461 168.748 140.536 169.005 140.685 169.173C140.834 169.341 141.068 169.425 141.385 169.425H142.001C142.356 169.425 142.617 169.345 142.785 169.187C142.953 169.019 143.037 168.757 143.037 168.403V166.961ZM147.317 169.243L149.417 166.051C149.725 165.584 149.93 165.262 150.033 165.085C150.136 164.898 150.206 164.716 150.243 164.539C150.28 164.361 150.299 164.105 150.299 163.769V162.789C150.299 162.499 150.192 162.252 149.977 162.047C149.762 161.841 149.482 161.739 149.137 161.739H147.597V160.675H148.997C149.809 160.675 150.43 160.875 150.859 161.277C151.298 161.669 151.517 162.261 151.517 163.055V163.643C151.517 164.109 151.494 164.464 151.447 164.707C151.4 164.949 151.316 165.178 151.195 165.393C151.083 165.607 150.859 165.971 150.523 166.485L148.591 169.411H151.797V170.475H147.317V169.243ZM159.619 168.263C159.619 169.037 159.433 169.602 159.059 169.957C158.686 170.302 158.079 170.475 157.239 170.475H155.587V169.425H157.365C157.72 169.425 157.981 169.345 158.149 169.187C158.317 169.019 158.401 168.757 158.401 168.403V166.961C158.401 166.653 158.308 166.41 158.121 166.233C157.935 166.046 157.687 165.953 157.379 165.953H156.021V164.903H157.239C157.529 164.903 157.771 164.809 157.967 164.623C158.163 164.436 158.261 164.189 158.261 163.881V162.733C158.261 162.378 158.177 162.121 158.009 161.963C157.851 161.804 157.594 161.725 157.239 161.725H155.587V160.675H157.071C157.865 160.675 158.462 160.852 158.863 161.207C159.274 161.552 159.479 162.103 159.479 162.859V163.741C159.479 164.459 159.223 165.001 158.709 165.365C159.316 165.701 159.619 166.275 159.619 167.087V168.263Z" fill="white"/>
<path d="M2.64433 2.70247V6.04847H5.66833V7.07047H2.64433V11.4805H1.42633V1.68047H6.01833V2.70247H2.64433ZM9.09844 2.94047V1.68047H10.4284V2.94047H9.09844ZM9.16844 11.4805V4.48047H10.3584V11.4805H9.16844ZM15.1201 11.4805C14.8027 11.4805 14.5227 11.3685 14.2801 11.1445C14.0467 10.9205 13.9301 10.5658 13.9301 10.0805V1.68047H15.1201V10.0105C15.1201 10.1598 15.1574 10.2671 15.2321 10.3325C15.3067 10.3978 15.4327 10.4305 15.6101 10.4305H15.8901V11.4805H15.1201ZM21.1401 11.4805C20.3187 11.4805 19.7167 11.3078 19.3341 10.9625C18.9514 10.6078 18.7601 10.0338 18.7601 9.24047V6.72047C18.7601 5.9178 18.9327 5.3438 19.2781 4.99847C19.6234 4.65314 20.1974 4.48047 21.0001 4.48047H21.3781C22.0407 4.48047 22.5401 4.66714 22.8761 5.04047C23.2214 5.40447 23.3941 5.94113 23.3941 6.65047V8.47047H19.9501V9.52047C19.9501 9.8098 20.0387 10.0338 20.2161 10.1925C20.3934 10.3511 20.6547 10.4305 21.0001 10.4305H22.9461V11.4805H21.1401ZM22.2321 7.42047V6.37047C22.2321 6.1278 22.1527 5.92714 21.9941 5.76847C21.8354 5.6098 21.6347 5.53047 21.3921 5.53047H20.8601C20.5241 5.53047 20.2861 5.6098 20.1461 5.76847C20.0154 5.9178 19.9501 6.1418 19.9501 6.44047V7.42047H22.2321ZM36.1143 9.10047C36.1143 9.8938 35.8949 10.4911 35.4563 10.8925C35.0269 11.2845 34.4063 11.4805 33.5943 11.4805H31.7463V10.4165H33.7343C34.0796 10.4165 34.3596 10.3138 34.5743 10.1085C34.7889 9.90314 34.8963 9.6558 34.8963 9.36647V7.91047C34.8963 7.63047 34.8216 7.40647 34.6723 7.23847C34.5323 7.06114 34.3176 6.97247 34.0283 6.97247H33.7483C33.0576 6.97247 32.5116 6.7718 32.1103 6.37047C31.7089 5.9598 31.5083 5.36714 31.5083 4.59247V4.06047C31.5083 3.26714 31.7229 2.67447 32.1523 2.28247C32.5909 1.88113 33.2163 1.68047 34.0283 1.68047H35.8903V2.74447H33.8883C33.5429 2.74447 33.2629 2.84714 33.0483 3.05247C32.8336 3.2578 32.7263 3.50513 32.7263 3.79447V4.85847C32.7263 5.1478 32.8196 5.39047 33.0063 5.58647C33.1929 5.77314 33.4356 5.86647 33.7343 5.86647H34.0143C34.6769 5.86647 35.1903 6.0578 35.5543 6.44047C35.9276 6.82314 36.1143 7.4018 36.1143 8.17647V9.10047ZM39.3406 2.94047V1.68047H40.6706V2.94047H39.3406ZM39.4106 11.4805V4.48047H40.6006V11.4805H39.4106ZM45.0403 10.4445H47.9243V11.4805H43.7523V10.3605L46.7903 5.51647H44.0323V4.48047H48.0643V5.72647L45.0403 10.4445ZM53.5288 11.4805C52.7074 11.4805 52.1054 11.3078 51.7228 10.9625C51.3401 10.6078 51.1488 10.0338 51.1488 9.24047V6.72047C51.1488 5.9178 51.3214 5.3438 51.6668 4.99847C52.0121 4.65314 52.5861 4.48047 53.3888 4.48047H53.7668C54.4294 4.48047 54.9288 4.66714 55.2648 5.04047C55.6101 5.40447 55.7828 5.94113 55.7828 6.65047V8.47047H52.3388V9.52047C52.3388 9.8098 52.4274 10.0338 52.6048 10.1925C52.7821 10.3511 53.0434 10.4305 53.3888 10.4305H55.3348V11.4805H53.5288ZM54.6208 7.42047V6.37047C54.6208 6.1278 54.5414 5.92714 54.3828 5.76847C54.2241 5.6098 54.0234 5.53047 53.7808 5.53047H53.2488C52.9128 5.53047 52.6748 5.6098 52.5348 5.76847C52.4041 5.9178 52.3388 6.1418 52.3388 6.44047V7.42047H54.6208ZM59.0002 5.88047V4.48047H60.4002V5.88047H59.0002ZM59.0002 11.4805V10.0805H60.4002V11.4805H59.0002ZM68.6355 10.2485L70.7355 7.05647C71.0435 6.5898 71.2489 6.2678 71.3515 6.09047C71.4542 5.9038 71.5242 5.7218 71.5615 5.54447C71.5989 5.36714 71.6175 5.11047 71.6175 4.77447V3.79447C71.6175 3.50513 71.5102 3.2578 71.2955 3.05247C71.0809 2.84714 70.8009 2.74447 70.4555 2.74447H68.9155V1.68047H70.3155C71.1275 1.68047 71.7482 1.88113 72.1775 2.28247C72.6162 2.67447 72.8355 3.26714 72.8355 4.06047V4.64847C72.8355 5.11514 72.8122 5.4698 72.7655 5.71247C72.7189 5.95514 72.6349 6.1838 72.5135 6.39847C72.4015 6.61314 72.1775 6.97714 71.8415 7.49047L69.9095 10.4165H73.1155V11.4805H68.6355V10.2485ZM76.6397 11.4805V10.0805H78.0397V11.4805H76.6397ZM81.2382 10.2485L83.3382 7.05647C83.6462 6.5898 83.8516 6.2678 83.9542 6.09047C84.0569 5.9038 84.1269 5.7218 84.1642 5.54447C84.2016 5.36714 84.2202 5.11047 84.2202 4.77447V3.79447C84.2202 3.50513 84.1129 3.2578 83.8982 3.05247C83.6836 2.84714 83.4036 2.74447 83.0582 2.74447H81.5182V1.68047H82.9182C83.7302 1.68047 84.3509 1.88113 84.7802 2.28247C85.2189 2.67447 85.4382 3.26714 85.4382 4.06047V4.64847C85.4382 5.11514 85.4149 5.4698 85.3682 5.71247C85.3216 5.95514 85.2376 6.1838 85.1162 6.39847C85.0042 6.61314 84.7802 6.97714 84.4442 7.49047L82.5122 10.4165H85.7182V11.4805H81.2382V10.2485ZM99.8371 11.4805V2.68847L98.3391 8.19047H97.1771L95.6791 2.68847V11.4805H94.5591V1.68047H96.5331L97.8071 6.69247L99.0671 1.68047H100.999V11.4805H99.8371ZM109.818 9.26847C109.818 10.0711 109.631 10.6405 109.258 10.9765C108.894 11.3125 108.287 11.4805 107.438 11.4805H104.778V1.68047H107.27C108.1 1.68047 108.707 1.84847 109.09 2.18447C109.482 2.52047 109.678 3.08047 109.678 3.86447V4.66247C109.678 5.38114 109.421 5.92247 108.908 6.28647C109.514 6.62247 109.818 7.19647 109.818 8.00847V9.26847ZM108.46 3.73847C108.46 3.3838 108.376 3.12714 108.208 2.96847C108.049 2.8098 107.792 2.73047 107.438 2.73047H105.996V5.82447H107.438C107.727 5.82447 107.97 5.73114 108.166 5.54447C108.362 5.3578 108.46 5.11047 108.46 4.80247V3.73847ZM108.6 7.88247C108.6 7.57447 108.506 7.3318 108.32 7.15447C108.133 6.9678 107.886 6.87447 107.578 6.87447H105.996V10.4305H107.564C107.918 10.4305 108.18 10.3511 108.348 10.1925C108.516 10.0245 108.6 9.76314 108.6 9.40847V7.88247ZM118.138 4.41047C118.138 3.3278 118.273 2.45047 118.544 1.77847C118.824 1.10647 119.211 0.513801 119.706 0.000468016H120.938C120.49 0.541802 120.158 0.999135 119.944 1.37247C119.729 1.73647 119.57 2.14714 119.468 2.60447C119.374 3.0618 119.328 3.65447 119.328 4.38247V8.77847C119.328 9.50647 119.374 10.0991 119.468 10.5565C119.57 11.0138 119.729 11.4245 119.944 11.7885C120.158 12.1618 120.49 12.6191 120.938 13.1605H119.706C119.211 12.6471 118.824 12.0545 118.544 11.3825C118.273 10.7105 118.138 9.83314 118.138 8.75047V4.41047ZM128.432 11.4805C128.311 11.4805 128.175 11.4431 128.026 11.3685C127.886 11.2938 127.765 11.1911 127.662 11.0605C127.447 11.3405 127.163 11.4805 126.808 11.4805H125.842C125.133 11.4805 124.615 11.3405 124.288 11.0605C123.971 10.7711 123.812 10.2811 123.812 9.59047V9.31047C123.812 7.8638 124.493 7.14047 125.856 7.14047H127.312V6.44047C127.312 6.15114 127.223 5.92714 127.046 5.76847C126.869 5.6098 126.607 5.53047 126.262 5.53047H124.372V4.48047H126.122C126.934 4.48047 127.531 4.6578 127.914 5.01247C128.306 5.36714 128.502 5.93647 128.502 6.72047V10.0805C128.502 10.2205 128.553 10.3278 128.656 10.4025C128.768 10.4678 128.95 10.5005 129.202 10.5005V11.4805H128.432ZM126.668 10.4305C126.948 10.4305 127.125 10.3651 127.2 10.2345C127.275 10.1038 127.312 9.9358 127.312 9.73047V8.19047H125.842C125.599 8.19047 125.399 8.2698 125.24 8.42847C125.081 8.58714 125.002 8.7878 125.002 9.03047V9.73047C125.002 9.97314 125.058 10.1505 125.17 10.2625C125.282 10.3745 125.459 10.4305 125.702 10.4305H126.668ZM132.278 4.48047H133.398V4.85847C133.706 4.60647 134.08 4.48047 134.518 4.48047H135.54V5.60047H134.378C134.07 5.60047 133.842 5.70314 133.692 5.90847C133.543 6.1138 133.468 6.31447 133.468 6.51047V11.4805H132.278V4.48047ZM140.375 11.4805C139.554 11.4805 138.952 11.3078 138.569 10.9625C138.187 10.6078 137.995 10.0338 137.995 9.24047V6.72047C137.995 5.93647 138.187 5.36714 138.569 5.01247C138.961 4.6578 139.563 4.48047 140.375 4.48047H141.901V5.53047H140.235C139.89 5.53047 139.629 5.6098 139.451 5.76847C139.274 5.92714 139.185 6.15114 139.185 6.44047V9.52047C139.185 9.8098 139.274 10.0338 139.451 10.1925C139.629 10.3511 139.89 10.4305 140.235 10.4305H141.901V11.4805H140.375ZM145.127 1.68047H146.317V4.76047C146.597 4.5738 146.947 4.48047 147.367 4.48047H147.731C148.487 4.48047 149.047 4.6578 149.411 5.01247C149.784 5.36714 149.971 5.93647 149.971 6.72047V11.4805H148.781V6.44047C148.781 6.16047 148.697 5.94114 148.529 5.78247C148.37 5.61447 148.151 5.53047 147.871 5.53047H147.227C146.928 5.53047 146.7 5.6098 146.541 5.76847C146.392 5.9178 146.317 6.08114 146.317 6.25847V11.4805H145.127V1.68047ZM153.471 2.94047V1.68047H154.801V2.94047H153.471ZM153.541 11.4805V4.48047H154.731V11.4805H153.541ZM161.354 11.4805H159.632L157.742 4.48047H159.016L160.528 10.4865L161.998 4.48047H163.23L161.354 11.4805ZM170.369 11.4805C170.248 11.4805 170.112 11.4431 169.963 11.3685C169.823 11.2938 169.702 11.1911 169.599 11.0605C169.384 11.3405 169.1 11.4805 168.745 11.4805H167.779C167.07 11.4805 166.552 11.3405 166.225 11.0605C165.908 10.7711 165.749 10.2811 165.749 9.59047V9.31047C165.749 7.8638 166.43 7.14047 167.793 7.14047H169.249V6.44047C169.249 6.15114 169.16 5.92714 168.983 5.76847C168.806 5.6098 168.544 5.53047 168.199 5.53047H166.309V4.48047H168.059C168.871 4.48047 169.468 4.6578 169.851 5.01247C170.243 5.36714 170.439 5.93647 170.439 6.72047V10.0805C170.439 10.2205 170.49 10.3278 170.593 10.4025C170.705 10.4678 170.887 10.5005 171.139 10.5005V11.4805H170.369ZM168.605 10.4305C168.885 10.4305 169.062 10.3651 169.137 10.2345C169.212 10.1038 169.249 9.9358 169.249 9.73047V8.19047H167.779C167.536 8.19047 167.336 8.2698 167.177 8.42847C167.018 8.58714 166.939 8.7878 166.939 9.03047V9.73047C166.939 9.97314 166.995 10.1505 167.107 10.2625C167.219 10.3745 167.396 10.4305 167.639 10.4305H168.605ZM175.335 11.4805C175.018 11.4805 174.738 11.3685 174.495 11.1445C174.262 10.9205 174.145 10.5658 174.145 10.0805V1.68047H175.335V10.0105C175.335 10.1598 175.373 10.2671 175.447 10.3325C175.522 10.3978 175.648 10.4305 175.825 10.4305H176.105V11.4805H175.335ZM184.152 4.48047H185.272V4.85847C185.58 4.60647 185.953 4.48047 186.392 4.48047H187.414V5.60047H186.252C185.944 5.60047 185.715 5.70314 185.566 5.90847C185.417 6.1138 185.342 6.31447 185.342 6.51047V11.4805H184.152V4.48047ZM192.249 11.4805C191.428 11.4805 190.826 11.3078 190.443 10.9625C190.06 10.6078 189.869 10.0338 189.869 9.24047V6.72047C189.869 5.9178 190.042 5.3438 190.387 4.99847C190.732 4.65314 191.306 4.48047 192.109 4.48047H192.487C193.15 4.48047 193.649 4.66714 193.985 5.04047C194.33 5.40447 194.503 5.94113 194.503 6.65047V8.47047H191.059V9.52047C191.059 9.8098 191.148 10.0338 191.325 10.1925C191.502 10.3511 191.764 10.4305 192.109 10.4305H194.055V11.4805H192.249ZM193.341 7.42047V6.37047C193.341 6.1278 193.262 5.92714 193.103 5.76847C192.944 5.6098 192.744 5.53047 192.501 5.53047H191.969C191.633 5.53047 191.395 5.6098 191.255 5.76847C191.124 5.9178 191.059 6.1418 191.059 6.44047V7.42047H193.341ZM200.171 11.4805C199.349 11.4805 198.747 11.3078 198.365 10.9625C197.982 10.6078 197.791 10.0338 197.791 9.24047V6.72047C197.791 5.93647 197.982 5.36714 198.365 5.01247C198.757 4.6578 199.359 4.48047 200.171 4.48047H201.697V5.53047H200.031C199.685 5.53047 199.424 5.6098 199.247 5.76847C199.069 5.92714 198.981 6.15114 198.981 6.44047V9.52047C198.981 9.8098 199.069 10.0338 199.247 10.1925C199.424 10.3511 199.685 10.4305 200.031 10.4305H201.697V11.4805H200.171ZM209.588 9.24047C209.588 10.0245 209.392 10.5938 209 10.9485C208.617 11.3031 208.02 11.4805 207.208 11.4805H207.026C206.214 11.4805 205.612 11.3031 205.22 10.9485C204.837 10.5938 204.646 10.0245 204.646 9.24047V6.72047C204.646 5.93647 204.837 5.36714 205.22 5.01247C205.612 4.6578 206.214 4.48047 207.026 4.48047H207.208C208.02 4.48047 208.617 4.6578 209 5.01247C209.392 5.36714 209.588 5.93647 209.588 6.72047V9.24047ZM208.398 6.44047C208.398 6.15114 208.309 5.92714 208.132 5.76847C207.954 5.6098 207.693 5.53047 207.348 5.53047H206.886C206.54 5.53047 206.279 5.6098 206.102 5.76847C205.924 5.92714 205.836 6.15114 205.836 6.44047V9.52047C205.836 9.8098 205.924 10.0338 206.102 10.1925C206.279 10.3511 206.54 10.4305 206.886 10.4305H207.348C207.693 10.4305 207.954 10.3511 208.132 10.1925C208.309 10.0338 208.398 9.8098 208.398 9.52047V6.44047ZM213.09 4.48047H214.21V4.85847C214.518 4.60647 214.891 4.48047 215.33 4.48047H216.352V5.60047H215.19C214.882 5.60047 214.653 5.70314 214.504 5.90847C214.355 6.1138 214.28 6.31447 214.28 6.51047V11.4805H213.09V4.48047ZM222.601 11.1585C222.293 11.3731 221.92 11.4805 221.481 11.4805H221.187C220.366 11.4805 219.764 11.3078 219.381 10.9625C218.998 10.6078 218.807 10.0338 218.807 9.24047V6.72047C218.807 5.93647 218.998 5.36714 219.381 5.01247C219.773 4.6578 220.375 4.48047 221.187 4.48047H222.531V1.68047H223.721V11.4805H222.601V11.1585ZM221.621 10.4305C221.929 10.4305 222.158 10.3511 222.307 10.1925C222.456 10.0245 222.531 9.84714 222.531 9.66047V5.53047H221.047C220.702 5.53047 220.44 5.6098 220.263 5.76847C220.086 5.92714 219.997 6.15114 219.997 6.44047V9.52047C219.997 9.8098 220.086 10.0338 220.263 10.1925C220.44 10.3511 220.702 10.4305 221.047 10.4305H221.621ZM229.881 8.75047C229.881 9.83314 229.741 10.7105 229.461 11.3825C229.19 12.0545 228.807 12.6471 228.313 13.1605H227.081C227.529 12.6191 227.86 12.1618 228.075 11.7885C228.289 11.4245 228.443 11.0138 228.537 10.5565C228.639 10.0991 228.691 9.50647 228.691 8.77847V4.38247C228.691 3.65447 228.639 3.0618 228.537 2.60447C228.443 2.14714 228.289 1.73647 228.075 1.37247C227.86 0.999135 227.529 0.541802 227.081 0.000468016H228.313C228.807 0.513801 229.19 1.10647 229.461 1.77847C229.741 2.45047 229.881 3.3278 229.881 4.41047V8.75047Z" fill="white"/>
<path d="M3.80633 191.475C2.99433 191.475 2.36899 191.279 1.93033 190.887C1.50099 190.485 1.28633 189.888 1.28633 189.095V184.055C1.28633 183.261 1.50099 182.669 1.93033 182.277C2.36899 181.875 2.99433 181.675 3.80633 181.675H5.51433V182.739H3.66633C3.32099 182.739 3.04099 182.841 2.82633 183.047C2.61166 183.252 2.50433 183.499 2.50433 183.789V189.361C2.50433 189.65 2.61166 189.897 2.82633 190.103C3.04099 190.308 3.32099 190.411 3.66633 190.411H5.51433V191.475H3.80633ZM13.3995 189.235C13.3995 190.019 13.2035 190.588 12.8115 190.943C12.4288 191.297 11.8315 191.475 11.0195 191.475H10.8375C10.0255 191.475 9.4235 191.297 9.0315 190.943C8.64883 190.588 8.4575 190.019 8.4575 189.235V186.715C8.4575 185.931 8.64883 185.361 9.0315 185.007C9.4235 184.652 10.0255 184.475 10.8375 184.475H11.0195C11.8315 184.475 12.4288 184.652 12.8115 185.007C13.2035 185.361 13.3995 185.931 13.3995 186.715V189.235ZM12.2095 186.435C12.2095 186.145 12.1208 185.921 11.9435 185.763C11.7662 185.604 11.5048 185.525 11.1595 185.525H10.6975C10.3522 185.525 10.0908 185.604 9.9135 185.763C9.73617 185.921 9.6475 186.145 9.6475 186.435V189.515C9.6475 189.804 9.73617 190.028 9.9135 190.187C10.0908 190.345 10.3522 190.425 10.6975 190.425H11.1595C11.5048 190.425 11.7662 190.345 11.9435 190.187C12.1208 190.028 12.2095 189.804 12.2095 189.515V186.435ZM21.8438 189.235C21.8438 190.019 21.6478 190.588 21.2558 190.943C20.8731 191.297 20.2758 191.475 19.4638 191.475H19.2818C18.4698 191.475 17.8678 191.297 17.4758 190.943C17.0931 190.588 16.9018 190.019 16.9018 189.235V186.715C16.9018 185.931 17.0931 185.361 17.4758 185.007C17.8678 184.652 18.4698 184.475 19.2818 184.475H19.4638C20.2758 184.475 20.8731 184.652 21.2558 185.007C21.6478 185.361 21.8438 185.931 21.8438 186.715V189.235ZM20.6538 186.435C20.6538 186.145 20.5651 185.921 20.3878 185.763C20.2105 185.604 19.9491 185.525 19.6038 185.525H19.1418C18.7965 185.525 18.5351 185.604 18.3578 185.763C18.1805 185.921 18.0918 186.145 18.0918 186.435V189.515C18.0918 189.804 18.1805 190.028 18.3578 190.187C18.5351 190.345 18.7965 190.425 19.1418 190.425H19.6038C19.9491 190.425 20.2105 190.345 20.3878 190.187C20.5651 190.028 20.6538 189.804 20.6538 189.515V186.435ZM25.4861 184.475H26.6061V184.853C26.9141 184.601 27.2874 184.475 27.7261 184.475H28.7481V185.595H27.5861C27.2781 185.595 27.0494 185.697 26.9001 185.903C26.7508 186.108 26.6761 186.309 26.6761 186.505V191.475H25.4861V184.475ZM35.1371 191.153C34.8291 191.367 34.4558 191.475 34.0171 191.475H33.7231C32.9018 191.475 32.2998 191.302 31.9171 190.957C31.5345 190.602 31.3431 190.028 31.3431 189.235V186.715C31.3431 185.931 31.5345 185.361 31.9171 185.007C32.3091 184.652 32.9111 184.475 33.7231 184.475H35.0671V181.675H36.2571V191.475H35.1371V191.153ZM34.1571 190.425C34.4651 190.425 34.6938 190.345 34.8431 190.187C34.9925 190.019 35.0671 189.841 35.0671 189.655V185.525H33.5831C33.2378 185.525 32.9765 185.604 32.7991 185.763C32.6218 185.921 32.5331 186.145 32.5331 186.435V189.515C32.5331 189.804 32.6218 190.028 32.7991 190.187C32.9765 190.345 33.2378 190.425 33.5831 190.425H34.1571ZM39.9668 182.935V181.675H41.2968V182.935H39.9668ZM40.0368 191.475V184.475H41.2268V191.475H40.0368ZM45.0084 184.475H46.1284V184.811C46.4178 184.587 46.7911 184.475 47.2484 184.475H47.6124C48.3684 184.475 48.9284 184.652 49.2924 185.007C49.6658 185.361 49.8524 185.931 49.8524 186.715V191.475H48.6624V186.435C48.6624 186.155 48.5784 185.935 48.4104 185.777C48.2518 185.609 48.0324 185.525 47.7524 185.525H47.1084C46.8004 185.525 46.5718 185.609 46.4224 185.777C46.2731 185.935 46.1984 186.108 46.1984 186.295V191.475H45.0084V184.475ZM57.6921 191.475C57.5708 191.475 57.4354 191.437 57.2861 191.363C57.1461 191.288 57.0248 191.185 56.9221 191.055C56.7074 191.335 56.4228 191.475 56.0681 191.475H55.1021C54.3928 191.475 53.8748 191.335 53.5481 191.055C53.2308 190.765 53.0721 190.275 53.0721 189.585V189.305C53.0721 187.858 53.7534 187.135 55.1161 187.135H56.5721V186.435C56.5721 186.145 56.4834 185.921 56.3061 185.763C56.1288 185.604 55.8674 185.525 55.5221 185.525H53.6321V184.475H55.3821C56.1941 184.475 56.7914 184.652 57.1741 185.007C57.5661 185.361 57.7621 185.931 57.7621 186.715V190.075C57.7621 190.215 57.8134 190.322 57.9161 190.397C58.0281 190.462 58.2101 190.495 58.4621 190.495V191.475H57.6921ZM55.9281 190.425C56.2081 190.425 56.3854 190.359 56.4601 190.229C56.5348 190.098 56.5721 189.93 56.5721 189.725V188.185H55.1021C54.8594 188.185 54.6588 188.264 54.5001 188.423C54.3414 188.581 54.2621 188.782 54.2621 189.025V189.725C54.2621 189.967 54.3181 190.145 54.4301 190.257C54.5421 190.369 54.7194 190.425 54.9621 190.425H55.9281ZM63.2183 191.475C62.7423 191.475 62.3783 191.321 62.1263 191.013C61.8743 190.705 61.7483 190.299 61.7483 189.795V185.525H60.8383V184.475H61.7483V182.795H62.9383V184.475H64.5623V185.525H62.9383V189.865C62.9383 190.07 62.9896 190.215 63.0923 190.299C63.1949 190.383 63.3536 190.425 63.5683 190.425H64.5623V191.475H63.2183ZM69.8059 191.475C68.9846 191.475 68.3826 191.302 67.9999 190.957C67.6173 190.602 67.4259 190.028 67.4259 189.235V186.715C67.4259 185.912 67.5986 185.338 67.9439 184.993C68.2893 184.647 68.8633 184.475 69.6659 184.475H70.0439C70.7066 184.475 71.2059 184.661 71.5419 185.035C71.8873 185.399 72.0599 185.935 72.0599 186.645V188.465H68.6159V189.515C68.6159 189.804 68.7046 190.028 68.8819 190.187C69.0593 190.345 69.3206 190.425 69.6659 190.425H71.6119V191.475H69.8059ZM70.8979 187.415V186.365C70.8979 186.122 70.8186 185.921 70.6599 185.763C70.5013 185.604 70.3006 185.525 70.0579 185.525H69.5259C69.1899 185.525 68.9519 185.604 68.8119 185.763C68.6813 185.912 68.6159 186.136 68.6159 186.435V187.415H70.8979ZM79.3234 189.725C79.3234 190.313 79.1414 190.751 78.7774 191.041C78.4228 191.33 77.9048 191.475 77.2234 191.475H75.4174V190.425H77.3634C77.6154 190.425 77.8068 190.373 77.9374 190.271C78.0681 190.159 78.1334 190 78.1334 189.795V189.053C78.1334 188.633 77.9328 188.423 77.5314 188.423H77.2934C76.6401 188.423 76.1501 188.283 75.8234 188.003C75.5061 187.713 75.3474 187.261 75.3474 186.645V186.239C75.3474 185.613 75.5248 185.165 75.8794 184.895C76.2341 184.615 76.7568 184.475 77.4474 184.475H79.0434V185.525H77.3074C77.0741 185.525 76.8874 185.581 76.7474 185.693C76.6074 185.795 76.5374 185.949 76.5374 186.155V186.659C76.5374 186.873 76.5981 187.032 76.7194 187.135C76.8501 187.237 77.0134 187.289 77.2094 187.289H77.4054C78.0308 187.289 78.5068 187.443 78.8334 187.751C79.1601 188.049 79.3234 188.497 79.3234 189.095V189.725ZM82.5492 185.875V184.475H83.9492V185.875H82.5492ZM82.5492 191.475V190.075H83.9492V191.475H82.5492ZM95.2365 187.415H93.9905V191.475H92.7725V181.675H95.2785C96.0718 181.675 96.6692 181.852 97.0705 182.207C97.4812 182.552 97.6865 183.103 97.6865 183.859V185.203C97.6865 186.257 97.2665 186.915 96.4265 187.177L98.3725 191.475H97.0425L95.2365 187.415ZM96.4685 183.733C96.4685 183.378 96.3845 183.121 96.2165 182.963C96.0578 182.804 95.8012 182.725 95.4465 182.725H93.9905V186.365H95.4465C95.8012 186.365 96.0578 186.285 96.2165 186.127C96.3845 185.959 96.4685 185.697 96.4685 185.343V183.733ZM105.8 191.475L105.268 188.997H102.538L101.992 191.475H100.746L103.112 181.675H104.722L107.046 191.475H105.8ZM103.896 182.599L102.762 187.947H105.044L103.896 182.599ZM109.846 185.875V184.475H111.246V185.875H109.846ZM109.846 191.475V190.075H111.246V191.475H109.846ZM119.761 190.243L121.861 187.051C122.169 186.584 122.375 186.262 122.477 186.085C122.58 185.898 122.65 185.716 122.687 185.539C122.725 185.361 122.743 185.105 122.743 184.769V183.789C122.743 183.499 122.636 183.252 122.421 183.047C122.207 182.841 121.927 182.739 121.581 182.739H120.041V181.675H121.441C122.253 181.675 122.874 181.875 123.303 182.277C123.742 182.669 123.961 183.261 123.961 184.055V184.643C123.961 185.109 123.938 185.464 123.891 185.707C123.845 185.949 123.761 186.178 123.639 186.393C123.527 186.607 123.303 186.971 122.967 187.485L121.035 190.411H124.241V191.475H119.761V190.243ZM129.963 191.475H128.717L131.055 182.725H127.947V181.675H132.217V183.033L129.963 191.475ZM136.232 181.675H137.422V184.755C137.702 184.568 138.052 184.475 138.472 184.475H138.836C139.592 184.475 140.152 184.652 140.516 185.007C140.889 185.361 141.076 185.931 141.076 186.715V191.475H139.886V186.435C139.886 186.155 139.802 185.935 139.634 185.777C139.475 185.609 139.256 185.525 138.976 185.525H138.332C138.033 185.525 137.804 185.604 137.646 185.763C137.496 185.912 137.422 186.075 137.422 186.253V191.475H136.232V181.675ZM154.554 189.095C154.554 189.869 154.339 190.462 153.91 190.873C153.49 191.274 152.921 191.475 152.202 191.475H152.062C151.343 191.475 150.769 191.274 150.34 190.873C149.92 190.462 149.71 189.869 149.71 189.095V184.055C149.71 183.271 149.92 182.678 150.34 182.277C150.76 181.875 151.334 181.675 152.062 181.675H152.202C152.93 181.675 153.504 181.875 153.924 182.277C154.344 182.678 154.554 183.271 154.554 184.055V189.095ZM153.364 183.789C153.364 183.499 153.252 183.252 153.028 183.047C152.813 182.832 152.538 182.725 152.202 182.725H152.062C151.726 182.725 151.446 182.832 151.222 183.047C151.007 183.252 150.9 183.499 150.9 183.789V189.361C150.9 189.65 151.007 189.902 151.222 190.117C151.446 190.322 151.726 190.425 152.062 190.425H152.202C152.538 190.425 152.813 190.322 153.028 190.117C153.252 189.902 153.364 189.65 153.364 189.361V183.789ZM162.67 189.095C162.67 189.869 162.455 190.462 162.026 190.873C161.606 191.274 161.037 191.475 160.318 191.475H160.178C159.459 191.475 158.885 191.274 158.456 190.873C158.036 190.462 157.826 189.869 157.826 189.095V184.055C157.826 183.271 158.036 182.678 158.456 182.277C158.876 181.875 159.45 181.675 160.178 181.675H160.318C161.046 181.675 161.62 181.875 162.04 182.277C162.46 182.678 162.67 183.271 162.67 184.055V189.095ZM161.48 183.789C161.48 183.499 161.368 183.252 161.144 183.047C160.929 182.832 160.654 182.725 160.318 182.725H160.178C159.842 182.725 159.562 182.832 159.338 183.047C159.123 183.252 159.016 183.499 159.016 183.789V189.361C159.016 189.65 159.123 189.902 159.338 190.117C159.562 190.322 159.842 190.425 160.178 190.425H160.318C160.654 190.425 160.929 190.322 161.144 190.117C161.368 189.902 161.48 189.65 161.48 189.361V183.789ZM166.194 184.475H167.314V184.811C167.604 184.587 167.977 184.475 168.434 184.475H168.518C169.368 184.475 169.974 184.689 170.338 185.119C170.684 184.689 171.164 184.475 171.78 184.475H171.864C172.62 184.475 173.18 184.652 173.544 185.007C173.918 185.361 174.104 185.931 174.104 186.715V191.475H172.914V186.435C172.914 186.155 172.83 185.935 172.662 185.777C172.504 185.609 172.284 185.525 172.004 185.525H171.64C171.351 185.525 171.132 185.613 170.982 185.791C170.842 185.959 170.763 186.141 170.744 186.337V191.475H169.554V186.435C169.554 186.155 169.475 185.935 169.316 185.777C169.158 185.609 168.938 185.525 168.658 185.525H168.294C167.996 185.525 167.767 185.604 167.608 185.763C167.459 185.912 167.384 186.075 167.384 186.253V191.475H166.194V184.475ZM187.579 189.095C187.579 189.869 187.365 190.462 186.935 190.873C186.515 191.274 185.946 191.475 185.227 191.475H185.087C184.369 191.475 183.795 191.274 183.365 190.873C182.945 190.462 182.735 189.869 182.735 189.095V184.055C182.735 183.271 182.945 182.678 183.365 182.277C183.785 181.875 184.359 181.675 185.087 181.675H185.227C185.955 181.675 186.529 181.875 186.949 182.277C187.369 182.678 187.579 183.271 187.579 184.055V189.095ZM186.389 183.789C186.389 183.499 186.277 183.252 186.053 183.047C185.839 182.832 185.563 182.725 185.227 182.725H185.087C184.751 182.725 184.471 182.832 184.247 183.047C184.033 183.252 183.925 183.499 183.925 183.789V189.361C183.925 189.65 184.033 189.902 184.247 190.117C184.471 190.322 184.751 190.425 185.087 190.425H185.227C185.563 190.425 185.839 190.322 186.053 190.117C186.277 189.902 186.389 189.65 186.389 189.361V183.789ZM190.893 184.055C190.893 183.289 191.103 182.701 191.523 182.291C191.943 181.88 192.471 181.675 193.105 181.675H193.455C194.09 181.675 194.617 181.88 195.037 182.291C195.457 182.701 195.667 183.289 195.667 184.055V189.095C195.667 189.888 195.453 190.485 195.023 190.887C194.603 191.279 193.987 191.475 193.175 191.475H191.705V190.411H193.315C193.661 190.411 193.941 190.308 194.155 190.103C194.37 189.897 194.477 189.65 194.477 189.361V187.835H193.245C192.443 187.835 191.85 187.657 191.467 187.303C191.085 186.948 190.893 186.379 190.893 185.595V184.055ZM194.477 183.789C194.477 183.49 194.379 183.238 194.183 183.033C193.987 182.827 193.721 182.725 193.385 182.725H193.175C192.839 182.725 192.573 182.827 192.377 183.033C192.181 183.238 192.083 183.49 192.083 183.789V185.861C192.083 186.15 192.167 186.379 192.335 186.547C192.513 186.705 192.769 186.785 193.105 186.785H194.477V183.789ZM202.916 189.725C202.916 190.313 202.734 190.751 202.37 191.041C202.015 191.33 201.497 191.475 200.816 191.475H199.01V190.425H200.956C201.208 190.425 201.399 190.373 201.53 190.271C201.66 190.159 201.726 190 201.726 189.795V189.053C201.726 188.633 201.525 188.423 201.124 188.423H200.886C200.232 188.423 199.742 188.283 199.416 188.003C199.098 187.713 198.94 187.261 198.94 186.645V186.239C198.94 185.613 199.117 185.165 199.472 184.895C199.826 184.615 200.349 184.475 201.04 184.475H202.636V185.525H200.9C200.666 185.525 200.48 185.581 200.34 185.693C200.2 185.795 200.13 185.949 200.13 186.155V186.659C200.13 186.873 200.19 187.032 200.312 187.135C200.442 187.237 200.606 187.289 200.802 187.289H200.998C201.623 187.289 202.099 187.443 202.426 187.751C202.752 188.049 202.916 188.497 202.916 189.095V189.725Z" fill="white"/>
<path d="M4.70233 91.4746L2.56033 82.7106V91.4746H1.42633V81.6746H3.41433L5.57033 90.4386V81.6746H6.70433V91.4746H4.70233ZM12.7926 91.4746C11.9712 91.4746 11.3692 91.3019 10.9866 90.9566C10.6039 90.6019 10.4126 90.0279 10.4126 89.2346V86.7146C10.4126 85.9119 10.5852 85.3379 10.9306 84.9926C11.2759 84.6473 11.8499 84.4746 12.6526 84.4746H13.0306C13.6932 84.4746 14.1926 84.6613 14.5286 85.0346C14.8739 85.3986 15.0466 85.9353 15.0466 86.6446V88.4646H11.6026V89.5146C11.6026 89.8039 11.6912 90.0279 11.8686 90.1866C12.0459 90.3453 12.3072 90.4246 12.6526 90.4246H14.5986V91.4746H12.7926ZM13.8846 87.4146V86.3646C13.8846 86.1219 13.8052 85.9213 13.6466 85.7626C13.4879 85.6039 13.2872 85.5246 13.0446 85.5246H12.5126C12.1766 85.5246 11.9386 85.6039 11.7986 85.7626C11.6679 85.9119 11.6026 86.1359 11.6026 86.4346V87.4146H13.8846ZM20.1541 91.4746C19.6781 91.4746 19.3141 91.3206 19.0621 91.0126C18.8101 90.7046 18.6841 90.2986 18.6841 89.7946V85.5246H17.7741V84.4746H18.6841V82.7946H19.8741V84.4746H21.4981V85.5246H19.8741V89.8646C19.8741 90.0699 19.9254 90.2146 20.0281 90.2986C20.1307 90.3826 20.2894 90.4246 20.5041 90.4246H21.4981V91.4746H20.1541ZM30.8157 91.4746H28.9817L28.0997 87.6806L27.1337 91.4746H25.3417L23.9417 84.4746H25.1737L26.3077 90.5786L27.5537 85.7346H28.7437L29.9057 90.5786L31.0397 84.4746H32.2017L30.8157 91.4746ZM40.0859 89.2346C40.0859 90.0186 39.8899 90.5879 39.4979 90.9426C39.1152 91.2973 38.5179 91.4746 37.7059 91.4746H37.5239C36.7119 91.4746 36.1099 91.2973 35.7179 90.9426C35.3352 90.5879 35.1439 90.0186 35.1439 89.2346V86.7146C35.1439 85.9306 35.3352 85.3613 35.7179 85.0066C36.1099 84.6519 36.7119 84.4746 37.5239 84.4746H37.7059C38.5179 84.4746 39.1152 84.6519 39.4979 85.0066C39.8899 85.3613 40.0859 85.9306 40.0859 86.7146V89.2346ZM38.8959 86.4346C38.8959 86.1453 38.8072 85.9213 38.6299 85.7626C38.4526 85.6039 38.1912 85.5246 37.8459 85.5246H37.3839C37.0386 85.5246 36.7772 85.6039 36.5999 85.7626C36.4226 85.9213 36.3339 86.1453 36.3339 86.4346V89.5146C36.3339 89.8039 36.4226 90.0279 36.5999 90.1866C36.7772 90.3453 37.0386 90.4246 37.3839 90.4246H37.8459C38.1912 90.4246 38.4526 90.3453 38.6299 90.1866C38.8072 90.0279 38.8959 89.8039 38.8959 89.5146V86.4346ZM43.7282 84.4746H44.8482V84.8526C45.1562 84.6006 45.5295 84.4746 45.9682 84.4746H46.9902V85.5946H45.8282C45.5202 85.5946 45.2915 85.6973 45.1422 85.9026C44.9929 86.1079 44.9182 86.3086 44.9182 86.5046V91.4746H43.7282V84.4746ZM53.4303 91.4746L51.5123 88.0166L51.1203 88.4786V91.4746H49.9303V81.6746H51.1203V86.9106L53.2203 84.4746H54.7183L52.3523 87.1766L54.8163 91.4746H53.4303ZM57.8945 82.9346V81.6746H59.2245V82.9346H57.8945ZM57.9645 91.4746V84.4746H59.1545V91.4746H57.9645ZM62.9361 84.4746H64.0561V84.8106C64.3454 84.5866 64.7188 84.4746 65.1761 84.4746H65.5401C66.2961 84.4746 66.8561 84.6519 67.2201 85.0066C67.5934 85.3613 67.7801 85.9306 67.7801 86.7146V91.4746H66.5901V86.4346C66.5901 86.1546 66.5061 85.9353 66.3381 85.7766C66.1794 85.6086 65.9601 85.5246 65.6801 85.5246H65.0361C64.7281 85.5246 64.4994 85.6086 64.3501 85.7766C64.2008 85.9353 64.1261 86.1079 64.1261 86.2946V91.4746H62.9361V84.4746ZM76.5858 91.9646C76.5858 92.5993 76.3944 93.0706 76.0118 93.3786C75.6384 93.6959 75.0504 93.8546 74.2478 93.8546H71.4198V92.8046H74.3878C74.7238 92.8046 74.9758 92.7393 75.1438 92.6086C75.3118 92.4779 75.3958 92.3099 75.3958 92.1046V91.6566C75.3958 91.4419 75.3118 91.2739 75.1438 91.1526C74.9758 91.0219 74.7238 90.9566 74.3878 90.9566H72.0498V89.0246C71.7418 88.8566 71.5131 88.6139 71.3638 88.2966C71.2144 87.9793 71.1398 87.5686 71.1398 87.0646V86.7146C71.1398 85.9306 71.3311 85.3613 71.7138 85.0066C72.1058 84.6519 72.7078 84.4746 73.5198 84.4746H76.3758V87.0646C76.3758 87.7646 76.1844 88.3153 75.8018 88.7166C75.4191 89.1086 74.9104 89.3046 74.2758 89.3046H73.2398V89.9066H74.2478C75.0504 89.9066 75.6384 90.0653 76.0118 90.3826C76.3944 90.6906 76.5858 91.1619 76.5858 91.7966V91.9646ZM74.2758 88.2546C74.5651 88.2546 74.7844 88.1613 74.9338 87.9746C75.0831 87.7879 75.1671 87.5919 75.1858 87.3866V85.5246H73.3798C73.0344 85.5246 72.7731 85.6039 72.5958 85.7626C72.4184 85.9213 72.3298 86.1453 72.3298 86.4346V87.3446C72.3298 87.6339 72.4184 87.8579 72.5958 88.0166C72.7731 88.1753 73.0344 88.2546 73.3798 88.2546H74.2758ZM79.7377 85.8746V84.4746H81.1377V85.8746H79.7377ZM79.7377 91.4746V90.0746H81.1377V91.4746H79.7377ZM1.42633 103.625V102.575H5.97633V103.625H1.42633ZM20.2547 105.095C20.2547 105.888 20.0354 106.485 19.5967 106.887C19.1674 107.279 18.5467 107.475 17.7347 107.475H17.5247C16.7127 107.475 16.0874 107.279 15.6487 106.887C15.2194 106.485 15.0047 105.888 15.0047 105.095V97.6746H16.2227V105.361C16.2227 105.65 16.33 105.897 16.5447 106.103C16.7594 106.308 17.0394 106.411 17.3847 106.411H17.8747C18.22 106.411 18.5 106.308 18.7147 106.103C18.9294 105.897 19.0367 105.65 19.0367 105.361V97.6746H20.2547V105.095ZM24.0369 100.475H25.1569V100.811C25.4462 100.587 25.8195 100.475 26.2769 100.475H26.5009C27.3222 100.475 27.9242 100.652 28.3069 101.007C28.6895 101.352 28.8809 101.921 28.8809 102.715V105.235C28.8809 106.019 28.6849 106.588 28.2929 106.943C27.9102 107.297 27.3129 107.475 26.5009 107.475H25.2269V109.855H24.0369V100.475ZM26.1369 101.525C25.8289 101.525 25.6002 101.609 25.4509 101.777C25.3015 101.935 25.2269 102.108 25.2269 102.295V106.425H26.6409C26.9862 106.425 27.2475 106.345 27.4249 106.187C27.6022 106.028 27.6909 105.804 27.6909 105.515V102.435C27.6909 102.145 27.6022 101.921 27.4249 101.763C27.2475 101.604 26.9862 101.525 26.6409 101.525H26.1369ZM37.4889 101.875V100.475H38.8889V101.875H37.4889ZM37.4889 107.475V106.075H38.8889V107.475H37.4889ZM50.6942 100.223C50.6942 100.605 50.6755 100.89 50.6382 101.077C50.6009 101.254 50.5169 101.436 50.3862 101.623C50.2649 101.809 50.0362 102.089 49.7002 102.463L49.0282 103.219V104.563H47.8382V102.869L48.5802 102.015C48.9069 101.641 49.1215 101.385 49.2242 101.245C49.3362 101.095 49.4109 100.965 49.4482 100.853C49.4855 100.731 49.5042 100.563 49.5042 100.349V99.6486C49.5042 99.3593 49.4202 99.1353 49.2522 98.9766C49.0842 98.8179 48.8275 98.7386 48.4822 98.7386H46.9422V97.6746H48.3422C49.9102 97.6746 50.6942 98.3746 50.6942 99.7746V100.223ZM47.7402 107.475V106.075H49.1402V107.475H47.7402ZM56.8279 100.223C56.8279 100.605 56.8093 100.89 56.7719 101.077C56.7346 101.254 56.6506 101.436 56.5199 101.623C56.3986 101.809 56.1699 102.089 55.8339 102.463L55.1619 103.219V104.563H53.9719V102.869L54.7139 102.015C55.0406 101.641 55.2553 101.385 55.3579 101.245C55.4699 101.095 55.5446 100.965 55.5819 100.853C55.6193 100.731 55.6379 100.563 55.6379 100.349V99.6486C55.6379 99.3593 55.5539 99.1353 55.3859 98.9766C55.2179 98.8179 54.9613 98.7386 54.6159 98.7386H53.0759V97.6746H54.4759C56.0439 97.6746 56.8279 98.3746 56.8279 99.7746V100.223ZM53.8739 107.475V106.075H55.2739V107.475H53.8739ZM65.0197 105.263C65.0197 106.065 64.833 106.635 64.4597 106.971C64.0957 107.307 63.489 107.475 62.6397 107.475H59.9797V97.6746H62.4717C63.3024 97.6746 63.909 97.8426 64.2917 98.1786C64.6837 98.5146 64.8797 99.0746 64.8797 99.8586V100.657C64.8797 101.375 64.623 101.917 64.1097 102.281C64.7164 102.617 65.0197 103.191 65.0197 104.003V105.263ZM63.6617 99.7326C63.6617 99.3779 63.5777 99.1213 63.4097 98.9626C63.251 98.8039 62.9944 98.7246 62.6397 98.7246H61.1977V101.819H62.6397C62.929 101.819 63.1717 101.725 63.3677 101.539C63.5637 101.352 63.6617 101.105 63.6617 100.797V99.7326ZM63.8017 103.877C63.8017 103.569 63.7084 103.326 63.5217 103.149C63.335 102.962 63.0877 102.869 62.7797 102.869H61.1977V106.425H62.7657C63.1204 106.425 63.3817 106.345 63.5497 106.187C63.7177 106.019 63.8017 105.757 63.8017 105.403V103.877ZM99.8534 103.625V102.575H104.403V103.625H99.8534ZM118.626 105.263C118.626 106.065 118.439 106.635 118.066 106.971C117.702 107.307 117.095 107.475 116.246 107.475H113.502V97.6746H116.078C116.918 97.6746 117.552 97.8473 117.982 98.1926C118.411 98.5286 118.626 99.0839 118.626 99.8586V105.263ZM117.408 99.7326C117.408 99.4246 117.314 99.1819 117.128 99.0046C116.941 98.8179 116.694 98.7246 116.386 98.7246H114.72V106.425H116.372C116.726 106.425 116.988 106.345 117.156 106.187C117.324 106.019 117.408 105.757 117.408 105.403V99.7326ZM127.143 105.235C127.143 106.019 126.947 106.588 126.555 106.943C126.172 107.297 125.575 107.475 124.763 107.475H124.581C123.769 107.475 123.167 107.297 122.775 106.943C122.392 106.588 122.201 106.019 122.201 105.235V102.715C122.201 101.931 122.392 101.361 122.775 101.007C123.167 100.652 123.769 100.475 124.581 100.475H124.763C125.575 100.475 126.172 100.652 126.555 101.007C126.947 101.361 127.143 101.931 127.143 102.715V105.235ZM125.953 102.435C125.953 102.145 125.864 101.921 125.687 101.763C125.51 101.604 125.248 101.525 124.903 101.525H124.441C124.096 101.525 123.834 101.604 123.657 101.763C123.48 101.921 123.391 102.145 123.391 102.435V105.515C123.391 105.804 123.48 106.028 123.657 106.187C123.834 106.345 124.096 106.425 124.441 106.425H124.903C125.248 106.425 125.51 106.345 125.687 106.187C125.864 106.028 125.953 105.804 125.953 105.515V102.435ZM136.963 107.475H135.129L134.247 103.681L133.281 107.475H131.489L130.089 100.475H131.321L132.455 106.579L133.701 101.735H134.891L136.053 106.579L137.187 100.475H138.349L136.963 107.475ZM141.567 100.475H142.687V100.811C142.977 100.587 143.35 100.475 143.807 100.475H144.171C144.927 100.475 145.487 100.652 145.851 101.007C146.225 101.361 146.411 101.931 146.411 102.715V107.475H145.221V102.435C145.221 102.155 145.137 101.935 144.969 101.777C144.811 101.609 144.591 101.525 144.311 101.525H143.667C143.359 101.525 143.131 101.609 142.981 101.777C142.832 101.935 142.757 102.108 142.757 102.295V107.475H141.567V100.475ZM149.911 101.875V100.475H151.311V101.875H149.911ZM149.911 107.475V106.075H151.311V107.475H149.911ZM163.116 100.223C163.116 100.605 163.098 100.89 163.06 101.077C163.023 101.254 162.939 101.436 162.808 101.623C162.687 101.809 162.458 102.089 162.122 102.463L161.45 103.219V104.563H160.26V102.869L161.002 102.015C161.329 101.641 161.544 101.385 161.646 101.245C161.758 101.095 161.833 100.965 161.87 100.853C161.908 100.731 161.926 100.563 161.926 100.349V99.6486C161.926 99.3593 161.842 99.1353 161.674 98.9766C161.506 98.8179 161.25 98.7386 160.904 98.7386H159.364V97.6746H160.764C162.332 97.6746 163.116 98.3746 163.116 99.7746V100.223ZM160.162 107.475V106.075H161.562V107.475H160.162ZM169.25 100.223C169.25 100.605 169.231 100.89 169.194 101.077C169.157 101.254 169.073 101.436 168.942 101.623C168.821 101.809 168.592 102.089 168.256 102.463L167.584 103.219V104.563H166.394V102.869L167.136 102.015C167.463 101.641 167.677 101.385 167.78 101.245C167.892 101.095 167.967 100.965 168.004 100.853C168.041 100.731 168.06 100.563 168.06 100.349V99.6486C168.06 99.3593 167.976 99.1353 167.808 98.9766C167.64 98.8179 167.383 98.7386 167.038 98.7386H165.498V97.6746H166.898C168.466 97.6746 169.25 98.3746 169.25 99.7746V100.223ZM166.296 107.475V106.075H167.696V107.475H166.296ZM177.442 105.263C177.442 106.065 177.255 106.635 176.882 106.971C176.518 107.307 175.911 107.475 175.062 107.475H172.402V97.6746H174.894C175.725 97.6746 176.331 97.8426 176.714 98.1786C177.106 98.5146 177.302 99.0746 177.302 99.8586V100.657C177.302 101.375 177.045 101.917 176.532 102.281C177.139 102.617 177.442 103.191 177.442 104.003V105.263ZM176.084 99.7326C176.084 99.3779 176 99.1213 175.832 98.9626C175.673 98.8039 175.417 98.7246 175.062 98.7246H173.62V101.819H175.062C175.351 101.819 175.594 101.725 175.79 101.539C175.986 101.352 176.084 101.105 176.084 100.797V99.7326ZM176.224 103.877C176.224 103.569 176.131 103.326 175.944 103.149C175.757 102.962 175.51 102.869 175.202 102.869H173.62V106.425H175.188C175.543 106.425 175.804 106.345 175.972 106.187C176.14 106.019 176.224 105.757 176.224 105.403V103.877Z" fill="white"/>
<path d="M6.55033 27.2626C6.55033 28.0653 6.36366 28.6346 5.99033 28.9706C5.62633 29.3066 5.01966 29.4746 4.17033 29.4746H1.42633V19.6746H4.00233C4.84233 19.6746 5.477 19.8473 5.90633 20.1926C6.33566 20.5286 6.55033 21.0839 6.55033 21.8586V27.2626ZM5.33233 21.7326C5.33233 21.4246 5.239 21.1819 5.05233 21.0046C4.86566 20.8179 4.61833 20.7246 4.31033 20.7246H2.64433V28.4246H4.29633C4.65099 28.4246 4.91233 28.3453 5.08033 28.1866C5.24833 28.0186 5.33233 27.7573 5.33233 27.4026V21.7326ZM14.3955 29.4746C14.2741 29.4746 14.1388 29.4373 13.9895 29.3626C13.8495 29.2879 13.7281 29.1853 13.6255 29.0546C13.4108 29.3346 13.1261 29.4746 12.7715 29.4746H11.8055C11.0961 29.4746 10.5781 29.3346 10.2515 29.0546C9.93414 28.7653 9.77547 28.2753 9.77547 27.5846V27.3046C9.77547 25.8579 10.4568 25.1346 11.8195 25.1346H13.2755V24.4346C13.2755 24.1453 13.1868 23.9213 13.0095 23.7626C12.8321 23.6039 12.5708 23.5246 12.2255 23.5246H10.3355V22.4746H12.0855C12.8975 22.4746 13.4948 22.6519 13.8775 23.0066C14.2695 23.3613 14.4655 23.9306 14.4655 24.7146V28.0746C14.4655 28.2146 14.5168 28.3219 14.6195 28.3966C14.7315 28.4619 14.9135 28.4946 15.1655 28.4946V29.4746H14.3955ZM12.6315 28.4246C12.9115 28.4246 13.0888 28.3593 13.1635 28.2286C13.2381 28.0979 13.2755 27.9299 13.2755 27.7246V26.1846H11.8055C11.5628 26.1846 11.3621 26.2639 11.2035 26.4226C11.0448 26.5813 10.9655 26.7819 10.9655 27.0246V27.7246C10.9655 27.9673 11.0215 28.1446 11.1335 28.2566C11.2455 28.3686 11.4228 28.4246 11.6655 28.4246H12.6315ZM19.9216 29.4746C19.4456 29.4746 19.0816 29.3206 18.8296 29.0126C18.5776 28.7046 18.4516 28.2986 18.4516 27.7946V23.5246H17.5416V22.4746H18.4516V20.7946H19.6416V22.4746H21.2656V23.5246H19.6416V27.8646C19.6416 28.0699 19.693 28.2146 19.7956 28.2986C19.8983 28.3826 20.057 28.4246 20.2716 28.4246H21.2656V29.4746H19.9216ZM28.3993 29.4746C28.278 29.4746 28.1426 29.4373 27.9933 29.3626C27.8533 29.2879 27.732 29.1853 27.6293 29.0546C27.4146 29.3346 27.13 29.4746 26.7753 29.4746H25.8093C25.1 29.4746 24.582 29.3346 24.2553 29.0546C23.938 28.7653 23.7793 28.2753 23.7793 27.5846V27.3046C23.7793 25.8579 24.4606 25.1346 25.8233 25.1346H27.2793V24.4346C27.2793 24.1453 27.1906 23.9213 27.0133 23.7626C26.836 23.6039 26.5746 23.5246 26.2293 23.5246H24.3393V22.4746H26.0893C26.9013 22.4746 27.4986 22.6519 27.8813 23.0066C28.2733 23.3613 28.4693 23.9306 28.4693 24.7146V28.0746C28.4693 28.2146 28.5206 28.3219 28.6233 28.3966C28.7353 28.4619 28.9173 28.4946 29.1693 28.4946V29.4746H28.3993ZM26.6353 28.4246C26.9153 28.4246 27.0926 28.3593 27.1673 28.2286C27.242 28.0979 27.2793 27.9299 27.2793 27.7246V26.1846H25.8093C25.5666 26.1846 25.366 26.2639 25.2073 26.4226C25.0486 26.5813 24.9693 26.7819 24.9693 27.0246V27.7246C24.9693 27.9673 25.0253 28.1446 25.1373 28.2566C25.2493 28.3686 25.4266 28.4246 25.6693 28.4246H26.6353ZM41.8182 27.0946C41.8182 27.8879 41.5989 28.4853 41.1602 28.8866C40.7309 29.2786 40.1102 29.4746 39.2982 29.4746H37.4502V28.4106H39.4382C39.7835 28.4106 40.0635 28.3079 40.2782 28.1026C40.4929 27.8973 40.6002 27.6499 40.6002 27.3606V25.9046C40.6002 25.6246 40.5255 25.4006 40.3762 25.2326C40.2362 25.0553 40.0215 24.9666 39.7322 24.9666H39.4522C38.7615 24.9666 38.2155 24.7659 37.8142 24.3646C37.4129 23.9539 37.2122 23.3613 37.2122 22.5866V22.0546C37.2122 21.2613 37.4269 20.6686 37.8562 20.2766C38.2949 19.8753 38.9202 19.6746 39.7322 19.6746H41.5942V20.7386H39.5922C39.2469 20.7386 38.9669 20.8413 38.7522 21.0466C38.5375 21.2519 38.4302 21.4993 38.4302 21.7886V22.8526C38.4302 23.1419 38.5235 23.3846 38.7102 23.5806C38.8969 23.7673 39.1395 23.8606 39.4382 23.8606H39.7182C40.3809 23.8606 40.8942 24.0519 41.2582 24.4346C41.6315 24.8173 41.8182 25.3959 41.8182 26.1706V27.0946ZM47.8915 30.0906C47.7795 30.5106 47.6628 30.8466 47.5415 31.0986C47.4201 31.3599 47.2475 31.5606 47.0235 31.7006C46.8088 31.8499 46.5195 31.9246 46.1555 31.9246C45.9595 31.9246 45.6935 31.8966 45.3575 31.8406V30.8186C45.6188 30.8559 45.8615 30.8746 46.0855 30.8746C46.3468 30.8746 46.5335 30.6646 46.6455 30.2446L46.8695 29.4746H46.5895L44.4195 22.4746H45.7075L47.3315 28.2566L48.7035 22.4746H49.9215L47.8915 30.0906ZM53.0699 22.4746H54.1899V22.8106C54.4793 22.5866 54.8526 22.4746 55.3099 22.4746H55.6739C56.4299 22.4746 56.9899 22.6519 57.3539 23.0066C57.7273 23.3613 57.9139 23.9306 57.9139 24.7146V29.4746H56.7239V24.4346C56.7239 24.1546 56.6399 23.9353 56.4719 23.7766C56.3133 23.6086 56.0939 23.5246 55.8139 23.5246H55.1699C54.8619 23.5246 54.6333 23.6086 54.4839 23.7766C54.3346 23.9353 54.2599 24.1079 54.2599 24.2946V29.4746H53.0699V22.4746ZM63.8636 29.4746C63.0423 29.4746 62.4403 29.3019 62.0576 28.9566C61.6749 28.6019 61.4836 28.0279 61.4836 27.2346V24.7146C61.4836 23.9306 61.6749 23.3613 62.0576 23.0066C62.4496 22.6519 63.0516 22.4746 63.8636 22.4746H65.3896V23.5246H63.7236C63.3783 23.5246 63.1169 23.6039 62.9396 23.7626C62.7623 23.9213 62.6736 24.1453 62.6736 24.4346V27.5146C62.6736 27.8039 62.7623 28.0279 62.9396 28.1866C63.1169 28.3453 63.3783 28.4246 63.7236 28.4246H65.3896V29.4746H63.8636ZM68.5454 23.8746V22.4746H69.9454V23.8746H68.5454ZM68.5454 29.4746V28.0746H69.9454V29.4746H68.5454ZM82.7867 27.2626C82.7867 28.0373 82.6 28.6019 82.2267 28.9566C81.8533 29.3019 81.2467 29.4746 80.4067 29.4746H78.7547V28.4246H80.5327C80.8873 28.4246 81.1487 28.3453 81.3167 28.1866C81.4847 28.0186 81.5687 27.7573 81.5687 27.4026V25.9606C81.5687 25.6526 81.4753 25.4099 81.2887 25.2326C81.102 25.0459 80.8547 24.9526 80.5467 24.9526H79.1887V23.9026H80.4067C80.696 23.9026 80.9387 23.8093 81.1347 23.6226C81.3307 23.4359 81.4287 23.1886 81.4287 22.8806V21.7326C81.4287 21.3779 81.3447 21.1213 81.1767 20.9626C81.018 20.8039 80.7613 20.7246 80.4067 20.7246H78.7547V19.6746H80.2387C81.032 19.6746 81.6293 19.8519 82.0307 20.2066C82.4413 20.5519 82.6467 21.1026 82.6467 21.8586V22.7406C82.6467 23.4593 82.39 24.0006 81.8767 24.3646C82.4833 24.7006 82.7867 25.2746 82.7867 26.0866V27.2626ZM90.9308 27.2626C90.9308 28.0373 90.7442 28.6019 90.3708 28.9566C89.9975 29.3019 89.3908 29.4746 88.5508 29.4746H86.8568V28.4246H88.6768C89.0315 28.4246 89.2928 28.3453 89.4608 28.1866C89.6288 28.0186 89.7128 27.7573 89.7128 27.4026V25.6246C89.7128 25.3166 89.6195 25.0739 89.4328 24.8966C89.2462 24.7099 88.9988 24.6166 88.6908 24.6166H86.9968V19.6746H90.7208V20.7246H88.1868V23.5666H88.6208C89.3395 23.5666 89.9042 23.7439 90.3148 24.0986C90.7255 24.4533 90.9308 25.0039 90.9308 25.7506V27.2626ZM98.725 23.7066C98.725 24.2946 98.5757 24.7426 98.277 25.0506C97.9783 25.3493 97.5583 25.4986 97.017 25.4986H96.765C96.2237 25.4986 95.8037 25.3493 95.505 25.0506C95.2063 24.7426 95.057 24.2946 95.057 23.7066V21.4666C95.057 20.8786 95.2063 20.4353 95.505 20.1366C95.8037 19.8286 96.2237 19.6746 96.765 19.6746H97.017C97.5583 19.6746 97.9783 19.8286 98.277 20.1366C98.5757 20.4353 98.725 20.8786 98.725 21.4666V23.7066ZM98.725 29.4746H97.549L100.979 19.6746H102.071L98.725 29.4746ZM97.745 21.3126C97.745 21.0793 97.6843 20.8879 97.563 20.7386C97.4417 20.5893 97.2597 20.5146 97.017 20.5146H96.765C96.5223 20.5146 96.3403 20.5893 96.219 20.7386C96.0977 20.8879 96.037 21.0793 96.037 21.3126V23.8606C96.037 24.0939 96.0977 24.2853 96.219 24.4346C96.3403 24.5839 96.5223 24.6586 96.765 24.6586H97.017C97.2597 24.6586 97.4417 24.5839 97.563 24.4346C97.6843 24.2853 97.745 24.0939 97.745 23.8606V21.3126ZM104.521 27.6826C104.521 28.2706 104.372 28.7186 104.073 29.0266C103.774 29.3253 103.354 29.4746 102.813 29.4746H102.561C102.02 29.4746 101.6 29.3253 101.301 29.0266C101.002 28.7186 100.853 28.2706 100.853 27.6826V25.4426C100.853 24.8546 101.002 24.4113 101.301 24.1126C101.6 23.8046 102.02 23.6506 102.561 23.6506H102.813C103.354 23.6506 103.774 23.8046 104.073 24.1126C104.372 24.4113 104.521 24.8546 104.521 25.4426V27.6826ZM103.541 25.2886C103.541 25.0553 103.48 24.8639 103.359 24.7146C103.238 24.5653 103.056 24.4906 102.813 24.4906H102.561C102.318 24.4906 102.136 24.5653 102.015 24.7146C101.894 24.8639 101.833 25.0553 101.833 25.2886V27.8366C101.833 28.0699 101.894 28.2613 102.015 28.4106C102.136 28.5599 102.318 28.6346 102.561 28.6346H102.813C103.056 28.6346 103.238 28.5599 103.359 28.4106C103.48 28.2613 103.541 28.0699 103.541 27.8366V25.2886ZM115.878 29.4746C115.057 29.4746 114.455 29.3019 114.072 28.9566C113.689 28.6019 113.498 28.0279 113.498 27.2346V24.7146C113.498 23.9306 113.689 23.3613 114.072 23.0066C114.464 22.6519 115.066 22.4746 115.878 22.4746H117.404V23.5246H115.738C115.393 23.5246 115.131 23.6039 114.954 23.7626C114.777 23.9213 114.688 24.1453 114.688 24.4346V27.5146C114.688 27.8039 114.777 28.0279 114.954 28.1866C115.131 28.3453 115.393 28.4246 115.738 28.4246H117.404V29.4746H115.878ZM125.435 27.2346C125.435 28.0186 125.239 28.5879 124.847 28.9426C124.464 29.2973 123.867 29.4746 123.055 29.4746H122.873C122.061 29.4746 121.459 29.2973 121.067 28.9426C120.684 28.5879 120.493 28.0186 120.493 27.2346V24.7146C120.493 23.9306 120.684 23.3613 121.067 23.0066C121.459 22.6519 122.061 22.4746 122.873 22.4746H123.055C123.867 22.4746 124.464 22.6519 124.847 23.0066C125.239 23.3613 125.435 23.9306 125.435 24.7146V27.2346ZM124.245 24.4346C124.245 24.1453 124.156 23.9213 123.979 23.7626C123.802 23.6039 123.54 23.5246 123.195 23.5246H122.733C122.388 23.5246 122.126 23.6039 121.949 23.7626C121.772 23.9213 121.683 24.1453 121.683 24.4346V27.5146C121.683 27.8039 121.772 28.0279 121.949 28.1866C122.126 28.3453 122.388 28.4246 122.733 28.4246H123.195C123.54 28.4246 123.802 28.3453 123.979 28.1866C124.156 28.0279 124.245 27.8039 124.245 27.5146V24.4346ZM129.077 22.4746H130.197V22.8106C130.487 22.5866 130.86 22.4746 131.317 22.4746H131.401C132.251 22.4746 132.857 22.6893 133.221 23.1186C133.567 22.6893 134.047 22.4746 134.663 22.4746H134.747C135.503 22.4746 136.063 22.6519 136.427 23.0066C136.801 23.3613 136.987 23.9306 136.987 24.7146V29.4746H135.797V24.4346C135.797 24.1546 135.713 23.9353 135.545 23.7766C135.387 23.6086 135.167 23.5246 134.887 23.5246H134.523C134.234 23.5246 134.015 23.6133 133.865 23.7906C133.725 23.9586 133.646 24.1406 133.627 24.3366V29.4746H132.437V24.4346C132.437 24.1546 132.358 23.9353 132.199 23.7766C132.041 23.6086 131.821 23.5246 131.541 23.5246H131.177C130.879 23.5246 130.65 23.6039 130.491 23.7626C130.342 23.9119 130.267 24.0753 130.267 24.2526V29.4746H129.077V22.4746ZM140.694 22.4746H141.814V22.8106C142.103 22.5866 142.476 22.4746 142.934 22.4746H143.158C143.979 22.4746 144.581 22.6519 144.964 23.0066C145.346 23.3519 145.538 23.9213 145.538 24.7146V27.2346C145.538 28.0186 145.342 28.5879 144.95 28.9426C144.567 29.2973 143.97 29.4746 143.158 29.4746H141.884V31.8546H140.694V22.4746ZM142.794 23.5246C142.486 23.5246 142.257 23.6086 142.108 23.7766C141.958 23.9353 141.884 24.1079 141.884 24.2946V28.4246H143.298C143.643 28.4246 143.904 28.3453 144.082 28.1866C144.259 28.0279 144.348 27.8039 144.348 27.5146V24.4346C144.348 24.1453 144.259 23.9213 144.082 23.7626C143.904 23.6039 143.643 23.5246 143.298 23.5246H142.794ZM150.299 29.4746C149.981 29.4746 149.701 29.3626 149.459 29.1386C149.225 28.9146 149.109 28.5599 149.109 28.0746V19.6746H150.299V28.0046C150.299 28.1539 150.336 28.2613 150.411 28.3266C150.485 28.3919 150.611 28.4246 150.789 28.4246H151.069V29.4746H150.299ZM156.459 29.4746C155.637 29.4746 155.035 29.3019 154.653 28.9566C154.27 28.6019 154.079 28.0279 154.079 27.2346V24.7146C154.079 23.9119 154.251 23.3379 154.597 22.9926C154.942 22.6473 155.516 22.4746 156.319 22.4746H156.697C157.359 22.4746 157.859 22.6613 158.195 23.0346C158.54 23.3986 158.713 23.9353 158.713 24.6446V26.4646H155.269V27.5146C155.269 27.8039 155.357 28.0279 155.535 28.1866C155.712 28.3453 155.973 28.4246 156.319 28.4246H158.265V29.4746H156.459ZM157.551 25.4146V24.3646C157.551 24.1219 157.471 23.9213 157.313 23.7626C157.154 23.6039 156.953 23.5246 156.711 23.5246H156.179C155.843 23.5246 155.605 23.6039 155.465 23.7626C155.334 23.9119 155.269 24.1359 155.269 24.4346V25.4146H157.551ZM163.82 29.4746C163.344 29.4746 162.98 29.3206 162.728 29.0126C162.476 28.7046 162.35 28.2986 162.35 27.7946V23.5246H161.44V22.4746H162.35V20.7946H163.54V22.4746H165.164V23.5246H163.54V27.8646C163.54 28.0699 163.592 28.2146 163.694 28.2986C163.797 28.3826 163.956 28.4246 164.17 28.4246H165.164V29.4746H163.82ZM170.408 29.4746C169.587 29.4746 168.985 29.3019 168.602 28.9566C168.219 28.6019 168.028 28.0279 168.028 27.2346V24.7146C168.028 23.9119 168.201 23.3379 168.546 22.9926C168.891 22.6473 169.465 22.4746 170.268 22.4746H170.646C171.309 22.4746 171.808 22.6613 172.144 23.0346C172.489 23.3986 172.662 23.9353 172.662 24.6446V26.4646H169.218V27.5146C169.218 27.8039 169.307 28.0279 169.484 28.1866C169.661 28.3453 169.923 28.4246 170.268 28.4246H172.214V29.4746H170.408ZM171.5 25.4146V24.3646C171.5 24.1219 171.421 23.9213 171.262 23.7626C171.103 23.6039 170.903 23.5246 170.66 23.5246H170.128C169.792 23.5246 169.554 23.6039 169.414 23.7626C169.283 23.9119 169.218 24.1359 169.218 24.4346V25.4146H171.5Z" fill="white"/>
</svg>
