<svg width="273" height="215" viewBox="0 0 273 215" fill="none" xmlns="http://www.w3.org/2000/svg">
<path d="M249.236 70.4805H0.236328V71.4805H249.236V70.4805Z" fill="#F5F5F5"/>
<path d="M244.236 143.48H0.236328V144.48H244.236V143.48Z" fill="#F5F5F5"/>
<path d="M246.236 117.48H0.236328V124.97H246.236V117.48Z" stroke="#F5F5F5" stroke-width="0.472324" stroke-miterlimit="10"/>
<path d="M246.236 47.4805H0.236328V54.9701H246.236V47.4805Z" stroke="#F5F5F5" stroke-width="0.472324" stroke-miterlimit="10"/>
<path d="M112.236 47.4785H0.236328V54.4785H112.236V47.4785Z" fill="#F27C06"/>
<path d="M130.236 117.48H0.236328V124.48H130.236V117.48Z" fill="#F27C06"/>
<path d="M3.80633 170.48C2.99433 170.48 2.36899 170.284 1.93033 169.892C1.50099 169.491 1.28633 168.894 1.28633 168.1V163.06C1.28633 162.267 1.50099 161.674 1.93033 161.282C2.36899 160.881 2.99433 160.68 3.80633 160.68H5.69633V161.744H3.66633C3.32099 161.744 3.04099 161.847 2.82633 162.052C2.61166 162.258 2.50433 162.505 2.50433 162.794V168.366C2.50433 168.656 2.61166 168.903 2.82633 169.108C3.04099 169.314 3.32099 169.416 3.66633 169.416H4.95433V166.378H3.77833V165.328H6.11633V170.48H3.80633ZM13.7496 170.48C13.6283 170.48 13.4929 170.443 13.3436 170.368C13.2036 170.294 13.0823 170.191 12.9796 170.06C12.7649 170.34 12.4803 170.48 12.1256 170.48H11.1596C10.4503 170.48 9.93228 170.34 9.60561 170.06C9.28828 169.771 9.12961 169.281 9.12961 168.59V168.31C9.12961 166.864 9.81094 166.14 11.1736 166.14H12.6296V165.44C12.6296 165.151 12.5409 164.927 12.3636 164.768C12.1863 164.61 11.9249 164.53 11.5796 164.53H9.68961V163.48H11.4396C12.2516 163.48 12.8489 163.658 13.2316 164.012C13.6236 164.367 13.8196 164.936 13.8196 165.72V169.08C13.8196 169.22 13.8709 169.328 13.9736 169.402C14.0856 169.468 14.2676 169.5 14.5196 169.5V170.48H13.7496ZM11.9856 169.43C12.2656 169.43 12.4429 169.365 12.5176 169.234C12.5923 169.104 12.6296 168.936 12.6296 168.73V167.19H11.1596C10.9169 167.19 10.7163 167.27 10.5576 167.428C10.3989 167.587 10.3196 167.788 10.3196 168.03V168.73C10.3196 168.973 10.3756 169.15 10.4876 169.262C10.5996 169.374 10.7769 169.43 11.0196 169.43H11.9856ZM18.7158 170.48C18.3984 170.48 18.1184 170.368 17.8758 170.144C17.6424 169.92 17.5258 169.566 17.5258 169.08V160.68H18.7158V169.01C18.7158 169.16 18.7531 169.267 18.8278 169.332C18.9024 169.398 19.0284 169.43 19.2058 169.43H19.4858V170.48H18.7158ZM26.6258 170.48C26.5044 170.48 26.3691 170.443 26.2198 170.368C26.0798 170.294 25.9584 170.191 25.8558 170.06C25.6411 170.34 25.3564 170.48 25.0018 170.48H24.0358C23.3264 170.48 22.8084 170.34 22.4818 170.06C22.1644 169.771 22.0058 169.281 22.0058 168.59V168.31C22.0058 166.864 22.6871 166.14 24.0498 166.14H25.5058V165.44C25.5058 165.151 25.4171 164.927 25.2398 164.768C25.0624 164.61 24.8011 164.53 24.4558 164.53H22.5658V163.48H24.3158C25.1278 163.48 25.7251 163.658 26.1078 164.012C26.4998 164.367 26.6958 164.936 26.6958 165.72V169.08C26.6958 169.22 26.7471 169.328 26.8498 169.402C26.9618 169.468 27.1438 169.5 27.3958 169.5V170.48H26.6258ZM24.8618 169.43C25.1418 169.43 25.3191 169.365 25.3938 169.234C25.4684 169.104 25.5058 168.936 25.5058 168.73V167.19H24.0358C23.7931 167.19 23.5924 167.27 23.4338 167.428C23.2751 167.587 23.1958 167.788 23.1958 168.03V168.73C23.1958 168.973 23.2518 169.15 23.3638 169.262C23.4758 169.374 23.6531 169.43 23.8958 169.43H24.8618ZM33.958 170.48L32.628 167.89L31.228 170.48H29.912L31.942 166.868L30.08 163.48H31.452L32.656 165.79L33.874 163.48H35.176L33.286 166.812L35.358 170.48H33.958ZM41.0714 171.096C40.9594 171.516 40.8427 171.852 40.7214 172.104C40.6 172.366 40.4274 172.566 40.2034 172.706C39.9887 172.856 39.6994 172.93 39.3354 172.93C39.1394 172.93 38.8734 172.902 38.5374 172.846V171.824C38.7987 171.862 39.0414 171.88 39.2654 171.88C39.5267 171.88 39.7134 171.67 39.8254 171.25L40.0494 170.48H39.7694L37.5994 163.48H38.8874L40.5114 169.262L41.8834 163.48H43.1014L41.0714 171.096ZM50.6566 170.48V169.458H51.6366V161.702H50.6566V160.68H53.8346V161.702H52.8546V169.458H53.8346V170.48H50.6566ZM62.1839 168.268C62.1839 169.071 61.9973 169.64 61.6239 169.976C61.2599 170.312 60.6533 170.48 59.8039 170.48H57.0599V160.68H59.6359C60.4759 160.68 61.1106 160.853 61.5399 161.198C61.9693 161.534 62.1839 162.09 62.1839 162.864V168.268ZM60.9659 162.738C60.9659 162.43 60.8726 162.188 60.6859 162.01C60.4993 161.824 60.2519 161.73 59.9439 161.73H58.2779V169.43H59.9299C60.2846 169.43 60.5459 169.351 60.7139 169.192C60.8819 169.024 60.9659 168.763 60.9659 168.408V162.738ZM65.5491 164.88V163.48H66.9491V164.88H65.5491ZM65.5491 170.48V169.08H66.9491V170.48H65.5491ZM79.3843 170.48L77.7883 166.728L76.1083 170.48H74.7923L77.1723 165.412L75.0023 160.68H76.3323L77.8023 164.054L79.3143 160.68H80.6163L78.4043 165.398L80.7563 170.48H79.3843ZM83.8377 170.48V160.68H85.0557V169.416H88.1777V170.48H83.8377ZM93.6184 170.48H91.8964L90.0064 163.48H91.2804L92.7924 169.486L94.2624 163.48H95.4944L93.6184 170.48ZM98.2652 169.248L100.365 166.056C100.673 165.59 100.879 165.268 100.981 165.09C101.084 164.904 101.154 164.722 101.191 164.544C101.229 164.367 101.247 164.11 101.247 163.774V162.794C101.247 162.505 101.14 162.258 100.925 162.052C100.711 161.847 100.431 161.744 100.085 161.744H98.5452V160.68H99.9452C100.757 160.68 101.378 160.881 101.807 161.282C102.246 161.674 102.465 162.267 102.465 163.06V163.648C102.465 164.115 102.442 164.47 102.395 164.712C102.349 164.955 102.265 165.184 102.143 165.398C102.031 165.613 101.807 165.977 101.471 166.49L99.5392 169.416H102.745V170.48H98.2652V169.248ZM111.586 166.63V165.58H116.136V166.63H111.586ZM126.732 170.48H125.486L127.824 161.73H124.716V160.68H128.986V162.038L126.732 170.48ZM134.709 170.48H133.463L135.801 161.73H132.693V160.68H136.963V162.038L134.709 170.48ZM144.953 168.268C144.953 169.043 144.766 169.608 144.393 169.962C144.019 170.308 143.413 170.48 142.573 170.48H140.879V169.43H142.699C143.053 169.43 143.315 169.351 143.483 169.192C143.651 169.024 143.735 168.763 143.735 168.408V166.63C143.735 166.322 143.641 166.08 143.455 165.902C143.268 165.716 143.021 165.622 142.713 165.622H141.019V160.68H144.743V161.73H142.209V164.572H142.643C143.361 164.572 143.926 164.75 144.337 165.104C144.747 165.459 144.953 166.01 144.953 166.756V168.268ZM148.575 169.248L150.675 166.056C150.983 165.59 151.188 165.268 151.291 165.09C151.394 164.904 151.464 164.722 151.501 164.544C151.538 164.367 151.557 164.11 151.557 163.774V162.794C151.557 162.505 151.45 162.258 151.235 162.052C151.02 161.847 150.74 161.744 150.395 161.744H148.855V160.68H150.255C151.067 160.68 151.688 160.881 152.117 161.282C152.556 161.674 152.775 162.267 152.775 163.06V163.648C152.775 164.115 152.752 164.47 152.705 164.712C152.658 164.955 152.574 165.184 152.453 165.398C152.341 165.613 152.117 165.977 151.781 166.49L149.849 169.416H153.055V170.48H148.575V169.248Z" fill="white"/>
<path d="M2.64433 2.70247V6.04847H5.66833V7.07047H2.64433V11.4805H1.42633V1.68047H6.01833V2.70247H2.64433ZM9.09844 2.94047V1.68047H10.4284V2.94047H9.09844ZM9.16844 11.4805V4.48047H10.3584V11.4805H9.16844ZM15.1201 11.4805C14.8027 11.4805 14.5227 11.3685 14.2801 11.1445C14.0467 10.9205 13.9301 10.5658 13.9301 10.0805V1.68047H15.1201V10.0105C15.1201 10.1598 15.1574 10.2671 15.2321 10.3325C15.3067 10.3978 15.4327 10.4305 15.6101 10.4305H15.8901V11.4805H15.1201ZM21.1401 11.4805C20.3187 11.4805 19.7167 11.3078 19.3341 10.9625C18.9514 10.6078 18.7601 10.0338 18.7601 9.24047V6.72047C18.7601 5.9178 18.9327 5.3438 19.2781 4.99847C19.6234 4.65314 20.1974 4.48047 21.0001 4.48047H21.3781C22.0407 4.48047 22.5401 4.66714 22.8761 5.04047C23.2214 5.40447 23.3941 5.94113 23.3941 6.65047V8.47047H19.9501V9.52047C19.9501 9.8098 20.0387 10.0338 20.2161 10.1925C20.3934 10.3511 20.6547 10.4305 21.0001 10.4305H22.9461V11.4805H21.1401ZM22.2321 7.42047V6.37047C22.2321 6.1278 22.1527 5.92714 21.9941 5.76847C21.8354 5.6098 21.6347 5.53047 21.3921 5.53047H20.8601C20.5241 5.53047 20.2861 5.6098 20.1461 5.76847C20.0154 5.9178 19.9501 6.1418 19.9501 6.44047V7.42047H22.2321ZM36.1143 9.10047C36.1143 9.8938 35.8949 10.4911 35.4563 10.8925C35.0269 11.2845 34.4063 11.4805 33.5943 11.4805H31.7463V10.4165H33.7343C34.0796 10.4165 34.3596 10.3138 34.5743 10.1085C34.7889 9.90314 34.8963 9.6558 34.8963 9.36647V7.91047C34.8963 7.63047 34.8216 7.40647 34.6723 7.23847C34.5323 7.06114 34.3176 6.97247 34.0283 6.97247H33.7483C33.0576 6.97247 32.5116 6.7718 32.1103 6.37047C31.7089 5.9598 31.5083 5.36714 31.5083 4.59247V4.06047C31.5083 3.26714 31.7229 2.67447 32.1523 2.28247C32.5909 1.88113 33.2163 1.68047 34.0283 1.68047H35.8903V2.74447H33.8883C33.5429 2.74447 33.2629 2.84714 33.0483 3.05247C32.8336 3.2578 32.7263 3.50513 32.7263 3.79447V4.85847C32.7263 5.1478 32.8196 5.39047 33.0063 5.58647C33.1929 5.77314 33.4356 5.86647 33.7343 5.86647H34.0143C34.6769 5.86647 35.1903 6.0578 35.5543 6.44047C35.9276 6.82314 36.1143 7.4018 36.1143 8.17647V9.10047ZM39.3406 2.94047V1.68047H40.6706V2.94047H39.3406ZM39.4106 11.4805V4.48047H40.6006V11.4805H39.4106ZM45.0403 10.4445H47.9243V11.4805H43.7523V10.3605L46.7903 5.51647H44.0323V4.48047H48.0643V5.72647L45.0403 10.4445ZM53.5288 11.4805C52.7074 11.4805 52.1054 11.3078 51.7228 10.9625C51.3401 10.6078 51.1488 10.0338 51.1488 9.24047V6.72047C51.1488 5.9178 51.3214 5.3438 51.6668 4.99847C52.0121 4.65314 52.5861 4.48047 53.3888 4.48047H53.7668C54.4294 4.48047 54.9288 4.66714 55.2648 5.04047C55.6101 5.40447 55.7828 5.94113 55.7828 6.65047V8.47047H52.3388V9.52047C52.3388 9.8098 52.4274 10.0338 52.6048 10.1925C52.7821 10.3511 53.0434 10.4305 53.3888 10.4305H55.3348V11.4805H53.5288ZM54.6208 7.42047V6.37047C54.6208 6.1278 54.5414 5.92714 54.3828 5.76847C54.2241 5.6098 54.0234 5.53047 53.7808 5.53047H53.2488C52.9128 5.53047 52.6748 5.6098 52.5348 5.76847C52.4041 5.9178 52.3388 6.1418 52.3388 6.44047V7.42047H54.6208ZM59.0002 5.88047V4.48047H60.4002V5.88047H59.0002ZM59.0002 11.4805V10.0805H60.4002V11.4805H59.0002ZM69.0415 11.4805V10.4305H70.7355V2.78647L68.9015 3.51447V2.38047L70.5955 1.68047H71.9255V10.4305H73.3115V11.4805H69.0415ZM76.6397 4.06047C76.6397 3.29513 76.8497 2.70713 77.2697 2.29647C77.6897 1.8858 78.217 1.68047 78.8517 1.68047H79.2017C79.8364 1.68047 80.3637 1.8858 80.7837 2.29647C81.2037 2.70713 81.4137 3.29513 81.4137 4.06047V9.10047C81.4137 9.8938 81.199 10.4911 80.7697 10.8925C80.3497 11.2845 79.7337 11.4805 78.9217 11.4805H77.4517V10.4165H79.0617C79.407 10.4165 79.687 10.3138 79.9017 10.1085C80.1164 9.90314 80.2237 9.6558 80.2237 9.36647V7.84047H78.9917C78.189 7.84047 77.5964 7.66314 77.2137 7.30847C76.831 6.9538 76.6397 6.38447 76.6397 5.60047V4.06047ZM80.2237 3.79447C80.2237 3.4958 80.1257 3.2438 79.9297 3.03847C79.7337 2.83314 79.4677 2.73047 79.1317 2.73047H78.9217C78.5857 2.73047 78.3197 2.83314 78.1237 3.03847C77.9277 3.2438 77.8297 3.4958 77.8297 3.79447V5.86647C77.8297 6.1558 77.9137 6.38447 78.0817 6.55247C78.259 6.71114 78.5157 6.79047 78.8517 6.79047H80.2237V3.79447ZM84.6159 11.4805V10.0805H86.0159V11.4805H84.6159ZM94.0024 9.10047C94.0024 9.8658 93.7924 10.4538 93.3724 10.8645C92.9524 11.2751 92.4251 11.4805 91.7904 11.4805H91.4404C90.8058 11.4805 90.2784 11.2751 89.8584 10.8645C89.4384 10.4538 89.2284 9.8658 89.2284 9.10047V4.06047C89.2284 3.26714 89.4384 2.67447 89.8584 2.28247C90.2878 1.88113 90.9084 1.68047 91.7204 1.68047H93.3304V2.74447H91.5804C91.2351 2.74447 90.9551 2.84714 90.7404 3.05247C90.5258 3.2578 90.4184 3.50513 90.4184 3.79447V5.32047H91.6504C92.4531 5.32047 93.0458 5.4978 93.4284 5.85247C93.8111 6.20714 94.0024 6.77647 94.0024 7.56047V9.10047ZM90.4184 9.36647C90.4184 9.66514 90.5164 9.91714 90.7124 10.1225C90.9084 10.3278 91.1744 10.4305 91.5104 10.4305H91.7204C92.0564 10.4305 92.3224 10.3278 92.5184 10.1225C92.7144 9.91714 92.8124 9.66514 92.8124 9.36647V7.29447C92.8124 7.00514 92.7238 6.78114 92.5464 6.62247C92.3784 6.45447 92.1264 6.37047 91.7904 6.37047H90.4184V9.36647ZM107.813 11.4805V2.68847L106.315 8.19047H105.153L103.655 2.68847V11.4805H102.535V1.68047H104.509L105.783 6.69247L107.043 1.68047H108.975V11.4805H107.813ZM117.794 9.26847C117.794 10.0711 117.607 10.6405 117.234 10.9765C116.87 11.3125 116.263 11.4805 115.414 11.4805H112.754V1.68047H115.246C116.076 1.68047 116.683 1.84847 117.066 2.18447C117.458 2.52047 117.654 3.08047 117.654 3.86447V4.66247C117.654 5.38114 117.397 5.92247 116.884 6.28647C117.49 6.62247 117.794 7.19647 117.794 8.00847V9.26847ZM116.436 3.73847C116.436 3.3838 116.352 3.12714 116.184 2.96847C116.025 2.8098 115.768 2.73047 115.414 2.73047H113.972V5.82447H115.414C115.703 5.82447 115.946 5.73114 116.142 5.54447C116.338 5.3578 116.436 5.11047 116.436 4.80247V3.73847ZM116.576 7.88247C116.576 7.57447 116.482 7.3318 116.296 7.15447C116.109 6.9678 115.862 6.87447 115.554 6.87447H113.972V10.4305H115.54C115.894 10.4305 116.156 10.3511 116.324 10.1925C116.492 10.0245 116.576 9.76314 116.576 9.40847V7.88247ZM126.114 4.41047C126.114 3.3278 126.249 2.45047 126.52 1.77847C126.8 1.10647 127.187 0.513801 127.682 0.000468016H128.914C128.466 0.541802 128.134 0.999135 127.92 1.37247C127.705 1.73647 127.546 2.14714 127.444 2.60447C127.35 3.0618 127.304 3.65447 127.304 4.38247V8.77847C127.304 9.50647 127.35 10.0991 127.444 10.5565C127.546 11.0138 127.705 11.4245 127.92 11.7885C128.134 12.1618 128.466 12.6191 128.914 13.1605H127.682C127.187 12.6471 126.8 12.0545 126.52 11.3825C126.249 10.7105 126.114 9.83314 126.114 8.75047V4.41047ZM136.408 11.4805C136.287 11.4805 136.152 11.4431 136.002 11.3685C135.862 11.2938 135.741 11.1911 135.638 11.0605C135.424 11.3405 135.139 11.4805 134.784 11.4805H133.818C133.109 11.4805 132.591 11.3405 132.264 11.0605C131.947 10.7711 131.788 10.2811 131.788 9.59047V9.31047C131.788 7.8638 132.47 7.14047 133.832 7.14047H135.288V6.44047C135.288 6.15114 135.2 5.92714 135.022 5.76847C134.845 5.6098 134.584 5.53047 134.238 5.53047H132.348V4.48047H134.098C134.91 4.48047 135.508 4.6578 135.89 5.01247C136.282 5.36714 136.478 5.93647 136.478 6.72047V10.0805C136.478 10.2205 136.53 10.3278 136.632 10.4025C136.744 10.4678 136.926 10.5005 137.178 10.5005V11.4805H136.408ZM134.644 10.4305C134.924 10.4305 135.102 10.3651 135.176 10.2345C135.251 10.1038 135.288 9.9358 135.288 9.73047V8.19047H133.818C133.576 8.19047 133.375 8.2698 133.216 8.42847C133.058 8.58714 132.978 8.7878 132.978 9.03047V9.73047C132.978 9.97314 133.034 10.1505 133.146 10.2625C133.258 10.3745 133.436 10.4305 133.678 10.4305H134.644ZM140.254 4.48047H141.374V4.85847C141.682 4.60647 142.056 4.48047 142.494 4.48047H143.516V5.60047H142.354C142.046 5.60047 141.818 5.70314 141.668 5.90847C141.519 6.1138 141.444 6.31447 141.444 6.51047V11.4805H140.254V4.48047ZM148.351 11.4805C147.53 11.4805 146.928 11.3078 146.545 10.9625C146.163 10.6078 145.971 10.0338 145.971 9.24047V6.72047C145.971 5.93647 146.163 5.36714 146.545 5.01247C146.937 4.6578 147.539 4.48047 148.351 4.48047H149.877V5.53047H148.211C147.866 5.53047 147.605 5.6098 147.427 5.76847C147.25 5.92714 147.161 6.15114 147.161 6.44047V9.52047C147.161 9.8098 147.25 10.0338 147.427 10.1925C147.605 10.3511 147.866 10.4305 148.211 10.4305H149.877V11.4805H148.351ZM153.103 1.68047H154.293V4.76047C154.573 4.5738 154.923 4.48047 155.343 4.48047H155.707C156.463 4.48047 157.023 4.6578 157.387 5.01247C157.761 5.36714 157.947 5.93647 157.947 6.72047V11.4805H156.757V6.44047C156.757 6.16047 156.673 5.94114 156.505 5.78247C156.347 5.61447 156.127 5.53047 155.847 5.53047H155.203C154.905 5.53047 154.676 5.6098 154.517 5.76847C154.368 5.9178 154.293 6.08114 154.293 6.25847V11.4805H153.103V1.68047ZM161.447 2.94047V1.68047H162.777V2.94047H161.447ZM161.517 11.4805V4.48047H162.707V11.4805H161.517ZM169.331 11.4805H167.609L165.719 4.48047H166.993L168.505 10.4865L169.975 4.48047H171.207L169.331 11.4805ZM178.345 11.4805C178.224 11.4805 178.089 11.4431 177.939 11.3685C177.799 11.2938 177.678 11.1911 177.575 11.0605C177.361 11.3405 177.076 11.4805 176.721 11.4805H175.755C175.046 11.4805 174.528 11.3405 174.201 11.0605C173.884 10.7711 173.725 10.2811 173.725 9.59047V9.31047C173.725 7.8638 174.407 7.14047 175.769 7.14047H177.225V6.44047C177.225 6.15114 177.137 5.92714 176.959 5.76847C176.782 5.6098 176.521 5.53047 176.175 5.53047H174.285V4.48047H176.035C176.847 4.48047 177.445 4.6578 177.827 5.01247C178.219 5.36714 178.415 5.93647 178.415 6.72047V10.0805C178.415 10.2205 178.467 10.3278 178.569 10.4025C178.681 10.4678 178.863 10.5005 179.115 10.5005V11.4805H178.345ZM176.581 10.4305C176.861 10.4305 177.039 10.3651 177.113 10.2345C177.188 10.1038 177.225 9.9358 177.225 9.73047V8.19047H175.755C175.513 8.19047 175.312 8.2698 175.153 8.42847C174.995 8.58714 174.915 8.7878 174.915 9.03047V9.73047C174.915 9.97314 174.971 10.1505 175.083 10.2625C175.195 10.3745 175.373 10.4305 175.615 10.4305H176.581ZM183.311 11.4805C182.994 11.4805 182.714 11.3685 182.471 11.1445C182.238 10.9205 182.121 10.5658 182.121 10.0805V1.68047H183.311V10.0105C183.311 10.1598 183.349 10.2671 183.423 10.3325C183.498 10.3978 183.624 10.4305 183.801 10.4305H184.081V11.4805H183.311ZM192.128 4.48047H193.248V4.85847C193.556 4.60647 193.93 4.48047 194.368 4.48047H195.39V5.60047H194.228C193.92 5.60047 193.692 5.70314 193.542 5.90847C193.393 6.1138 193.318 6.31447 193.318 6.51047V11.4805H192.128V4.48047ZM200.225 11.4805C199.404 11.4805 198.802 11.3078 198.419 10.9625C198.037 10.6078 197.845 10.0338 197.845 9.24047V6.72047C197.845 5.9178 198.018 5.3438 198.363 4.99847C198.709 4.65314 199.283 4.48047 200.085 4.48047H200.463C201.126 4.48047 201.625 4.66714 201.961 5.04047C202.307 5.40447 202.479 5.94113 202.479 6.65047V8.47047H199.035V9.52047C199.035 9.8098 199.124 10.0338 199.301 10.1925C199.479 10.3511 199.74 10.4305 200.085 10.4305H202.031V11.4805H200.225ZM201.317 7.42047V6.37047C201.317 6.1278 201.238 5.92714 201.079 5.76847C200.921 5.6098 200.72 5.53047 200.477 5.53047H199.945C199.609 5.53047 199.371 5.6098 199.231 5.76847C199.101 5.9178 199.035 6.1418 199.035 6.44047V7.42047H201.317ZM208.147 11.4805C207.325 11.4805 206.723 11.3078 206.341 10.9625C205.958 10.6078 205.767 10.0338 205.767 9.24047V6.72047C205.767 5.93647 205.958 5.36714 206.341 5.01247C206.733 4.6578 207.335 4.48047 208.147 4.48047H209.673V5.53047H208.007C207.661 5.53047 207.4 5.6098 207.223 5.76847C207.045 5.92714 206.957 6.15114 206.957 6.44047V9.52047C206.957 9.8098 207.045 10.0338 207.223 10.1925C207.4 10.3511 207.661 10.4305 208.007 10.4305H209.673V11.4805H208.147ZM217.564 9.24047C217.564 10.0245 217.368 10.5938 216.976 10.9485C216.593 11.3031 215.996 11.4805 215.184 11.4805H215.002C214.19 11.4805 213.588 11.3031 213.196 10.9485C212.813 10.5938 212.622 10.0245 212.622 9.24047V6.72047C212.622 5.93647 212.813 5.36714 213.196 5.01247C213.588 4.6578 214.19 4.48047 215.002 4.48047H215.184C215.996 4.48047 216.593 4.6578 216.976 5.01247C217.368 5.36714 217.564 5.93647 217.564 6.72047V9.24047ZM216.374 6.44047C216.374 6.15114 216.285 5.92714 216.108 5.76847C215.93 5.6098 215.669 5.53047 215.324 5.53047H214.862C214.516 5.53047 214.255 5.6098 214.078 5.76847C213.9 5.92714 213.812 6.15114 213.812 6.44047V9.52047C213.812 9.8098 213.9 10.0338 214.078 10.1925C214.255 10.3511 214.516 10.4305 214.862 10.4305H215.324C215.669 10.4305 215.93 10.3511 216.108 10.1925C216.285 10.0338 216.374 9.8098 216.374 9.52047V6.44047ZM221.066 4.48047H222.186V4.85847C222.494 4.60647 222.867 4.48047 223.306 4.48047H224.328V5.60047H223.166C222.858 5.60047 222.629 5.70314 222.48 5.90847C222.331 6.1138 222.256 6.31447 222.256 6.51047V11.4805H221.066V4.48047ZM230.577 11.1585C230.269 11.3731 229.896 11.4805 229.457 11.4805H229.163C228.342 11.4805 227.74 11.3078 227.357 10.9625C226.974 10.6078 226.783 10.0338 226.783 9.24047V6.72047C226.783 5.93647 226.974 5.36714 227.357 5.01247C227.749 4.6578 228.351 4.48047 229.163 4.48047H230.507V1.68047H231.697V11.4805H230.577V11.1585ZM229.597 10.4305C229.905 10.4305 230.134 10.3511 230.283 10.1925C230.432 10.0245 230.507 9.84714 230.507 9.66047V5.53047H229.023C228.678 5.53047 228.416 5.6098 228.239 5.76847C228.062 5.92714 227.973 6.15114 227.973 6.44047V9.52047C227.973 9.8098 228.062 10.0338 228.239 10.1925C228.416 10.3511 228.678 10.4305 229.023 10.4305H229.597ZM237.857 8.75047C237.857 9.83314 237.717 10.7105 237.437 11.3825C237.166 12.0545 236.783 12.6471 236.289 13.1605H235.057C235.505 12.6191 235.836 12.1618 236.051 11.7885C236.265 11.4245 236.419 11.0138 236.513 10.5565C236.615 10.0991 236.667 9.50647 236.667 8.77847V4.38247C236.667 3.65447 236.615 3.0618 236.513 2.60447C236.419 2.14714 236.265 1.73647 236.051 1.37247C235.836 0.999135 235.505 0.541802 235.057 0.000468016H236.289C236.783 0.513801 237.166 1.10647 237.437 1.77847C237.717 2.45047 237.857 3.3278 237.857 4.41047V8.75047Z" fill="white"/>
<path d="M3.80633 191.48C2.99433 191.48 2.36899 191.284 1.93033 190.892C1.50099 190.491 1.28633 189.894 1.28633 189.1V184.06C1.28633 183.267 1.50099 182.674 1.93033 182.282C2.36899 181.881 2.99433 181.68 3.80633 181.68H5.51433V182.744H3.66633C3.32099 182.744 3.04099 182.847 2.82633 183.052C2.61166 183.258 2.50433 183.505 2.50433 183.794V189.366C2.50433 189.656 2.61166 189.903 2.82633 190.108C3.04099 190.314 3.32099 190.416 3.66633 190.416H5.51433V191.48H3.80633ZM13.3995 189.24C13.3995 190.024 13.2035 190.594 12.8115 190.948C12.4288 191.303 11.8315 191.48 11.0195 191.48H10.8375C10.0255 191.48 9.4235 191.303 9.0315 190.948C8.64883 190.594 8.4575 190.024 8.4575 189.24V186.72C8.4575 185.936 8.64883 185.367 9.0315 185.012C9.4235 184.658 10.0255 184.48 10.8375 184.48H11.0195C11.8315 184.48 12.4288 184.658 12.8115 185.012C13.2035 185.367 13.3995 185.936 13.3995 186.72V189.24ZM12.2095 186.44C12.2095 186.151 12.1208 185.927 11.9435 185.768C11.7662 185.61 11.5048 185.53 11.1595 185.53H10.6975C10.3522 185.53 10.0908 185.61 9.9135 185.768C9.73617 185.927 9.6475 186.151 9.6475 186.44V189.52C9.6475 189.81 9.73617 190.034 9.9135 190.192C10.0908 190.351 10.3522 190.43 10.6975 190.43H11.1595C11.5048 190.43 11.7662 190.351 11.9435 190.192C12.1208 190.034 12.2095 189.81 12.2095 189.52V186.44ZM21.8438 189.24C21.8438 190.024 21.6478 190.594 21.2558 190.948C20.8731 191.303 20.2758 191.48 19.4638 191.48H19.2818C18.4698 191.48 17.8678 191.303 17.4758 190.948C17.0931 190.594 16.9018 190.024 16.9018 189.24V186.72C16.9018 185.936 17.0931 185.367 17.4758 185.012C17.8678 184.658 18.4698 184.48 19.2818 184.48H19.4638C20.2758 184.48 20.8731 184.658 21.2558 185.012C21.6478 185.367 21.8438 185.936 21.8438 186.72V189.24ZM20.6538 186.44C20.6538 186.151 20.5651 185.927 20.3878 185.768C20.2105 185.61 19.9491 185.53 19.6038 185.53H19.1418C18.7965 185.53 18.5351 185.61 18.3578 185.768C18.1805 185.927 18.0918 186.151 18.0918 186.44V189.52C18.0918 189.81 18.1805 190.034 18.3578 190.192C18.5351 190.351 18.7965 190.43 19.1418 190.43H19.6038C19.9491 190.43 20.2105 190.351 20.3878 190.192C20.5651 190.034 20.6538 189.81 20.6538 189.52V186.44ZM25.4861 184.48H26.6061V184.858C26.9141 184.606 27.2874 184.48 27.7261 184.48H28.7481V185.6H27.5861C27.2781 185.6 27.0494 185.703 26.9001 185.908C26.7508 186.114 26.6761 186.314 26.6761 186.51V191.48H25.4861V184.48ZM35.1371 191.158C34.8291 191.373 34.4558 191.48 34.0171 191.48H33.7231C32.9018 191.48 32.2998 191.308 31.9171 190.962C31.5345 190.608 31.3431 190.034 31.3431 189.24V186.72C31.3431 185.936 31.5345 185.367 31.9171 185.012C32.3091 184.658 32.9111 184.48 33.7231 184.48H35.0671V181.68H36.2571V191.48H35.1371V191.158ZM34.1571 190.43C34.4651 190.43 34.6938 190.351 34.8431 190.192C34.9925 190.024 35.0671 189.847 35.0671 189.66V185.53H33.5831C33.2378 185.53 32.9765 185.61 32.7991 185.768C32.6218 185.927 32.5331 186.151 32.5331 186.44V189.52C32.5331 189.81 32.6218 190.034 32.7991 190.192C32.9765 190.351 33.2378 190.43 33.5831 190.43H34.1571ZM39.9668 182.94V181.68H41.2968V182.94H39.9668ZM40.0368 191.48V184.48H41.2268V191.48H40.0368ZM45.0084 184.48H46.1284V184.816C46.4178 184.592 46.7911 184.48 47.2484 184.48H47.6124C48.3684 184.48 48.9284 184.658 49.2924 185.012C49.6658 185.367 49.8524 185.936 49.8524 186.72V191.48H48.6624V186.44C48.6624 186.16 48.5784 185.941 48.4104 185.782C48.2518 185.614 48.0324 185.53 47.7524 185.53H47.1084C46.8004 185.53 46.5718 185.614 46.4224 185.782C46.2731 185.941 46.1984 186.114 46.1984 186.3V191.48H45.0084V184.48ZM57.6921 191.48C57.5708 191.48 57.4354 191.443 57.2861 191.368C57.1461 191.294 57.0248 191.191 56.9221 191.06C56.7074 191.34 56.4228 191.48 56.0681 191.48H55.1021C54.3928 191.48 53.8748 191.34 53.5481 191.06C53.2308 190.771 53.0721 190.281 53.0721 189.59V189.31C53.0721 187.864 53.7534 187.14 55.1161 187.14H56.5721V186.44C56.5721 186.151 56.4834 185.927 56.3061 185.768C56.1288 185.61 55.8674 185.53 55.5221 185.53H53.6321V184.48H55.3821C56.1941 184.48 56.7914 184.658 57.1741 185.012C57.5661 185.367 57.7621 185.936 57.7621 186.72V190.08C57.7621 190.22 57.8134 190.328 57.9161 190.402C58.0281 190.468 58.2101 190.5 58.4621 190.5V191.48H57.6921ZM55.9281 190.43C56.2081 190.43 56.3854 190.365 56.4601 190.234C56.5348 190.104 56.5721 189.936 56.5721 189.73V188.19H55.1021C54.8594 188.19 54.6588 188.27 54.5001 188.428C54.3414 188.587 54.2621 188.788 54.2621 189.03V189.73C54.2621 189.973 54.3181 190.15 54.4301 190.262C54.5421 190.374 54.7194 190.43 54.9621 190.43H55.9281ZM63.2183 191.48C62.7423 191.48 62.3783 191.326 62.1263 191.018C61.8743 190.71 61.7483 190.304 61.7483 189.8V185.53H60.8383V184.48H61.7483V182.8H62.9383V184.48H64.5623V185.53H62.9383V189.87C62.9383 190.076 62.9896 190.22 63.0923 190.304C63.1949 190.388 63.3536 190.43 63.5683 190.43H64.5623V191.48H63.2183ZM69.8059 191.48C68.9846 191.48 68.3826 191.308 67.9999 190.962C67.6173 190.608 67.4259 190.034 67.4259 189.24V186.72C67.4259 185.918 67.5986 185.344 67.9439 184.998C68.2893 184.653 68.8633 184.48 69.6659 184.48H70.0439C70.7066 184.48 71.2059 184.667 71.5419 185.04C71.8873 185.404 72.0599 185.941 72.0599 186.65V188.47H68.6159V189.52C68.6159 189.81 68.7046 190.034 68.8819 190.192C69.0593 190.351 69.3206 190.43 69.6659 190.43H71.6119V191.48H69.8059ZM70.8979 187.42V186.37C70.8979 186.128 70.8186 185.927 70.6599 185.768C70.5013 185.61 70.3006 185.53 70.0579 185.53H69.5259C69.1899 185.53 68.9519 185.61 68.8119 185.768C68.6813 185.918 68.6159 186.142 68.6159 186.44V187.42H70.8979ZM79.3234 189.73C79.3234 190.318 79.1414 190.757 78.7774 191.046C78.4228 191.336 77.9048 191.48 77.2234 191.48H75.4174V190.43H77.3634C77.6154 190.43 77.8068 190.379 77.9374 190.276C78.0681 190.164 78.1334 190.006 78.1334 189.8V189.058C78.1334 188.638 77.9328 188.428 77.5314 188.428H77.2934C76.6401 188.428 76.1501 188.288 75.8234 188.008C75.5061 187.719 75.3474 187.266 75.3474 186.65V186.244C75.3474 185.619 75.5248 185.171 75.8794 184.9C76.2341 184.62 76.7568 184.48 77.4474 184.48H79.0434V185.53H77.3074C77.0741 185.53 76.8874 185.586 76.7474 185.698C76.6074 185.801 76.5374 185.955 76.5374 186.16V186.664C76.5374 186.879 76.5981 187.038 76.7194 187.14C76.8501 187.243 77.0134 187.294 77.2094 187.294H77.4054C78.0308 187.294 78.5068 187.448 78.8334 187.756C79.1601 188.055 79.3234 188.503 79.3234 189.1V189.73ZM82.5492 185.88V184.48H83.9492V185.88H82.5492ZM82.5492 191.48V190.08H83.9492V191.48H82.5492ZM95.2365 187.42H93.9905V191.48H92.7725V181.68H95.2785C96.0718 181.68 96.6692 181.858 97.0705 182.212C97.4812 182.558 97.6865 183.108 97.6865 183.864V185.208C97.6865 186.263 97.2665 186.921 96.4265 187.182L98.3725 191.48H97.0425L95.2365 187.42ZM96.4685 183.738C96.4685 183.384 96.3845 183.127 96.2165 182.968C96.0578 182.81 95.8012 182.73 95.4465 182.73H93.9905V186.37H95.4465C95.8012 186.37 96.0578 186.291 96.2165 186.132C96.3845 185.964 96.4685 185.703 96.4685 185.348V183.738ZM105.8 191.48L105.268 189.002H102.538L101.992 191.48H100.746L103.112 181.68H104.722L107.046 191.48H105.8ZM103.896 182.604L102.762 187.952H105.044L103.896 182.604ZM109.846 185.88V184.48H111.246V185.88H109.846ZM109.846 191.48V190.08H111.246V191.48H109.846ZM119.761 190.248L121.861 187.056C122.169 186.59 122.375 186.268 122.477 186.09C122.58 185.904 122.65 185.722 122.687 185.544C122.725 185.367 122.743 185.11 122.743 184.774V183.794C122.743 183.505 122.636 183.258 122.421 183.052C122.207 182.847 121.927 182.744 121.581 182.744H120.041V181.68H121.441C122.253 181.68 122.874 181.881 123.303 182.282C123.742 182.674 123.961 183.267 123.961 184.06V184.648C123.961 185.115 123.938 185.47 123.891 185.712C123.845 185.955 123.761 186.184 123.639 186.398C123.527 186.613 123.303 186.977 122.967 187.49L121.035 190.416H124.241V191.48H119.761V190.248ZM131.923 189.296V191.48H130.733V189.296H127.961V188.092L129.347 181.68H130.481L129.165 188.274H130.733V185.082H131.923V188.274H132.903V189.296H131.923ZM136.232 181.68H137.422V184.76C137.702 184.574 138.052 184.48 138.472 184.48H138.836C139.592 184.48 140.152 184.658 140.516 185.012C140.889 185.367 141.076 185.936 141.076 186.72V191.48H139.886V186.44C139.886 186.16 139.802 185.941 139.634 185.782C139.475 185.614 139.256 185.53 138.976 185.53H138.332C138.033 185.53 137.804 185.61 137.646 185.768C137.496 185.918 137.422 186.081 137.422 186.258V191.48H136.232V181.68ZM149.724 190.248L151.824 187.056C152.132 186.59 152.337 186.268 152.44 186.09C152.543 185.904 152.613 185.722 152.65 185.544C152.687 185.367 152.706 185.11 152.706 184.774V183.794C152.706 183.505 152.599 183.258 152.384 183.052C152.169 182.847 151.889 182.744 151.544 182.744H150.004V181.68H151.404C152.216 181.68 152.837 181.881 153.266 182.282C153.705 182.674 153.924 183.267 153.924 184.06V184.648C153.924 185.115 153.901 185.47 153.854 185.712C153.807 185.955 153.723 186.184 153.602 186.398C153.49 186.613 153.266 186.977 152.93 187.49L150.998 190.416H154.204V191.48H149.724V190.248ZM157.84 190.248L159.94 187.056C160.248 186.59 160.453 186.268 160.556 186.09C160.659 185.904 160.729 185.722 160.766 185.544C160.803 185.367 160.822 185.11 160.822 184.774V183.794C160.822 183.505 160.715 183.258 160.5 183.052C160.285 182.847 160.005 182.744 159.66 182.744H158.12V181.68H159.52C160.332 181.68 160.953 181.881 161.382 182.282C161.821 182.674 162.04 183.267 162.04 184.06V184.648C162.04 185.115 162.017 185.47 161.97 185.712C161.923 185.955 161.839 186.184 161.718 186.398C161.606 186.613 161.382 186.977 161.046 187.49L159.114 190.416H162.32V191.48H157.84V190.248ZM166.194 184.48H167.314V184.816C167.604 184.592 167.977 184.48 168.434 184.48H168.518C169.368 184.48 169.974 184.695 170.338 185.124C170.684 184.695 171.164 184.48 171.78 184.48H171.864C172.62 184.48 173.18 184.658 173.544 185.012C173.918 185.367 174.104 185.936 174.104 186.72V191.48H172.914V186.44C172.914 186.16 172.83 185.941 172.662 185.782C172.504 185.614 172.284 185.53 172.004 185.53H171.64C171.351 185.53 171.132 185.619 170.982 185.796C170.842 185.964 170.763 186.146 170.744 186.342V191.48H169.554V186.44C169.554 186.16 169.475 185.941 169.316 185.782C169.158 185.614 168.938 185.53 168.658 185.53H168.294C167.996 185.53 167.767 185.61 167.608 185.768C167.459 185.918 167.384 186.081 167.384 186.258V191.48H166.194V184.48ZM187.075 189.268C187.075 190.043 186.889 190.608 186.515 190.962C186.142 191.308 185.535 191.48 184.695 191.48H183.043V190.43H184.821C185.176 190.43 185.437 190.351 185.605 190.192C185.773 190.024 185.857 189.763 185.857 189.408V187.966C185.857 187.658 185.764 187.416 185.577 187.238C185.391 187.052 185.143 186.958 184.835 186.958H183.477V185.908H184.695C184.985 185.908 185.227 185.815 185.423 185.628C185.619 185.442 185.717 185.194 185.717 184.886V183.738C185.717 183.384 185.633 183.127 185.465 182.968C185.307 182.81 185.05 182.73 184.695 182.73H183.043V181.68H184.527C185.321 181.68 185.918 181.858 186.319 182.212C186.73 182.558 186.935 183.108 186.935 183.864V184.746C186.935 185.465 186.679 186.006 186.165 186.37C186.772 186.706 187.075 187.28 187.075 188.092V189.268ZM192.951 191.48H191.705L194.043 182.73H190.935V181.68H195.205V183.038L192.951 191.48ZM202.916 189.73C202.916 190.318 202.734 190.757 202.37 191.046C202.015 191.336 201.497 191.48 200.816 191.48H199.01V190.43H200.956C201.208 190.43 201.399 190.379 201.53 190.276C201.66 190.164 201.726 190.006 201.726 189.8V189.058C201.726 188.638 201.525 188.428 201.124 188.428H200.886C200.232 188.428 199.742 188.288 199.416 188.008C199.098 187.719 198.94 187.266 198.94 186.65V186.244C198.94 185.619 199.117 185.171 199.472 184.9C199.826 184.62 200.349 184.48 201.04 184.48H202.636V185.53H200.9C200.666 185.53 200.48 185.586 200.34 185.698C200.2 185.801 200.13 185.955 200.13 186.16V186.664C200.13 186.879 200.19 187.038 200.312 187.14C200.442 187.243 200.606 187.294 200.802 187.294H200.998C201.623 187.294 202.099 187.448 202.426 187.756C202.752 188.055 202.916 188.503 202.916 189.1V189.73Z" fill="white"/>
<path d="M4.70233 91.4805L2.56033 82.7165V91.4805H1.42633V81.6805H3.41433L5.57033 90.4445V81.6805H6.70433V91.4805H4.70233ZM12.7926 91.4805C11.9712 91.4805 11.3692 91.3078 10.9866 90.9625C10.6039 90.6078 10.4126 90.0338 10.4126 89.2405V86.7205C10.4126 85.9178 10.5852 85.3438 10.9306 84.9985C11.2759 84.6531 11.8499 84.4805 12.6526 84.4805H13.0306C13.6932 84.4805 14.1926 84.6671 14.5286 85.0405C14.8739 85.4045 15.0466 85.9411 15.0466 86.6505V88.4705H11.6026V89.5205C11.6026 89.8098 11.6912 90.0338 11.8686 90.1925C12.0459 90.3511 12.3072 90.4305 12.6526 90.4305H14.5986V91.4805H12.7926ZM13.8846 87.4205V86.3705C13.8846 86.1278 13.8052 85.9271 13.6466 85.7685C13.4879 85.6098 13.2872 85.5305 13.0446 85.5305H12.5126C12.1766 85.5305 11.9386 85.6098 11.7986 85.7685C11.6679 85.9178 11.6026 86.1418 11.6026 86.4405V87.4205H13.8846ZM20.1541 91.4805C19.6781 91.4805 19.3141 91.3265 19.0621 91.0185C18.8101 90.7105 18.6841 90.3045 18.6841 89.8005V85.5305H17.7741V84.4805H18.6841V82.8005H19.8741V84.4805H21.4981V85.5305H19.8741V89.8705C19.8741 90.0758 19.9254 90.2205 20.0281 90.3045C20.1307 90.3885 20.2894 90.4305 20.5041 90.4305H21.4981V91.4805H20.1541ZM30.8157 91.4805H28.9817L28.0997 87.6865L27.1337 91.4805H25.3417L23.9417 84.4805H25.1737L26.3077 90.5845L27.5537 85.7405H28.7437L29.9057 90.5845L31.0397 84.4805H32.2017L30.8157 91.4805ZM40.0859 89.2405C40.0859 90.0245 39.8899 90.5938 39.4979 90.9485C39.1152 91.3031 38.5179 91.4805 37.7059 91.4805H37.5239C36.7119 91.4805 36.1099 91.3031 35.7179 90.9485C35.3352 90.5938 35.1439 90.0245 35.1439 89.2405V86.7205C35.1439 85.9365 35.3352 85.3671 35.7179 85.0125C36.1099 84.6578 36.7119 84.4805 37.5239 84.4805H37.7059C38.5179 84.4805 39.1152 84.6578 39.4979 85.0125C39.8899 85.3671 40.0859 85.9365 40.0859 86.7205V89.2405ZM38.8959 86.4405C38.8959 86.1511 38.8072 85.9271 38.6299 85.7685C38.4526 85.6098 38.1912 85.5305 37.8459 85.5305H37.3839C37.0386 85.5305 36.7772 85.6098 36.5999 85.7685C36.4226 85.9271 36.3339 86.1511 36.3339 86.4405V89.5205C36.3339 89.8098 36.4226 90.0338 36.5999 90.1925C36.7772 90.3511 37.0386 90.4305 37.3839 90.4305H37.8459C38.1912 90.4305 38.4526 90.3511 38.6299 90.1925C38.8072 90.0338 38.8959 89.8098 38.8959 89.5205V86.4405ZM43.7282 84.4805H44.8482V84.8585C45.1562 84.6065 45.5295 84.4805 45.9682 84.4805H46.9902V85.6005H45.8282C45.5202 85.6005 45.2915 85.7031 45.1422 85.9085C44.9929 86.1138 44.9182 86.3145 44.9182 86.5105V91.4805H43.7282V84.4805ZM53.4303 91.4805L51.5123 88.0225L51.1203 88.4845V91.4805H49.9303V81.6805H51.1203V86.9165L53.2203 84.4805H54.7183L52.3523 87.1825L54.8163 91.4805H53.4303ZM57.8945 82.9405V81.6805H59.2245V82.9405H57.8945ZM57.9645 91.4805V84.4805H59.1545V91.4805H57.9645ZM62.9361 84.4805H64.0561V84.8165C64.3454 84.5925 64.7188 84.4805 65.1761 84.4805H65.5401C66.2961 84.4805 66.8561 84.6578 67.2201 85.0125C67.5934 85.3671 67.7801 85.9365 67.7801 86.7205V91.4805H66.5901V86.4405C66.5901 86.1605 66.5061 85.9411 66.3381 85.7825C66.1794 85.6145 65.9601 85.5305 65.6801 85.5305H65.0361C64.7281 85.5305 64.4994 85.6145 64.3501 85.7825C64.2008 85.9411 64.1261 86.1138 64.1261 86.3005V91.4805H62.9361V84.4805ZM76.5858 91.9705C76.5858 92.6051 76.3944 93.0765 76.0118 93.3845C75.6384 93.7018 75.0504 93.8605 74.2478 93.8605H71.4198V92.8105H74.3878C74.7238 92.8105 74.9758 92.7451 75.1438 92.6145C75.3118 92.4838 75.3958 92.3158 75.3958 92.1105V91.6625C75.3958 91.4478 75.3118 91.2798 75.1438 91.1585C74.9758 91.0278 74.7238 90.9625 74.3878 90.9625H72.0498V89.0305C71.7418 88.8625 71.5131 88.6198 71.3638 88.3025C71.2144 87.9851 71.1398 87.5745 71.1398 87.0705V86.7205C71.1398 85.9365 71.3311 85.3671 71.7138 85.0125C72.1058 84.6578 72.7078 84.4805 73.5198 84.4805H76.3758V87.0705C76.3758 87.7705 76.1844 88.3211 75.8018 88.7225C75.4191 89.1145 74.9104 89.3105 74.2758 89.3105H73.2398V89.9125H74.2478C75.0504 89.9125 75.6384 90.0711 76.0118 90.3885C76.3944 90.6965 76.5858 91.1678 76.5858 91.8025V91.9705ZM74.2758 88.2605C74.5651 88.2605 74.7844 88.1671 74.9338 87.9805C75.0831 87.7938 75.1671 87.5978 75.1858 87.3925V85.5305H73.3798C73.0344 85.5305 72.7731 85.6098 72.5958 85.7685C72.4184 85.9271 72.3298 86.1511 72.3298 86.4405V87.3505C72.3298 87.6398 72.4184 87.8638 72.5958 88.0225C72.7731 88.1811 73.0344 88.2605 73.3798 88.2605H74.2758ZM79.7377 85.8805V84.4805H81.1377V85.8805H79.7377ZM79.7377 91.4805V90.0805H81.1377V91.4805H79.7377ZM1.42633 103.63V102.58H5.97633V103.63H1.42633ZM20.2547 105.1C20.2547 105.894 20.0354 106.491 19.5967 106.892C19.1674 107.284 18.5467 107.48 17.7347 107.48H17.5247C16.7127 107.48 16.0874 107.284 15.6487 106.892C15.2194 106.491 15.0047 105.894 15.0047 105.1V97.6805H16.2227V105.366C16.2227 105.656 16.33 105.903 16.5447 106.108C16.7594 106.314 17.0394 106.416 17.3847 106.416H17.8747C18.22 106.416 18.5 106.314 18.7147 106.108C18.9294 105.903 19.0367 105.656 19.0367 105.366V97.6805H20.2547V105.1ZM24.0369 100.48H25.1569V100.816C25.4462 100.592 25.8195 100.48 26.2769 100.48H26.5009C27.3222 100.48 27.9242 100.658 28.3069 101.012C28.6895 101.358 28.8809 101.927 28.8809 102.72V105.24C28.8809 106.024 28.6849 106.594 28.2929 106.948C27.9102 107.303 27.3129 107.48 26.5009 107.48H25.2269V109.86H24.0369V100.48ZM26.1369 101.53C25.8289 101.53 25.6002 101.614 25.4509 101.782C25.3015 101.941 25.2269 102.114 25.2269 102.3V106.43H26.6409C26.9862 106.43 27.2475 106.351 27.4249 106.192C27.6022 106.034 27.6909 105.81 27.6909 105.52V102.44C27.6909 102.151 27.6022 101.927 27.4249 101.768C27.2475 101.61 26.9862 101.53 26.6409 101.53H26.1369ZM37.4889 101.88V100.48H38.8889V101.88H37.4889ZM37.4889 107.48V106.08H38.8889V107.48H37.4889ZM47.8102 107.48V106.43H49.5042V98.7865L47.6702 99.5145V98.3805L49.3642 97.6805H50.6942V106.43H52.0802V107.48H47.8102ZM59.2584 107.48L57.3404 104.022L56.9484 104.484V107.48H55.7584V97.6805H56.9484V102.916L59.0484 100.48H60.5464L58.1804 103.182L60.6444 107.48H59.2584ZM68.9025 105.268C68.9025 106.071 68.7158 106.64 68.3425 106.976C67.9785 107.312 67.3718 107.48 66.5225 107.48H63.8625V97.6805H66.3545C67.1852 97.6805 67.7918 97.8485 68.1745 98.1845C68.5665 98.5205 68.7625 99.0805 68.7625 99.8645V100.662C68.7625 101.381 68.5058 101.922 67.9925 102.286C68.5992 102.622 68.9025 103.196 68.9025 104.008V105.268ZM67.5445 99.7385C67.5445 99.3838 67.4605 99.1271 67.2925 98.9685C67.1338 98.8098 66.8772 98.7305 66.5225 98.7305H65.0805V101.824H66.5225C66.8118 101.824 67.0545 101.731 67.2505 101.544C67.4465 101.358 67.5445 101.11 67.5445 100.802V99.7385ZM67.6845 103.882C67.6845 103.574 67.5912 103.332 67.4045 103.154C67.2178 102.968 66.9705 102.874 66.6625 102.874H65.0805V106.43H66.6485C67.0032 106.43 67.2645 106.351 67.4325 106.192C67.6005 106.024 67.6845 105.763 67.6845 105.408V103.882ZM103.736 103.63V102.58H108.286V103.63H103.736ZM122.509 105.268C122.509 106.071 122.322 106.64 121.949 106.976C121.585 107.312 120.978 107.48 120.129 107.48H117.385V97.6805H119.961C120.801 97.6805 121.435 97.8531 121.865 98.1985C122.294 98.5345 122.509 99.0898 122.509 99.8645V105.268ZM121.291 99.7385C121.291 99.4305 121.197 99.1878 121.011 99.0105C120.824 98.8238 120.577 98.7305 120.269 98.7305H118.603V106.43H120.255C120.609 106.43 120.871 106.351 121.039 106.192C121.207 106.024 121.291 105.763 121.291 105.408V99.7385ZM131.026 105.24C131.026 106.024 130.83 106.594 130.438 106.948C130.055 107.303 129.458 107.48 128.646 107.48H128.464C127.652 107.48 127.05 107.303 126.658 106.948C126.275 106.594 126.084 106.024 126.084 105.24V102.72C126.084 101.936 126.275 101.367 126.658 101.012C127.05 100.658 127.652 100.48 128.464 100.48H128.646C129.458 100.48 130.055 100.658 130.438 101.012C130.83 101.367 131.026 101.936 131.026 102.72V105.24ZM129.836 102.44C129.836 102.151 129.747 101.927 129.57 101.768C129.392 101.61 129.131 101.53 128.786 101.53H128.324C127.978 101.53 127.717 101.61 127.54 101.768C127.362 101.927 127.274 102.151 127.274 102.44V105.52C127.274 105.81 127.362 106.034 127.54 106.192C127.717 106.351 127.978 106.43 128.324 106.43H128.786C129.131 106.43 129.392 106.351 129.57 106.192C129.747 106.034 129.836 105.81 129.836 105.52V102.44ZM140.845 107.48H139.011L138.129 103.686L137.163 107.48H135.371L133.971 100.48H135.203L136.337 106.584L137.583 101.74H138.773L139.935 106.584L141.069 100.48H142.231L140.845 107.48ZM145.45 100.48H146.57V100.816C146.86 100.592 147.233 100.48 147.69 100.48H148.054C148.81 100.48 149.37 100.658 149.734 101.012C150.108 101.367 150.294 101.936 150.294 102.72V107.48H149.104V102.44C149.104 102.16 149.02 101.941 148.852 101.782C148.694 101.614 148.474 101.53 148.194 101.53H147.55C147.242 101.53 147.014 101.614 146.864 101.782C146.715 101.941 146.64 102.114 146.64 102.3V107.48H145.45V100.48ZM153.794 101.88V100.48H155.194V101.88H153.794ZM153.794 107.48V106.08H155.194V107.48H153.794ZM164.115 107.48V106.43H165.809V98.7865L163.975 99.5145V98.3805L165.669 97.6805H166.999V106.43H168.385V107.48H164.115ZM171.825 106.248L173.925 103.056C174.233 102.59 174.439 102.268 174.541 102.09C174.644 101.904 174.714 101.722 174.751 101.544C174.789 101.367 174.807 101.11 174.807 100.774V99.7945C174.807 99.5051 174.7 99.2578 174.485 99.0525C174.271 98.8471 173.991 98.7445 173.645 98.7445H172.105V97.6805H173.505C174.317 97.6805 174.938 97.8811 175.367 98.2825C175.806 98.6745 176.025 99.2671 176.025 100.06V100.648C176.025 101.115 176.002 101.47 175.955 101.712C175.909 101.955 175.825 102.184 175.703 102.398C175.591 102.613 175.367 102.977 175.031 103.49L173.099 106.416H176.305V107.48H171.825V106.248ZM185.29 105.268C185.29 106.071 185.103 106.64 184.73 106.976C184.366 107.312 183.759 107.48 182.91 107.48H180.25V97.6805H182.742C183.572 97.6805 184.179 97.8485 184.562 98.1845C184.954 98.5205 185.15 99.0805 185.15 99.8645V100.662C185.15 101.381 184.893 101.922 184.38 102.286C184.986 102.622 185.29 103.196 185.29 104.008V105.268ZM183.932 99.7385C183.932 99.3838 183.848 99.1271 183.68 98.9685C183.521 98.8098 183.264 98.7305 182.91 98.7305H181.468V101.824H182.91C183.199 101.824 183.442 101.731 183.638 101.544C183.834 101.358 183.932 101.11 183.932 100.802V99.7385ZM184.072 103.882C184.072 103.574 183.978 103.332 183.792 103.154C183.605 102.968 183.358 102.874 183.05 102.874H181.468V106.43H183.036C183.39 106.43 183.652 106.351 183.82 106.192C183.988 106.024 184.072 105.763 184.072 105.408V103.882Z" fill="white"/>
<path d="M6.55033 27.2685C6.55033 28.0711 6.36366 28.6405 5.99033 28.9765C5.62633 29.3125 5.01966 29.4805 4.17033 29.4805H1.42633V19.6805H4.00233C4.84233 19.6805 5.477 19.8531 5.90633 20.1985C6.33566 20.5345 6.55033 21.0898 6.55033 21.8645V27.2685ZM5.33233 21.7385C5.33233 21.4305 5.239 21.1878 5.05233 21.0105C4.86566 20.8238 4.61833 20.7305 4.31033 20.7305H2.64433V28.4305H4.29633C4.65099 28.4305 4.91233 28.3511 5.08033 28.1925C5.24833 28.0245 5.33233 27.7631 5.33233 27.4085V21.7385ZM14.3955 29.4805C14.2741 29.4805 14.1388 29.4431 13.9895 29.3685C13.8495 29.2938 13.7281 29.1911 13.6255 29.0605C13.4108 29.3405 13.1261 29.4805 12.7715 29.4805H11.8055C11.0961 29.4805 10.5781 29.3405 10.2515 29.0605C9.93414 28.7711 9.77547 28.2811 9.77547 27.5905V27.3105C9.77547 25.8638 10.4568 25.1405 11.8195 25.1405H13.2755V24.4405C13.2755 24.1511 13.1868 23.9271 13.0095 23.7685C12.8321 23.6098 12.5708 23.5305 12.2255 23.5305H10.3355V22.4805H12.0855C12.8975 22.4805 13.4948 22.6578 13.8775 23.0125C14.2695 23.3671 14.4655 23.9365 14.4655 24.7205V28.0805C14.4655 28.2205 14.5168 28.3278 14.6195 28.4025C14.7315 28.4678 14.9135 28.5005 15.1655 28.5005V29.4805H14.3955ZM12.6315 28.4305C12.9115 28.4305 13.0888 28.3651 13.1635 28.2345C13.2381 28.1038 13.2755 27.9358 13.2755 27.7305V26.1905H11.8055C11.5628 26.1905 11.3621 26.2698 11.2035 26.4285C11.0448 26.5871 10.9655 26.7878 10.9655 27.0305V27.7305C10.9655 27.9731 11.0215 28.1505 11.1335 28.2625C11.2455 28.3745 11.4228 28.4305 11.6655 28.4305H12.6315ZM19.9216 29.4805C19.4456 29.4805 19.0816 29.3265 18.8296 29.0185C18.5776 28.7105 18.4516 28.3045 18.4516 27.8005V23.5305H17.5416V22.4805H18.4516V20.8005H19.6416V22.4805H21.2656V23.5305H19.6416V27.8705C19.6416 28.0758 19.693 28.2205 19.7956 28.3045C19.8983 28.3885 20.057 28.4305 20.2716 28.4305H21.2656V29.4805H19.9216ZM28.3993 29.4805C28.278 29.4805 28.1426 29.4431 27.9933 29.3685C27.8533 29.2938 27.732 29.1911 27.6293 29.0605C27.4146 29.3405 27.13 29.4805 26.7753 29.4805H25.8093C25.1 29.4805 24.582 29.3405 24.2553 29.0605C23.938 28.7711 23.7793 28.2811 23.7793 27.5905V27.3105C23.7793 25.8638 24.4606 25.1405 25.8233 25.1405H27.2793V24.4405C27.2793 24.1511 27.1906 23.9271 27.0133 23.7685C26.836 23.6098 26.5746 23.5305 26.2293 23.5305H24.3393V22.4805H26.0893C26.9013 22.4805 27.4986 22.6578 27.8813 23.0125C28.2733 23.3671 28.4693 23.9365 28.4693 24.7205V28.0805C28.4693 28.2205 28.5206 28.3278 28.6233 28.4025C28.7353 28.4678 28.9173 28.5005 29.1693 28.5005V29.4805H28.3993ZM26.6353 28.4305C26.9153 28.4305 27.0926 28.3651 27.1673 28.2345C27.242 28.1038 27.2793 27.9358 27.2793 27.7305V26.1905H25.8093C25.5666 26.1905 25.366 26.2698 25.2073 26.4285C25.0486 26.5871 24.9693 26.7878 24.9693 27.0305V27.7305C24.9693 27.9731 25.0253 28.1505 25.1373 28.2625C25.2493 28.3745 25.4266 28.4305 25.6693 28.4305H26.6353ZM41.8182 27.1005C41.8182 27.8938 41.5989 28.4911 41.1602 28.8925C40.7309 29.2845 40.1102 29.4805 39.2982 29.4805H37.4502V28.4165H39.4382C39.7835 28.4165 40.0635 28.3138 40.2782 28.1085C40.4929 27.9031 40.6002 27.6558 40.6002 27.3665V25.9105C40.6002 25.6305 40.5255 25.4065 40.3762 25.2385C40.2362 25.0611 40.0215 24.9725 39.7322 24.9725H39.4522C38.7615 24.9725 38.2155 24.7718 37.8142 24.3705C37.4129 23.9598 37.2122 23.3671 37.2122 22.5925V22.0605C37.2122 21.2671 37.4269 20.6745 37.8562 20.2825C38.2949 19.8811 38.9202 19.6805 39.7322 19.6805H41.5942V20.7445H39.5922C39.2469 20.7445 38.9669 20.8471 38.7522 21.0525C38.5375 21.2578 38.4302 21.5051 38.4302 21.7945V22.8585C38.4302 23.1478 38.5235 23.3905 38.7102 23.5865C38.8969 23.7731 39.1395 23.8665 39.4382 23.8665H39.7182C40.3809 23.8665 40.8942 24.0578 41.2582 24.4405C41.6315 24.8231 41.8182 25.4018 41.8182 26.1765V27.1005ZM47.8915 30.0965C47.7795 30.5165 47.6628 30.8525 47.5415 31.1045C47.4201 31.3658 47.2475 31.5665 47.0235 31.7065C46.8088 31.8558 46.5195 31.9305 46.1555 31.9305C45.9595 31.9305 45.6935 31.9025 45.3575 31.8465V30.8245C45.6188 30.8618 45.8615 30.8805 46.0855 30.8805C46.3468 30.8805 46.5335 30.6705 46.6455 30.2505L46.8695 29.4805H46.5895L44.4195 22.4805H45.7075L47.3315 28.2625L48.7035 22.4805H49.9215L47.8915 30.0965ZM53.0699 22.4805H54.1899V22.8165C54.4793 22.5925 54.8526 22.4805 55.3099 22.4805H55.6739C56.4299 22.4805 56.9899 22.6578 57.3539 23.0125C57.7273 23.3671 57.9139 23.9365 57.9139 24.7205V29.4805H56.7239V24.4405C56.7239 24.1605 56.6399 23.9411 56.4719 23.7825C56.3133 23.6145 56.0939 23.5305 55.8139 23.5305H55.1699C54.8619 23.5305 54.6333 23.6145 54.4839 23.7825C54.3346 23.9411 54.2599 24.1138 54.2599 24.3005V29.4805H53.0699V22.4805ZM63.8636 29.4805C63.0423 29.4805 62.4403 29.3078 62.0576 28.9625C61.6749 28.6078 61.4836 28.0338 61.4836 27.2405V24.7205C61.4836 23.9365 61.6749 23.3671 62.0576 23.0125C62.4496 22.6578 63.0516 22.4805 63.8636 22.4805H65.3896V23.5305H63.7236C63.3783 23.5305 63.1169 23.6098 62.9396 23.7685C62.7623 23.9271 62.6736 24.1511 62.6736 24.4405V27.5205C62.6736 27.8098 62.7623 28.0338 62.9396 28.1925C63.1169 28.3511 63.3783 28.4305 63.7236 28.4305H65.3896V29.4805H63.8636ZM68.5454 23.8805V22.4805H69.9454V23.8805H68.5454ZM68.5454 29.4805V28.0805H69.9454V29.4805H68.5454ZM82.5067 27.2965V29.4805H81.3167V27.2965H78.5447V26.0925L79.9307 19.6805H81.0647L79.7487 26.2745H81.3167V23.0825H82.5067V26.2745H83.4867V27.2965H82.5067ZM90.9308 27.2685C90.9308 28.0431 90.7442 28.6078 90.3708 28.9625C89.9975 29.3078 89.3908 29.4805 88.5508 29.4805H86.8568V28.4305H88.6768C89.0315 28.4305 89.2928 28.3511 89.4608 28.1925C89.6288 28.0245 89.7128 27.7631 89.7128 27.4085V25.6305C89.7128 25.3225 89.6195 25.0798 89.4328 24.9025C89.2462 24.7158 88.9988 24.6225 88.6908 24.6225H86.9968V19.6805H90.7208V20.7305H88.1868V23.5725H88.6208C89.3395 23.5725 89.9042 23.7498 90.3148 24.1045C90.7255 24.4591 90.9308 25.0098 90.9308 25.7565V27.2685ZM98.725 23.7125C98.725 24.3005 98.5757 24.7485 98.277 25.0565C97.9783 25.3551 97.5583 25.5045 97.017 25.5045H96.765C96.2237 25.5045 95.8037 25.3551 95.505 25.0565C95.2063 24.7485 95.057 24.3005 95.057 23.7125V21.4725C95.057 20.8845 95.2063 20.4411 95.505 20.1425C95.8037 19.8345 96.2237 19.6805 96.765 19.6805H97.017C97.5583 19.6805 97.9783 19.8345 98.277 20.1425C98.5757 20.4411 98.725 20.8845 98.725 21.4725V23.7125ZM98.725 29.4805H97.549L100.979 19.6805H102.071L98.725 29.4805ZM97.745 21.3185C97.745 21.0851 97.6843 20.8938 97.563 20.7445C97.4417 20.5951 97.2597 20.5205 97.017 20.5205H96.765C96.5223 20.5205 96.3403 20.5951 96.219 20.7445C96.0977 20.8938 96.037 21.0851 96.037 21.3185V23.8665C96.037 24.0998 96.0977 24.2911 96.219 24.4405C96.3403 24.5898 96.5223 24.6645 96.765 24.6645H97.017C97.2597 24.6645 97.4417 24.5898 97.563 24.4405C97.6843 24.2911 97.745 24.0998 97.745 23.8665V21.3185ZM104.521 27.6885C104.521 28.2765 104.372 28.7245 104.073 29.0325C103.774 29.3311 103.354 29.4805 102.813 29.4805H102.561C102.02 29.4805 101.6 29.3311 101.301 29.0325C101.002 28.7245 100.853 28.2765 100.853 27.6885V25.4485C100.853 24.8605 101.002 24.4171 101.301 24.1185C101.6 23.8105 102.02 23.6565 102.561 23.6565H102.813C103.354 23.6565 103.774 23.8105 104.073 24.1185C104.372 24.4171 104.521 24.8605 104.521 25.4485V27.6885ZM103.541 25.2945C103.541 25.0611 103.48 24.8698 103.359 24.7205C103.238 24.5711 103.056 24.4965 102.813 24.4965H102.561C102.318 24.4965 102.136 24.5711 102.015 24.7205C101.894 24.8698 101.833 25.0611 101.833 25.2945V27.8425C101.833 28.0758 101.894 28.2671 102.015 28.4165C102.136 28.5658 102.318 28.6405 102.561 28.6405H102.813C103.056 28.6405 103.238 28.5658 103.359 28.4165C103.48 28.2671 103.541 28.0758 103.541 27.8425V25.2945ZM115.878 29.4805C115.057 29.4805 114.455 29.3078 114.072 28.9625C113.689 28.6078 113.498 28.0338 113.498 27.2405V24.7205C113.498 23.9365 113.689 23.3671 114.072 23.0125C114.464 22.6578 115.066 22.4805 115.878 22.4805H117.404V23.5305H115.738C115.393 23.5305 115.131 23.6098 114.954 23.7685C114.777 23.9271 114.688 24.1511 114.688 24.4405V27.5205C114.688 27.8098 114.777 28.0338 114.954 28.1925C115.131 28.3511 115.393 28.4305 115.738 28.4305H117.404V29.4805H115.878ZM125.435 27.2405C125.435 28.0245 125.239 28.5938 124.847 28.9485C124.464 29.3031 123.867 29.4805 123.055 29.4805H122.873C122.061 29.4805 121.459 29.3031 121.067 28.9485C120.684 28.5938 120.493 28.0245 120.493 27.2405V24.7205C120.493 23.9365 120.684 23.3671 121.067 23.0125C121.459 22.6578 122.061 22.4805 122.873 22.4805H123.055C123.867 22.4805 124.464 22.6578 124.847 23.0125C125.239 23.3671 125.435 23.9365 125.435 24.7205V27.2405ZM124.245 24.4405C124.245 24.1511 124.156 23.9271 123.979 23.7685C123.802 23.6098 123.54 23.5305 123.195 23.5305H122.733C122.388 23.5305 122.126 23.6098 121.949 23.7685C121.772 23.9271 121.683 24.1511 121.683 24.4405V27.5205C121.683 27.8098 121.772 28.0338 121.949 28.1925C122.126 28.3511 122.388 28.4305 122.733 28.4305H123.195C123.54 28.4305 123.802 28.3511 123.979 28.1925C124.156 28.0338 124.245 27.8098 124.245 27.5205V24.4405ZM129.077 22.4805H130.197V22.8165C130.487 22.5925 130.86 22.4805 131.317 22.4805H131.401C132.251 22.4805 132.857 22.6951 133.221 23.1245C133.567 22.6951 134.047 22.4805 134.663 22.4805H134.747C135.503 22.4805 136.063 22.6578 136.427 23.0125C136.801 23.3671 136.987 23.9365 136.987 24.7205V29.4805H135.797V24.4405C135.797 24.1605 135.713 23.9411 135.545 23.7825C135.387 23.6145 135.167 23.5305 134.887 23.5305H134.523C134.234 23.5305 134.015 23.6191 133.865 23.7965C133.725 23.9645 133.646 24.1465 133.627 24.3425V29.4805H132.437V24.4405C132.437 24.1605 132.358 23.9411 132.199 23.7825C132.041 23.6145 131.821 23.5305 131.541 23.5305H131.177C130.879 23.5305 130.65 23.6098 130.491 23.7685C130.342 23.9178 130.267 24.0811 130.267 24.2585V29.4805H129.077V22.4805ZM140.694 22.4805H141.814V22.8165C142.103 22.5925 142.476 22.4805 142.934 22.4805H143.158C143.979 22.4805 144.581 22.6578 144.964 23.0125C145.346 23.3578 145.538 23.9271 145.538 24.7205V27.2405C145.538 28.0245 145.342 28.5938 144.95 28.9485C144.567 29.3031 143.97 29.4805 143.158 29.4805H141.884V31.8605H140.694V22.4805ZM142.794 23.5305C142.486 23.5305 142.257 23.6145 142.108 23.7825C141.958 23.9411 141.884 24.1138 141.884 24.3005V28.4305H143.298C143.643 28.4305 143.904 28.3511 144.082 28.1925C144.259 28.0338 144.348 27.8098 144.348 27.5205V24.4405C144.348 24.1511 144.259 23.9271 144.082 23.7685C143.904 23.6098 143.643 23.5305 143.298 23.5305H142.794ZM150.299 29.4805C149.981 29.4805 149.701 29.3685 149.459 29.1445C149.225 28.9205 149.109 28.5658 149.109 28.0805V19.6805H150.299V28.0105C150.299 28.1598 150.336 28.2671 150.411 28.3325C150.485 28.3978 150.611 28.4305 150.789 28.4305H151.069V29.4805H150.299ZM156.459 29.4805C155.637 29.4805 155.035 29.3078 154.653 28.9625C154.27 28.6078 154.079 28.0338 154.079 27.2405V24.7205C154.079 23.9178 154.251 23.3438 154.597 22.9985C154.942 22.6531 155.516 22.4805 156.319 22.4805H156.697C157.359 22.4805 157.859 22.6671 158.195 23.0405C158.54 23.4045 158.713 23.9411 158.713 24.6505V26.4705H155.269V27.5205C155.269 27.8098 155.357 28.0338 155.535 28.1925C155.712 28.3511 155.973 28.4305 156.319 28.4305H158.265V29.4805H156.459ZM157.551 25.4205V24.3705C157.551 24.1278 157.471 23.9271 157.313 23.7685C157.154 23.6098 156.953 23.5305 156.711 23.5305H156.179C155.843 23.5305 155.605 23.6098 155.465 23.7685C155.334 23.9178 155.269 24.1418 155.269 24.4405V25.4205H157.551ZM163.82 29.4805C163.344 29.4805 162.98 29.3265 162.728 29.0185C162.476 28.7105 162.35 28.3045 162.35 27.8005V23.5305H161.44V22.4805H162.35V20.8005H163.54V22.4805H165.164V23.5305H163.54V27.8705C163.54 28.0758 163.592 28.2205 163.694 28.3045C163.797 28.3885 163.956 28.4305 164.17 28.4305H165.164V29.4805H163.82ZM170.408 29.4805C169.587 29.4805 168.985 29.3078 168.602 28.9625C168.219 28.6078 168.028 28.0338 168.028 27.2405V24.7205C168.028 23.9178 168.201 23.3438 168.546 22.9985C168.891 22.6531 169.465 22.4805 170.268 22.4805H170.646C171.309 22.4805 171.808 22.6671 172.144 23.0405C172.489 23.4045 172.662 23.9411 172.662 24.6505V26.4705H169.218V27.5205C169.218 27.8098 169.307 28.0338 169.484 28.1925C169.661 28.3511 169.923 28.4305 170.268 28.4305H172.214V29.4805H170.408ZM171.5 25.4205V24.3705C171.5 24.1278 171.421 23.9271 171.262 23.7685C171.103 23.6098 170.903 23.5305 170.66 23.5305H170.128C169.792 23.5305 169.554 23.6098 169.414 23.7685C169.283 23.9178 169.218 24.1418 169.218 24.4405V25.4205H171.5Z" fill="white"/>
</svg>
