<svg width="273" height="231" viewBox="0 0 273 231" fill="none" xmlns="http://www.w3.org/2000/svg">
<path d="M249.236 86.4805H0.236145V87.4805H249.236V86.4805Z" fill="#F5F5F5"/>
<path d="M244.236 159.48H0.236145V160.48H244.236V159.48Z" fill="#F5F5F5"/>
<path d="M246.236 133.48H0.236145V140.97H246.236V133.48Z" stroke="#F5F5F5" stroke-width="0.472324" stroke-miterlimit="10"/>
<path d="M52.9952 133.48H0.236145V140.97H52.9952V133.48Z" fill="#F27C06"/>
<path d="M246.236 63.4805H0.236145V70.9701H246.236V63.4805Z" stroke="#F5F5F5" stroke-width="0.472324" stroke-miterlimit="10"/>
<path d="M236.236 63.4805H0.236145V70.4805H236.236V63.4805Z" fill="#F27C06"/>
<path d="M3.80615 187.48C2.99415 187.48 2.36881 187.284 1.93015 186.892C1.50081 186.491 1.28615 185.894 1.28615 185.1V180.06C1.28615 179.267 1.50081 178.674 1.93015 178.282C2.36881 177.881 2.99415 177.68 3.80615 177.68H5.69615V178.744H3.66615C3.32081 178.744 3.04081 178.847 2.82615 179.052C2.61148 179.258 2.50415 179.505 2.50415 179.794V185.366C2.50415 185.656 2.61148 185.903 2.82615 186.108C3.04081 186.314 3.32081 186.416 3.66615 186.416H4.95415V183.378H3.77815V182.328H6.11615V187.48H3.80615ZM13.7494 187.48C13.6281 187.48 13.4928 187.443 13.3434 187.368C13.2034 187.294 13.0821 187.191 12.9794 187.06C12.7648 187.34 12.4801 187.48 12.1254 187.48H11.1594C10.4501 187.48 9.93209 187.34 9.60543 187.06C9.28809 186.771 9.12943 186.281 9.12943 185.59V185.31C9.12943 183.864 9.81076 183.14 11.1734 183.14H12.6294V182.44C12.6294 182.151 12.5408 181.927 12.3634 181.768C12.1861 181.61 11.9248 181.53 11.5794 181.53H9.68943V180.48H11.4394C12.2514 180.48 12.8488 180.658 13.2314 181.012C13.6234 181.367 13.8194 181.936 13.8194 182.72V186.08C13.8194 186.22 13.8708 186.328 13.9734 186.402C14.0854 186.468 14.2674 186.5 14.5194 186.5V187.48H13.7494ZM11.9854 186.43C12.2654 186.43 12.4428 186.365 12.5174 186.234C12.5921 186.104 12.6294 185.936 12.6294 185.73V184.19H11.1594C10.9168 184.19 10.7161 184.27 10.5574 184.428C10.3988 184.587 10.3194 184.788 10.3194 185.03V185.73C10.3194 185.973 10.3754 186.15 10.4874 186.262C10.5994 186.374 10.7768 186.43 11.0194 186.43H11.9854ZM18.7156 187.48C18.3983 187.48 18.1183 187.368 17.8756 187.144C17.6423 186.92 17.5256 186.566 17.5256 186.08V177.68H18.7156V186.01C18.7156 186.16 18.7529 186.267 18.8276 186.332C18.9023 186.398 19.0283 186.43 19.2056 186.43H19.4856V187.48H18.7156ZM26.6256 187.48C26.5043 187.48 26.3689 187.443 26.2196 187.368C26.0796 187.294 25.9583 187.191 25.8556 187.06C25.6409 187.34 25.3563 187.48 25.0016 187.48H24.0356C23.3263 187.48 22.8083 187.34 22.4816 187.06C22.1643 186.771 22.0056 186.281 22.0056 185.59V185.31C22.0056 183.864 22.6869 183.14 24.0496 183.14H25.5056V182.44C25.5056 182.151 25.4169 181.927 25.2396 181.768C25.0623 181.61 24.8009 181.53 24.4556 181.53H22.5656V180.48H24.3156C25.1276 180.48 25.7249 180.658 26.1076 181.012C26.4996 181.367 26.6956 181.936 26.6956 182.72V186.08C26.6956 186.22 26.7469 186.328 26.8496 186.402C26.9616 186.468 27.1436 186.5 27.3956 186.5V187.48H26.6256ZM24.8616 186.43C25.1416 186.43 25.3189 186.365 25.3936 186.234C25.4683 186.104 25.5056 185.936 25.5056 185.73V184.19H24.0356C23.7929 184.19 23.5923 184.27 23.4336 184.428C23.2749 184.587 23.1956 184.788 23.1956 185.03V185.73C23.1956 185.973 23.2516 186.15 23.3636 186.262C23.4756 186.374 23.6529 186.43 23.8956 186.43H24.8616ZM33.9578 187.48L32.6278 184.89L31.2278 187.48H29.9118L31.9418 183.868L30.0798 180.48H31.4518L32.6558 182.79L33.8738 180.48H35.1758L33.2858 183.812L35.3578 187.48H33.9578ZM41.0712 188.096C40.9592 188.516 40.8425 188.852 40.7212 189.104C40.5999 189.366 40.4272 189.566 40.2032 189.706C39.9885 189.856 39.6992 189.93 39.3352 189.93C39.1392 189.93 38.8732 189.902 38.5372 189.846V188.824C38.7985 188.862 39.0412 188.88 39.2652 188.88C39.5265 188.88 39.7132 188.67 39.8252 188.25L40.0492 187.48H39.7692L37.5992 180.48H38.8872L40.5112 186.262L41.8832 180.48H43.1012L41.0712 188.096ZM50.6564 187.48V186.458H51.6364V178.702H50.6564V177.68H53.8344V178.702H52.8544V186.458H53.8344V187.48H50.6564ZM62.1837 185.268C62.1837 186.071 61.9971 186.64 61.6237 186.976C61.2597 187.312 60.6531 187.48 59.8037 187.48H57.0597V177.68H59.6357C60.4757 177.68 61.1104 177.853 61.5397 178.198C61.9691 178.534 62.1837 179.09 62.1837 179.864V185.268ZM60.9657 179.738C60.9657 179.43 60.8724 179.188 60.6857 179.01C60.4991 178.824 60.2517 178.73 59.9437 178.73H58.2777V186.43H59.9297C60.2844 186.43 60.5457 186.351 60.7137 186.192C60.8817 186.024 60.9657 185.763 60.9657 185.408V179.738ZM65.5489 181.88V180.48H66.9489V181.88H65.5489ZM65.5489 187.48V186.08H66.9489V187.48H65.5489ZM79.6782 185.1C79.6782 185.894 79.4588 186.491 79.0202 186.892C78.5908 187.284 77.9702 187.48 77.1582 187.48H75.3102V186.416H77.2982C77.6435 186.416 77.9235 186.314 78.1382 186.108C78.3528 185.903 78.4602 185.656 78.4602 185.366V183.91C78.4602 183.63 78.3855 183.406 78.2362 183.238C78.0962 183.061 77.8815 182.972 77.5922 182.972H77.3122C76.6215 182.972 76.0755 182.772 75.6742 182.37C75.2728 181.96 75.0722 181.367 75.0722 180.592V180.06C75.0722 179.267 75.2868 178.674 75.7162 178.282C76.1548 177.881 76.7802 177.68 77.5922 177.68H79.4542V178.744H77.4522C77.1068 178.744 76.8268 178.847 76.6122 179.052C76.3975 179.258 76.2902 179.505 76.2902 179.794V180.858C76.2902 181.148 76.3835 181.39 76.5702 181.586C76.7568 181.773 76.9995 181.866 77.2982 181.866H77.5782C78.2408 181.866 78.7542 182.058 79.1182 182.44C79.4915 182.823 79.6782 183.402 79.6782 184.176V185.1ZM88.0845 185.268C88.0845 186.071 87.8978 186.64 87.5245 186.976C87.1605 187.312 86.5538 187.48 85.7045 187.48H83.0445V177.68H85.5365C86.3672 177.68 86.9738 177.848 87.3565 178.184C87.7485 178.52 87.9445 179.08 87.9445 179.864V180.662C87.9445 181.381 87.6878 181.922 87.1745 182.286C87.7812 182.622 88.0845 183.196 88.0845 184.008V185.268ZM86.7265 179.738C86.7265 179.384 86.6425 179.127 86.4745 178.968C86.3158 178.81 86.0592 178.73 85.7045 178.73H84.2625V181.824H85.7045C85.9938 181.824 86.2365 181.731 86.4325 181.544C86.6285 181.358 86.7265 181.11 86.7265 180.802V179.738ZM86.8665 183.882C86.8665 183.574 86.7732 183.332 86.5865 183.154C86.3998 182.968 86.1525 182.874 85.8445 182.874H84.2625V186.43H85.8305C86.1852 186.43 86.4465 186.351 86.6145 186.192C86.7825 186.024 86.8665 185.763 86.8665 185.408V183.882ZM95.4049 187.48L93.8089 183.728L92.1289 187.48H90.8129L93.1929 182.412L91.0229 177.68H92.3529L93.8229 181.054L95.3349 177.68H96.6369L94.4249 182.398L96.7769 187.48H95.4049ZM99.2282 184.274V183.182H102.616V184.274H99.2282ZM109.508 185.296V187.48H108.318V185.296H105.546V184.092L106.932 177.68H108.066L106.75 184.274H108.318V181.082H109.508V184.274H110.488V185.296H109.508ZM115.524 187.48H114.278L116.616 178.73H113.508V177.68H117.778V179.038L115.524 187.48ZM121.414 186.248L123.514 183.056C123.822 182.59 124.028 182.268 124.13 182.09C124.233 181.904 124.303 181.722 124.34 181.544C124.378 181.367 124.396 181.11 124.396 180.774V179.794C124.396 179.505 124.289 179.258 124.074 179.052C123.86 178.847 123.58 178.744 123.234 178.744H121.694V177.68H123.094C123.906 177.68 124.527 177.881 124.956 178.282C125.395 178.674 125.614 179.267 125.614 180.06V180.648C125.614 181.115 125.591 181.47 125.544 181.712C125.498 181.955 125.414 182.184 125.292 182.398C125.18 182.613 124.956 182.977 124.62 183.49L122.688 186.416H125.894V187.48H121.414V186.248ZM129.418 180.06C129.418 179.295 129.628 178.707 130.048 178.296C130.468 177.886 130.996 177.68 131.63 177.68H131.98C132.615 177.68 133.142 177.886 133.562 178.296C133.982 178.707 134.192 179.295 134.192 180.06V185.1C134.192 185.894 133.978 186.491 133.548 186.892C133.128 187.284 132.512 187.48 131.7 187.48H130.23V186.416H131.84C132.186 186.416 132.466 186.314 132.68 186.108C132.895 185.903 133.002 185.656 133.002 185.366V183.84H131.77C130.968 183.84 130.375 183.663 129.992 183.308C129.61 182.954 129.418 182.384 129.418 181.6V180.06ZM133.002 179.794C133.002 179.496 132.904 179.244 132.708 179.038C132.512 178.833 132.246 178.73 131.91 178.73H131.7C131.364 178.73 131.098 178.833 130.902 179.038C130.706 179.244 130.608 179.496 130.608 179.794V181.866C130.608 182.156 130.692 182.384 130.86 182.552C131.038 182.711 131.294 182.79 131.63 182.79H133.002V179.794Z" fill="white"/>
<path d="M2.64415 2.70247V6.04847H5.66815V7.07047H2.64415V11.4805H1.42615V1.68047H6.01815V2.70247H2.64415ZM9.09825 2.94047V1.68047H10.4283V2.94047H9.09825ZM9.16825 11.4805V4.48047H10.3583V11.4805H9.16825ZM15.1199 11.4805C14.8026 11.4805 14.5226 11.3685 14.2799 11.1445C14.0466 10.9205 13.9299 10.5658 13.9299 10.0805V1.68047H15.1199V10.0105C15.1199 10.1598 15.1572 10.2671 15.2319 10.3325C15.3066 10.3978 15.4326 10.4305 15.6099 10.4305H15.8899V11.4805H15.1199ZM21.1399 11.4805C20.3186 11.4805 19.7166 11.3078 19.3339 10.9625C18.9512 10.6078 18.7599 10.0338 18.7599 9.24047V6.72047C18.7599 5.9178 18.9326 5.3438 19.2779 4.99847C19.6232 4.65314 20.1972 4.48047 20.9999 4.48047H21.3779C22.0406 4.48047 22.5399 4.66714 22.8759 5.04047C23.2212 5.40447 23.3939 5.94113 23.3939 6.65047V8.47047H19.9499V9.52047C19.9499 9.8098 20.0386 10.0338 20.2159 10.1925C20.3932 10.3511 20.6546 10.4305 20.9999 10.4305H22.9459V11.4805H21.1399ZM22.2319 7.42047V6.37047C22.2319 6.1278 22.1526 5.92714 21.9939 5.76847C21.8352 5.6098 21.6346 5.53047 21.3919 5.53047H20.8599C20.5239 5.53047 20.2859 5.6098 20.1459 5.76847C20.0152 5.9178 19.9499 6.1418 19.9499 6.44047V7.42047H22.2319ZM36.1141 9.10047C36.1141 9.8938 35.8948 10.4911 35.4561 10.8925C35.0268 11.2845 34.4061 11.4805 33.5941 11.4805H31.7461V10.4165H33.7341C34.0794 10.4165 34.3594 10.3138 34.5741 10.1085C34.7888 9.90314 34.8961 9.6558 34.8961 9.36647V7.91047C34.8961 7.63047 34.8214 7.40647 34.6721 7.23847C34.5321 7.06114 34.3174 6.97247 34.0281 6.97247H33.7481C33.0574 6.97247 32.5114 6.7718 32.1101 6.37047C31.7088 5.9598 31.5081 5.36714 31.5081 4.59247V4.06047C31.5081 3.26714 31.7228 2.67447 32.1521 2.28247C32.5908 1.88113 33.2161 1.68047 34.0281 1.68047H35.8901V2.74447H33.8881C33.5428 2.74447 33.2628 2.84714 33.0481 3.05247C32.8334 3.2578 32.7261 3.50513 32.7261 3.79447V4.85847C32.7261 5.1478 32.8194 5.39047 33.0061 5.58647C33.1928 5.77314 33.4354 5.86647 33.7341 5.86647H34.0141C34.6768 5.86647 35.1901 6.0578 35.5541 6.44047C35.9274 6.82314 36.1141 7.4018 36.1141 8.17647V9.10047ZM39.3404 2.94047V1.68047H40.6704V2.94047H39.3404ZM39.4104 11.4805V4.48047H40.6004V11.4805H39.4104ZM45.0401 10.4445H47.9241V11.4805H43.7521V10.3605L46.7901 5.51647H44.0321V4.48047H48.0641V5.72647L45.0401 10.4445ZM53.5286 11.4805C52.7072 11.4805 52.1052 11.3078 51.7226 10.9625C51.3399 10.6078 51.1486 10.0338 51.1486 9.24047V6.72047C51.1486 5.9178 51.3212 5.3438 51.6666 4.99847C52.0119 4.65314 52.5859 4.48047 53.3886 4.48047H53.7666C54.4292 4.48047 54.9286 4.66714 55.2646 5.04047C55.6099 5.40447 55.7826 5.94113 55.7826 6.65047V8.47047H52.3386V9.52047C52.3386 9.8098 52.4272 10.0338 52.6046 10.1925C52.7819 10.3511 53.0432 10.4305 53.3886 10.4305H55.3346V11.4805H53.5286ZM54.6206 7.42047V6.37047C54.6206 6.1278 54.5412 5.92714 54.3826 5.76847C54.2239 5.6098 54.0232 5.53047 53.7806 5.53047H53.2486C52.9126 5.53047 52.6746 5.6098 52.5346 5.76847C52.4039 5.9178 52.3386 6.1418 52.3386 6.44047V7.42047H54.6206ZM59 5.88047V4.48047H60.4V5.88047H59ZM59 11.4805V10.0805H60.4V11.4805H59ZM73.5493 9.26847C73.5493 10.0431 73.3627 10.6078 72.9893 10.9625C72.616 11.3078 72.0093 11.4805 71.1693 11.4805H70.9173C70.0773 11.4805 69.4707 11.3078 69.0973 10.9625C68.724 10.6078 68.5373 10.0431 68.5373 9.26847V8.09247C68.5373 7.28047 68.8407 6.70647 69.4473 6.37047C68.9527 6.02514 68.7053 5.4838 68.7053 4.74647V3.86447C68.7053 3.1178 68.9013 2.56714 69.2933 2.21247C69.6853 1.8578 70.2453 1.68047 70.9733 1.68047H71.1133C71.8413 1.68047 72.4013 1.8578 72.7933 2.21247C73.1853 2.56714 73.3813 3.1178 73.3813 3.86447V4.74647C73.3813 5.4838 73.134 6.02514 72.6393 6.37047C73.246 6.70647 73.5493 7.28047 73.5493 8.09247V9.26847ZM70.8053 2.73047C70.4973 2.73047 70.2733 2.81447 70.1333 2.98247C69.9933 3.15047 69.9233 3.40247 69.9233 3.73847V4.88647C69.9233 5.18514 70.0073 5.4278 70.1753 5.61447C70.3527 5.7918 70.572 5.8898 70.8333 5.90847H71.1693C71.4587 5.90847 71.6967 5.81514 71.8833 5.62847C72.07 5.4418 72.1633 5.19447 72.1633 4.88647V3.73847C72.1633 3.3838 72.084 3.12714 71.9253 2.96847C71.776 2.8098 71.524 2.73047 71.1693 2.73047H70.8053ZM72.3313 7.96647C72.3313 7.65847 72.238 7.4158 72.0513 7.23847C71.8647 7.0518 71.6173 6.95847 71.3093 6.95847H70.7773C70.4693 6.95847 70.222 7.0518 70.0353 7.23847C69.8487 7.4158 69.7553 7.65847 69.7553 7.96647V9.40847C69.7553 9.7538 69.83 10.0105 69.9793 10.1785C70.1287 10.3465 70.362 10.4305 70.6793 10.4305H71.2953C71.65 10.4305 71.9113 10.3511 72.0793 10.1925C72.2473 10.0245 72.3313 9.76314 72.3313 9.40847V7.96647ZM76.6395 11.4805V10.0805H78.0395V11.4805H76.6395ZM81.2661 4.06047C81.2661 3.29513 81.4761 2.70713 81.8961 2.29647C82.3161 1.8858 82.8434 1.68047 83.4781 1.68047H83.8281C84.4627 1.68047 84.9901 1.8858 85.4101 2.29647C85.8301 2.70713 86.0401 3.29513 86.0401 4.06047V9.10047C86.0401 9.8938 85.8254 10.4911 85.3961 10.8925C84.9761 11.2845 84.3601 11.4805 83.5481 11.4805H82.0781V10.4165H83.6881C84.0334 10.4165 84.3134 10.3138 84.5281 10.1085C84.7427 9.90314 84.8501 9.6558 84.8501 9.36647V7.84047H83.6181C82.8154 7.84047 82.2227 7.66314 81.8401 7.30847C81.4574 6.9538 81.2661 6.38447 81.2661 5.60047V4.06047ZM84.8501 3.79447C84.8501 3.4958 84.7521 3.2438 84.5561 3.03847C84.3601 2.83314 84.0941 2.73047 83.7581 2.73047H83.5481C83.2121 2.73047 82.9461 2.83314 82.7501 3.03847C82.5541 3.2438 82.4561 3.4958 82.4561 3.79447V5.86647C82.4561 6.1558 82.5401 6.38447 82.7081 6.55247C82.8854 6.71114 83.1421 6.79047 83.4781 6.79047H84.8501V3.79447ZM99.837 11.4805V2.68847L98.339 8.19047H97.177L95.679 2.68847V11.4805H94.559V1.68047H96.533L97.807 6.69247L99.067 1.68047H100.999V11.4805H99.837ZM109.817 9.26847C109.817 10.0711 109.631 10.6405 109.257 10.9765C108.893 11.3125 108.287 11.4805 107.437 11.4805H104.777V1.68047H107.269C108.1 1.68047 108.707 1.84847 109.089 2.18447C109.481 2.52047 109.677 3.08047 109.677 3.86447V4.66247C109.677 5.38114 109.421 5.92247 108.907 6.28647C109.514 6.62247 109.817 7.19647 109.817 8.00847V9.26847ZM108.459 3.73847C108.459 3.3838 108.375 3.12714 108.207 2.96847C108.049 2.8098 107.792 2.73047 107.437 2.73047H105.995V5.82447H107.437C107.727 5.82447 107.969 5.73114 108.165 5.54447C108.361 5.3578 108.459 5.11047 108.459 4.80247V3.73847ZM108.599 7.88247C108.599 7.57447 108.506 7.3318 108.319 7.15447C108.133 6.9678 107.885 6.87447 107.577 6.87447H105.995V10.4305H107.563C107.918 10.4305 108.179 10.3511 108.347 10.1925C108.515 10.0245 108.599 9.76314 108.599 9.40847V7.88247ZM118.137 4.41047C118.137 3.3278 118.273 2.45047 118.543 1.77847C118.823 1.10647 119.211 0.513801 119.705 0.000468016H120.937C120.489 0.541802 120.158 0.999135 119.943 1.37247C119.729 1.73647 119.57 2.14714 119.467 2.60447C119.374 3.0618 119.327 3.65447 119.327 4.38247V8.77847C119.327 9.50647 119.374 10.0991 119.467 10.5565C119.57 11.0138 119.729 11.4245 119.943 11.7885C120.158 12.1618 120.489 12.6191 120.937 13.1605H119.705C119.211 12.6471 118.823 12.0545 118.543 11.3825C118.273 10.7105 118.137 9.83314 118.137 8.75047V4.41047ZM128.432 11.4805C128.311 11.4805 128.175 11.4431 128.026 11.3685C127.886 11.2938 127.765 11.1911 127.662 11.0605C127.447 11.3405 127.163 11.4805 126.808 11.4805H125.842C125.133 11.4805 124.615 11.3405 124.288 11.0605C123.971 10.7711 123.812 10.2811 123.812 9.59047V9.31047C123.812 7.8638 124.493 7.14047 125.856 7.14047H127.312V6.44047C127.312 6.15114 127.223 5.92714 127.046 5.76847C126.869 5.6098 126.607 5.53047 126.262 5.53047H124.372V4.48047H126.122C126.934 4.48047 127.531 4.6578 127.914 5.01247C128.306 5.36714 128.502 5.93647 128.502 6.72047V10.0805C128.502 10.2205 128.553 10.3278 128.656 10.4025C128.768 10.4678 128.95 10.5005 129.202 10.5005V11.4805H128.432ZM126.668 10.4305C126.948 10.4305 127.125 10.3651 127.2 10.2345C127.275 10.1038 127.312 9.9358 127.312 9.73047V8.19047H125.842C125.599 8.19047 125.399 8.2698 125.24 8.42847C125.081 8.58714 125.002 8.7878 125.002 9.03047V9.73047C125.002 9.97314 125.058 10.1505 125.17 10.2625C125.282 10.3745 125.459 10.4305 125.702 10.4305H126.668ZM132.278 4.48047H133.398V4.85847C133.706 4.60647 134.079 4.48047 134.518 4.48047H135.54V5.60047H134.378C134.07 5.60047 133.841 5.70314 133.692 5.90847C133.543 6.1138 133.468 6.31447 133.468 6.51047V11.4805H132.278V4.48047ZM140.375 11.4805C139.554 11.4805 138.952 11.3078 138.569 10.9625C138.186 10.6078 137.995 10.0338 137.995 9.24047V6.72047C137.995 5.93647 138.186 5.36714 138.569 5.01247C138.961 4.6578 139.563 4.48047 140.375 4.48047H141.901V5.53047H140.235C139.89 5.53047 139.628 5.6098 139.451 5.76847C139.274 5.92714 139.185 6.15114 139.185 6.44047V9.52047C139.185 9.8098 139.274 10.0338 139.451 10.1925C139.628 10.3511 139.89 10.4305 140.235 10.4305H141.901V11.4805H140.375ZM145.127 1.68047H146.317V4.76047C146.597 4.5738 146.947 4.48047 147.367 4.48047H147.731C148.487 4.48047 149.047 4.6578 149.411 5.01247C149.784 5.36714 149.971 5.93647 149.971 6.72047V11.4805H148.781V6.44047C148.781 6.16047 148.697 5.94114 148.529 5.78247C148.37 5.61447 148.151 5.53047 147.871 5.53047H147.227C146.928 5.53047 146.7 5.6098 146.541 5.76847C146.392 5.9178 146.317 6.08114 146.317 6.25847V11.4805H145.127V1.68047ZM153.471 2.94047V1.68047H154.801V2.94047H153.471ZM153.541 11.4805V4.48047H154.731V11.4805H153.541ZM161.354 11.4805H159.632L157.742 4.48047H159.016L160.528 10.4865L161.998 4.48047H163.23L161.354 11.4805ZM170.369 11.4805C170.248 11.4805 170.112 11.4431 169.963 11.3685C169.823 11.2938 169.702 11.1911 169.599 11.0605C169.384 11.3405 169.1 11.4805 168.745 11.4805H167.779C167.07 11.4805 166.552 11.3405 166.225 11.0605C165.908 10.7711 165.749 10.2811 165.749 9.59047V9.31047C165.749 7.8638 166.43 7.14047 167.793 7.14047H169.249V6.44047C169.249 6.15114 169.16 5.92714 168.983 5.76847C168.806 5.6098 168.544 5.53047 168.199 5.53047H166.309V4.48047H168.059C168.871 4.48047 169.468 4.6578 169.851 5.01247C170.243 5.36714 170.439 5.93647 170.439 6.72047V10.0805C170.439 10.2205 170.49 10.3278 170.593 10.4025C170.705 10.4678 170.887 10.5005 171.139 10.5005V11.4805H170.369ZM168.605 10.4305C168.885 10.4305 169.062 10.3651 169.137 10.2345C169.212 10.1038 169.249 9.9358 169.249 9.73047V8.19047H167.779C167.536 8.19047 167.336 8.2698 167.177 8.42847C167.018 8.58714 166.939 8.7878 166.939 9.03047V9.73047C166.939 9.97314 166.995 10.1505 167.107 10.2625C167.219 10.3745 167.396 10.4305 167.639 10.4305H168.605ZM175.335 11.4805C175.018 11.4805 174.738 11.3685 174.495 11.1445C174.262 10.9205 174.145 10.5658 174.145 10.0805V1.68047H175.335V10.0105C175.335 10.1598 175.372 10.2671 175.447 10.3325C175.522 10.3978 175.648 10.4305 175.825 10.4305H176.105V11.4805H175.335ZM184.152 4.48047H185.272V4.85847C185.58 4.60647 185.953 4.48047 186.392 4.48047H187.414V5.60047H186.252C185.944 5.60047 185.715 5.70314 185.566 5.90847C185.417 6.1138 185.342 6.31447 185.342 6.51047V11.4805H184.152V4.48047ZM192.249 11.4805C191.428 11.4805 190.826 11.3078 190.443 10.9625C190.06 10.6078 189.869 10.0338 189.869 9.24047V6.72047C189.869 5.9178 190.042 5.3438 190.387 4.99847C190.732 4.65314 191.306 4.48047 192.109 4.48047H192.487C193.15 4.48047 193.649 4.66714 193.985 5.04047C194.33 5.40447 194.503 5.94113 194.503 6.65047V8.47047H191.059V9.52047C191.059 9.8098 191.148 10.0338 191.325 10.1925C191.502 10.3511 191.764 10.4305 192.109 10.4305H194.055V11.4805H192.249ZM193.341 7.42047V6.37047C193.341 6.1278 193.262 5.92714 193.103 5.76847C192.944 5.6098 192.744 5.53047 192.501 5.53047H191.969C191.633 5.53047 191.395 5.6098 191.255 5.76847C191.124 5.9178 191.059 6.1418 191.059 6.44047V7.42047H193.341ZM200.17 11.4805C199.349 11.4805 198.747 11.3078 198.364 10.9625C197.982 10.6078 197.79 10.0338 197.79 9.24047V6.72047C197.79 5.93647 197.982 5.36714 198.364 5.01247C198.756 4.6578 199.358 4.48047 200.17 4.48047H201.696V5.53047H200.03C199.685 5.53047 199.424 5.6098 199.246 5.76847C199.069 5.92714 198.98 6.15114 198.98 6.44047V9.52047C198.98 9.8098 199.069 10.0338 199.246 10.1925C199.424 10.3511 199.685 10.4305 200.03 10.4305H201.696V11.4805H200.17ZM209.587 9.24047C209.587 10.0245 209.391 10.5938 208.999 10.9485C208.617 11.3031 208.019 11.4805 207.207 11.4805H207.025C206.213 11.4805 205.611 11.3031 205.219 10.9485C204.837 10.5938 204.645 10.0245 204.645 9.24047V6.72047C204.645 5.93647 204.837 5.36714 205.219 5.01247C205.611 4.6578 206.213 4.48047 207.025 4.48047H207.207C208.019 4.48047 208.617 4.6578 208.999 5.01247C209.391 5.36714 209.587 5.93647 209.587 6.72047V9.24047ZM208.397 6.44047C208.397 6.15114 208.309 5.92714 208.131 5.76847C207.954 5.6098 207.693 5.53047 207.347 5.53047H206.885C206.54 5.53047 206.279 5.6098 206.101 5.76847C205.924 5.92714 205.835 6.15114 205.835 6.44047V9.52047C205.835 9.8098 205.924 10.0338 206.101 10.1925C206.279 10.3511 206.54 10.4305 206.885 10.4305H207.347C207.693 10.4305 207.954 10.3511 208.131 10.1925C208.309 10.0338 208.397 9.8098 208.397 9.52047V6.44047ZM213.09 4.48047H214.21V4.85847C214.518 4.60647 214.891 4.48047 215.33 4.48047H216.352V5.60047H215.19C214.882 5.60047 214.653 5.70314 214.504 5.90847C214.354 6.1138 214.28 6.31447 214.28 6.51047V11.4805H213.09V4.48047ZM222.601 11.1585C222.293 11.3731 221.919 11.4805 221.481 11.4805H221.187C220.365 11.4805 219.763 11.3078 219.381 10.9625C218.998 10.6078 218.807 10.0338 218.807 9.24047V6.72047C218.807 5.93647 218.998 5.36714 219.381 5.01247C219.773 4.6578 220.375 4.48047 221.187 4.48047H222.531V1.68047H223.721V11.4805H222.601V11.1585ZM221.621 10.4305C221.929 10.4305 222.157 10.3511 222.307 10.1925C222.456 10.0245 222.531 9.84714 222.531 9.66047V5.53047H221.047C220.701 5.53047 220.44 5.6098 220.263 5.76847C220.085 5.92714 219.997 6.15114 219.997 6.44047V9.52047C219.997 9.8098 220.085 10.0338 220.263 10.1925C220.44 10.3511 220.701 10.4305 221.047 10.4305H221.621ZM229.88 8.75047C229.88 9.83314 229.74 10.7105 229.46 11.3825C229.19 12.0545 228.807 12.6471 228.312 13.1605H227.08C227.528 12.6191 227.86 12.1618 228.074 11.7885C228.289 11.4245 228.443 11.0138 228.536 10.5565C228.639 10.0991 228.69 9.50647 228.69 8.77847V4.38247C228.69 3.65447 228.639 3.0618 228.536 2.60447C228.443 2.14714 228.289 1.73647 228.074 1.37247C227.86 0.999135 227.528 0.541802 227.08 0.000468016H228.312C228.807 0.513801 229.19 1.10647 229.46 1.77847C229.74 2.45047 229.88 3.3278 229.88 4.41047V8.75047Z" fill="white"/>
<path d="M3.80615 207.48C2.99415 207.48 2.36881 207.284 1.93015 206.892C1.50081 206.491 1.28615 205.894 1.28615 205.1V200.06C1.28615 199.267 1.50081 198.674 1.93015 198.282C2.36881 197.881 2.99415 197.68 3.80615 197.68H5.51415V198.744H3.66615C3.32081 198.744 3.04081 198.847 2.82615 199.052C2.61148 199.258 2.50415 199.505 2.50415 199.794V205.366C2.50415 205.656 2.61148 205.903 2.82615 206.108C3.04081 206.314 3.32081 206.416 3.66615 206.416H5.51415V207.48H3.80615ZM13.3993 205.24C13.3993 206.024 13.2033 206.594 12.8113 206.948C12.4287 207.303 11.8313 207.48 11.0193 207.48H10.8373C10.0253 207.48 9.42332 207.303 9.03132 206.948C8.64865 206.594 8.45732 206.024 8.45732 205.24V202.72C8.45732 201.936 8.64865 201.367 9.03132 201.012C9.42332 200.658 10.0253 200.48 10.8373 200.48H11.0193C11.8313 200.48 12.4287 200.658 12.8113 201.012C13.2033 201.367 13.3993 201.936 13.3993 202.72V205.24ZM12.2093 202.44C12.2093 202.151 12.1207 201.927 11.9433 201.768C11.766 201.61 11.5047 201.53 11.1593 201.53H10.6973C10.352 201.53 10.0907 201.61 9.91332 201.768C9.73598 201.927 9.64732 202.151 9.64732 202.44V205.52C9.64732 205.81 9.73598 206.034 9.91332 206.192C10.0907 206.351 10.352 206.43 10.6973 206.43H11.1593C11.5047 206.43 11.766 206.351 11.9433 206.192C12.1207 206.034 12.2093 205.81 12.2093 205.52V202.44ZM21.8436 205.24C21.8436 206.024 21.6476 206.594 21.2556 206.948C20.8729 207.303 20.2756 207.48 19.4636 207.48H19.2816C18.4696 207.48 17.8676 207.303 17.4756 206.948C17.0929 206.594 16.9016 206.024 16.9016 205.24V202.72C16.9016 201.936 17.0929 201.367 17.4756 201.012C17.8676 200.658 18.4696 200.48 19.2816 200.48H19.4636C20.2756 200.48 20.8729 200.658 21.2556 201.012C21.6476 201.367 21.8436 201.936 21.8436 202.72V205.24ZM20.6536 202.44C20.6536 202.151 20.5649 201.927 20.3876 201.768C20.2103 201.61 19.9489 201.53 19.6036 201.53H19.1416C18.7963 201.53 18.5349 201.61 18.3576 201.768C18.1803 201.927 18.0916 202.151 18.0916 202.44V205.52C18.0916 205.81 18.1803 206.034 18.3576 206.192C18.5349 206.351 18.7963 206.43 19.1416 206.43H19.6036C19.9489 206.43 20.2103 206.351 20.3876 206.192C20.5649 206.034 20.6536 205.81 20.6536 205.52V202.44ZM25.4859 200.48H26.6059V200.858C26.9139 200.606 27.2872 200.48 27.7259 200.48H28.7479V201.6H27.5859C27.2779 201.6 27.0492 201.703 26.8999 201.908C26.7506 202.114 26.6759 202.314 26.6759 202.51V207.48H25.4859V200.48ZM35.1369 207.158C34.8289 207.373 34.4556 207.48 34.0169 207.48H33.7229C32.9016 207.48 32.2996 207.308 31.9169 206.962C31.5343 206.608 31.3429 206.034 31.3429 205.24V202.72C31.3429 201.936 31.5343 201.367 31.9169 201.012C32.3089 200.658 32.9109 200.48 33.7229 200.48H35.0669V197.68H36.2569V207.48H35.1369V207.158ZM34.1569 206.43C34.4649 206.43 34.6936 206.351 34.8429 206.192C34.9923 206.024 35.0669 205.847 35.0669 205.66V201.53H33.5829C33.2376 201.53 32.9763 201.61 32.7989 201.768C32.6216 201.927 32.5329 202.151 32.5329 202.44V205.52C32.5329 205.81 32.6216 206.034 32.7989 206.192C32.9763 206.351 33.2376 206.43 33.5829 206.43H34.1569ZM39.9666 198.94V197.68H41.2966V198.94H39.9666ZM40.0366 207.48V200.48H41.2266V207.48H40.0366ZM45.0083 200.48H46.1283V200.816C46.4176 200.592 46.7909 200.48 47.2483 200.48H47.6123C48.3683 200.48 48.9283 200.658 49.2923 201.012C49.6656 201.367 49.8523 201.936 49.8523 202.72V207.48H48.6623V202.44C48.6623 202.16 48.5783 201.941 48.4103 201.782C48.2516 201.614 48.0323 201.53 47.7523 201.53H47.1083C46.8003 201.53 46.5716 201.614 46.4223 201.782C46.2729 201.941 46.1983 202.114 46.1983 202.3V207.48H45.0083V200.48ZM57.6919 207.48C57.5706 207.48 57.4353 207.443 57.2859 207.368C57.1459 207.294 57.0246 207.191 56.9219 207.06C56.7073 207.34 56.4226 207.48 56.0679 207.48H55.1019C54.3926 207.48 53.8746 207.34 53.5479 207.06C53.2306 206.771 53.0719 206.281 53.0719 205.59V205.31C53.0719 203.864 53.7533 203.14 55.1159 203.14H56.5719V202.44C56.5719 202.151 56.4833 201.927 56.3059 201.768C56.1286 201.61 55.8673 201.53 55.5219 201.53H53.6319V200.48H55.3819C56.1939 200.48 56.7913 200.658 57.1739 201.012C57.5659 201.367 57.7619 201.936 57.7619 202.72V206.08C57.7619 206.22 57.8133 206.328 57.9159 206.402C58.0279 206.468 58.2099 206.5 58.4619 206.5V207.48H57.6919ZM55.9279 206.43C56.2079 206.43 56.3853 206.365 56.4599 206.234C56.5346 206.104 56.5719 205.936 56.5719 205.73V204.19H55.1019C54.8593 204.19 54.6586 204.27 54.4999 204.428C54.3413 204.587 54.2619 204.788 54.2619 205.03V205.73C54.2619 205.973 54.3179 206.15 54.4299 206.262C54.5419 206.374 54.7193 206.43 54.9619 206.43H55.9279ZM63.2181 207.48C62.7421 207.48 62.3781 207.326 62.1261 207.018C61.8741 206.71 61.7481 206.304 61.7481 205.8V201.53H60.8381V200.48H61.7481V198.8H62.9381V200.48H64.5621V201.53H62.9381V205.87C62.9381 206.076 62.9894 206.22 63.0921 206.304C63.1948 206.388 63.3534 206.43 63.5681 206.43H64.5621V207.48H63.2181ZM69.8058 207.48C68.9844 207.48 68.3824 207.308 67.9998 206.962C67.6171 206.608 67.4258 206.034 67.4258 205.24V202.72C67.4258 201.918 67.5984 201.344 67.9438 200.998C68.2891 200.653 68.8631 200.48 69.6658 200.48H70.0438C70.7064 200.48 71.2058 200.667 71.5418 201.04C71.8871 201.404 72.0598 201.941 72.0598 202.65V204.47H68.6158V205.52C68.6158 205.81 68.7044 206.034 68.8818 206.192C69.0591 206.351 69.3204 206.43 69.6658 206.43H71.6118V207.48H69.8058ZM70.8978 203.42V202.37C70.8978 202.128 70.8184 201.927 70.6598 201.768C70.5011 201.61 70.3004 201.53 70.0578 201.53H69.5258C69.1898 201.53 68.9518 201.61 68.8118 201.768C68.6811 201.918 68.6158 202.142 68.6158 202.44V203.42H70.8978ZM79.3232 205.73C79.3232 206.318 79.1412 206.757 78.7772 207.046C78.4226 207.336 77.9046 207.48 77.2232 207.48H75.4172V206.43H77.3632C77.6152 206.43 77.8066 206.379 77.9372 206.276C78.0679 206.164 78.1332 206.006 78.1332 205.8V205.058C78.1332 204.638 77.9326 204.428 77.5312 204.428H77.2932C76.6399 204.428 76.1499 204.288 75.8232 204.008C75.5059 203.719 75.3472 203.266 75.3472 202.65V202.244C75.3472 201.619 75.5246 201.171 75.8792 200.9C76.2339 200.62 76.7566 200.48 77.4472 200.48H79.0432V201.53H77.3072C77.0739 201.53 76.8872 201.586 76.7472 201.698C76.6072 201.801 76.5372 201.955 76.5372 202.16V202.664C76.5372 202.879 76.5979 203.038 76.7192 203.14C76.8499 203.243 77.0132 203.294 77.2092 203.294H77.4052C78.0306 203.294 78.5066 203.448 78.8332 203.756C79.1599 204.055 79.3232 204.503 79.3232 205.1V205.73ZM82.549 201.88V200.48H83.949V201.88H82.549ZM82.549 207.48V206.08H83.949V207.48H82.549ZM95.2363 203.42H93.9903V207.48H92.7723V197.68H95.2783C96.0716 197.68 96.669 197.858 97.0703 198.212C97.481 198.558 97.6863 199.108 97.6863 199.864V201.208C97.6863 202.263 97.2663 202.921 96.4263 203.182L98.3723 207.48H97.0423L95.2363 203.42ZM96.4683 199.738C96.4683 199.384 96.3843 199.127 96.2163 198.968C96.0576 198.81 95.801 198.73 95.4463 198.73H93.9903V202.37H95.4463C95.801 202.37 96.0576 202.291 96.2163 202.132C96.3843 201.964 96.4683 201.703 96.4683 201.348V199.738ZM105.8 207.48L105.268 205.002H102.538L101.992 207.48H100.746L103.112 197.68H104.722L107.046 207.48H105.8ZM103.896 198.604L102.762 203.952H105.044L103.896 198.604ZM109.846 201.88V200.48H111.246V201.88H109.846ZM109.846 207.48V206.08H111.246V207.48H109.846ZM120.167 207.48V206.43H121.861V198.786L120.027 199.514V198.38L121.721 197.68H123.051V206.43H124.437V207.48H120.167ZM132.203 205.268C132.203 206.043 132.017 206.608 131.643 206.962C131.27 207.308 130.663 207.48 129.823 207.48H128.171V206.43H129.949C130.304 206.43 130.565 206.351 130.733 206.192C130.901 206.024 130.985 205.763 130.985 205.408V203.966C130.985 203.658 130.892 203.416 130.705 203.238C130.519 203.052 130.271 202.958 129.963 202.958H128.605V201.908H129.823C130.113 201.908 130.355 201.815 130.551 201.628C130.747 201.442 130.845 201.194 130.845 200.886V199.738C130.845 199.384 130.761 199.127 130.593 198.968C130.435 198.81 130.178 198.73 129.823 198.73H128.171V197.68H129.655C130.449 197.68 131.046 197.858 131.447 198.212C131.858 198.558 132.063 199.108 132.063 199.864V200.746C132.063 201.465 131.807 202.006 131.293 202.37C131.9 202.706 132.203 203.28 132.203 204.092V205.268ZM136.231 197.68H137.421V200.76C137.701 200.574 138.051 200.48 138.471 200.48H138.835C139.591 200.48 140.151 200.658 140.515 201.012C140.889 201.367 141.075 201.936 141.075 202.72V207.48H139.885V202.44C139.885 202.16 139.801 201.941 139.633 201.782C139.475 201.614 139.255 201.53 138.975 201.53H138.331C138.033 201.53 137.804 201.61 137.645 201.768C137.496 201.918 137.421 202.081 137.421 202.258V207.48H136.231V197.68ZM149.724 206.248L151.824 203.056C152.132 202.59 152.337 202.268 152.44 202.09C152.542 201.904 152.612 201.722 152.65 201.544C152.687 201.367 152.706 201.11 152.706 200.774V199.794C152.706 199.505 152.598 199.258 152.384 199.052C152.169 198.847 151.889 198.744 151.544 198.744H150.004V197.68H151.404C152.216 197.68 152.836 197.881 153.266 198.282C153.704 198.674 153.924 199.267 153.924 200.06V200.648C153.924 201.115 153.9 201.47 153.854 201.712C153.807 201.955 153.723 202.184 153.602 202.398C153.49 202.613 153.266 202.977 152.93 203.49L150.998 206.416H154.204V207.48H149.724V206.248ZM157.868 200.06C157.868 199.295 158.078 198.707 158.498 198.296C158.918 197.886 159.445 197.68 160.08 197.68H160.43C161.065 197.68 161.592 197.886 162.012 198.296C162.432 198.707 162.642 199.295 162.642 200.06V205.1C162.642 205.894 162.427 206.491 161.998 206.892C161.578 207.284 160.962 207.48 160.15 207.48H158.68V206.416H160.29C160.635 206.416 160.915 206.314 161.13 206.108C161.345 205.903 161.452 205.656 161.452 205.366V203.84H160.22C159.417 203.84 158.825 203.663 158.442 203.308C158.059 202.954 157.868 202.384 157.868 201.6V200.06ZM161.452 199.794C161.452 199.496 161.354 199.244 161.158 199.038C160.962 198.833 160.696 198.73 160.36 198.73H160.15C159.814 198.73 159.548 198.833 159.352 199.038C159.156 199.244 159.058 199.496 159.058 199.794V201.866C159.058 202.156 159.142 202.384 159.31 202.552C159.487 202.711 159.744 202.79 160.08 202.79H161.452V199.794ZM166.194 200.48H167.314V200.816C167.603 200.592 167.977 200.48 168.434 200.48H168.518C169.367 200.48 169.974 200.695 170.338 201.124C170.683 200.695 171.164 200.48 171.78 200.48H171.864C172.62 200.48 173.18 200.658 173.544 201.012C173.917 201.367 174.104 201.936 174.104 202.72V207.48H172.914V202.44C172.914 202.16 172.83 201.941 172.662 201.782C172.503 201.614 172.284 201.53 172.004 201.53H171.64C171.351 201.53 171.131 201.619 170.982 201.796C170.842 201.964 170.763 202.146 170.744 202.342V207.48H169.554V202.44C169.554 202.16 169.475 201.941 169.316 201.782C169.157 201.614 168.938 201.53 168.658 201.53H168.294C167.995 201.53 167.767 201.61 167.608 201.768C167.459 201.918 167.384 202.081 167.384 202.258V207.48H166.194V200.48ZM187.103 205.268C187.103 206.043 186.916 206.608 186.543 206.962C186.17 207.308 185.563 207.48 184.723 207.48H183.029V206.43H184.849C185.204 206.43 185.465 206.351 185.633 206.192C185.801 206.024 185.885 205.763 185.885 205.408V203.63C185.885 203.322 185.792 203.08 185.605 202.902C185.418 202.716 185.171 202.622 184.863 202.622H183.169V197.68H186.893V198.73H184.359V201.572H184.793C185.512 201.572 186.076 201.75 186.487 202.104C186.898 202.459 187.103 203.01 187.103 203.756V205.268ZM190.865 206.248L192.965 203.056C193.273 202.59 193.479 202.268 193.581 202.09C193.684 201.904 193.754 201.722 193.791 201.544C193.829 201.367 193.847 201.11 193.847 200.774V199.794C193.847 199.505 193.74 199.258 193.525 199.052C193.311 198.847 193.031 198.744 192.685 198.744H191.145V197.68H192.545C193.357 197.68 193.978 197.881 194.407 198.282C194.846 198.674 195.065 199.267 195.065 200.06V200.648C195.065 201.115 195.042 201.47 194.995 201.712C194.949 201.955 194.865 202.184 194.743 202.398C194.631 202.613 194.407 202.977 194.071 203.49L192.139 206.416H195.345V207.48H190.865V206.248ZM199.009 207.48V206.08H200.409V207.48H199.009ZM205.41 207.48H204.164L206.502 198.73H203.394V197.68H207.664V199.038L205.41 207.48ZM215.374 205.73C215.374 206.318 215.192 206.757 214.828 207.046C214.474 207.336 213.956 207.48 213.274 207.48H211.468V206.43H213.414C213.666 206.43 213.858 206.379 213.988 206.276C214.119 206.164 214.184 206.006 214.184 205.8V205.058C214.184 204.638 213.984 204.428 213.582 204.428H213.344C212.691 204.428 212.201 204.288 211.874 204.008C211.557 203.719 211.398 203.266 211.398 202.65V202.244C211.398 201.619 211.576 201.171 211.93 200.9C212.285 200.62 212.808 200.48 213.498 200.48H215.094V201.53H213.358C213.125 201.53 212.938 201.586 212.798 201.698C212.658 201.801 212.588 201.955 212.588 202.16V202.664C212.588 202.879 212.649 203.038 212.77 203.14C212.901 203.243 213.064 203.294 213.26 203.294H213.456C214.082 203.294 214.558 203.448 214.884 203.756C215.211 204.055 215.374 204.503 215.374 205.1V205.73ZM6.55015 221.268C6.55015 222.071 6.36348 222.64 5.99015 222.976C5.62615 223.312 5.01948 223.48 4.17015 223.48H1.42615V213.68H4.00215C4.84215 213.68 5.47681 213.853 5.90615 214.198C6.33548 214.534 6.55015 215.09 6.55015 215.864V221.268ZM5.33215 215.738C5.33215 215.43 5.23881 215.188 5.05215 215.01C4.86548 214.824 4.61815 214.73 4.31015 214.73H2.64415V222.43H4.29615C4.65081 222.43 4.91215 222.351 5.08015 222.192C5.24815 222.024 5.33215 221.763 5.33215 221.408V215.738ZM10.3353 223.48V213.68H14.9273V214.702H11.5533V217.908H14.5773V218.93H11.5533V222.458H14.9273V223.48H10.3353ZM20.8725 223.48C20.0605 223.48 19.4351 223.284 18.9965 222.892C18.5671 222.491 18.3525 221.894 18.3525 221.1V216.06C18.3525 215.267 18.5671 214.674 18.9965 214.282C19.4351 213.881 20.0605 213.68 20.8725 213.68H22.5805V214.744H20.7325C20.3871 214.744 20.1071 214.847 19.8925 215.052C19.6778 215.258 19.5705 215.505 19.5705 215.794V221.366C19.5705 221.656 19.6778 221.903 19.8925 222.108C20.1071 222.314 20.3871 222.416 20.7325 222.416H22.5805V223.48H20.8725ZM25.5904 217.88V216.48H26.9904V217.88H25.5904ZM25.5904 223.48V222.08H26.9904V223.48H25.5904ZM39.0336 219.63V221.828H37.9136V219.63H35.7996V218.58H37.9136V216.368H39.0336V218.58H41.1336V219.63H39.0336ZM48.7889 221.296V223.48H47.5989V221.296H44.8269V220.092L46.2129 213.68H47.3469L46.0309 220.274H47.5989V217.082H48.7889V220.274H49.7689V221.296H48.7889ZM54.9451 223.48H53.6991L56.0371 214.73H52.9291V213.68H57.1991V215.038L54.9451 223.48ZM64.6153 216.256C64.6153 216.798 64.4473 217.213 64.1113 217.502C63.7753 217.782 63.3506 217.922 62.8373 217.922H62.4453C61.9319 217.922 61.5073 217.782 61.1713 217.502C60.8353 217.213 60.6673 216.798 60.6673 216.256V215.332C60.6673 214.791 60.8306 214.38 61.1573 214.1C61.4933 213.811 61.9226 213.666 62.4453 213.666H62.8373C63.3599 213.666 63.7846 213.811 64.1113 214.1C64.4473 214.38 64.6153 214.791 64.6153 215.332V216.256ZM63.6493 215.29C63.6493 215.085 63.5699 214.908 63.4113 214.758C63.2619 214.609 63.0706 214.534 62.8373 214.534H62.4453C62.2119 214.534 62.0159 214.609 61.8573 214.758C61.7079 214.908 61.6333 215.085 61.6333 215.29V216.298C61.6333 216.504 61.7079 216.681 61.8573 216.83C62.0159 216.98 62.2119 217.054 62.4453 217.054H62.8373C63.0706 217.054 63.2619 216.98 63.4113 216.83C63.5699 216.681 63.6493 216.504 63.6493 216.298V215.29ZM73.1839 223.48V222.43H74.8779V214.786L73.0439 215.514V214.38L74.7379 213.68H76.0679V222.43H77.4539V223.48H73.1839ZM81.3001 223.48V222.43H82.9941V214.786L81.1601 215.514V214.38L82.8541 213.68H84.1841V222.43H85.5701V223.48H81.3001ZM90.4803 213.484H91.7403L89.4863 217.096H88.6743L90.4803 213.484ZM103.027 221.296V223.48H101.837V221.296H99.0649V220.092L100.451 213.68H101.585L100.269 220.274H101.837V217.082H103.027V220.274H104.007V221.296H103.027ZM111.423 221.268C111.423 222.043 111.236 222.608 110.863 222.962C110.49 223.308 109.883 223.48 109.043 223.48H107.391V222.43H109.169C109.524 222.43 109.785 222.351 109.953 222.192C110.121 222.024 110.205 221.763 110.205 221.408V219.966C110.205 219.658 110.112 219.416 109.925 219.238C109.738 219.052 109.491 218.958 109.183 218.958H107.825V217.908H109.043C109.332 217.908 109.575 217.815 109.771 217.628C109.967 217.442 110.065 217.194 110.065 216.886V215.738C110.065 215.384 109.981 215.127 109.813 214.968C109.654 214.81 109.398 214.73 109.043 214.73H107.391V213.68H108.875C109.668 213.68 110.266 213.858 110.667 214.212C111.078 214.558 111.283 215.108 111.283 215.864V216.746C111.283 217.465 111.026 218.006 110.513 218.37C111.12 218.706 111.423 219.28 111.423 220.092V221.268ZM115.941 217.138H114.961L115.381 214.94V213.68H116.711V214.94L115.941 217.138ZM118.111 217.138H117.131L117.551 214.94V213.68H118.881V214.94L118.111 217.138Z" fill="white"/>
<path d="M4.70215 107.48L2.56015 98.7165V107.48H1.42615V97.6805H3.41415L5.57015 106.444V97.6805H6.70415V107.48H4.70215ZM12.7924 107.48C11.9711 107.48 11.3691 107.308 10.9864 106.962C10.6037 106.608 10.4124 106.034 10.4124 105.24V102.72C10.4124 101.918 10.5851 101.344 10.9304 100.998C11.2757 100.653 11.8497 100.48 12.6524 100.48H13.0304C13.6931 100.48 14.1924 100.667 14.5284 101.04C14.8737 101.404 15.0464 101.941 15.0464 102.65V104.47H11.6024V105.52C11.6024 105.81 11.6911 106.034 11.8684 106.192C12.0457 106.351 12.3071 106.43 12.6524 106.43H14.5984V107.48H12.7924ZM13.8844 103.42V102.37C13.8844 102.128 13.8051 101.927 13.6464 101.768C13.4877 101.61 13.2871 101.53 13.0444 101.53H12.5124C12.1764 101.53 11.9384 101.61 11.7984 101.768C11.6677 101.918 11.6024 102.142 11.6024 102.44V103.42H13.8844ZM20.1539 107.48C19.6779 107.48 19.3139 107.326 19.0619 107.018C18.8099 106.71 18.6839 106.304 18.6839 105.8V101.53H17.7739V100.48H18.6839V98.8005H19.8739V100.48H21.4979V101.53H19.8739V105.87C19.8739 106.076 19.9252 106.22 20.0279 106.304C20.1305 106.388 20.2892 106.43 20.5039 106.43H21.4979V107.48H20.1539ZM30.8155 107.48H28.9815L28.0995 103.686L27.1335 107.48H25.3415L23.9415 100.48H25.1735L26.3075 106.584L27.5535 101.74H28.7435L29.9055 106.584L31.0395 100.48H32.2015L30.8155 107.48ZM40.0857 105.24C40.0857 106.024 39.8897 106.594 39.4977 106.948C39.1151 107.303 38.5177 107.48 37.7057 107.48H37.5237C36.7117 107.48 36.1097 107.303 35.7177 106.948C35.3351 106.594 35.1437 106.024 35.1437 105.24V102.72C35.1437 101.936 35.3351 101.367 35.7177 101.012C36.1097 100.658 36.7117 100.48 37.5237 100.48H37.7057C38.5177 100.48 39.1151 100.658 39.4977 101.012C39.8897 101.367 40.0857 101.936 40.0857 102.72V105.24ZM38.8957 102.44C38.8957 102.151 38.8071 101.927 38.6297 101.768C38.4524 101.61 38.1911 101.53 37.8457 101.53H37.3837C37.0384 101.53 36.7771 101.61 36.5997 101.768C36.4224 101.927 36.3337 102.151 36.3337 102.44V105.52C36.3337 105.81 36.4224 106.034 36.5997 106.192C36.7771 106.351 37.0384 106.43 37.3837 106.43H37.8457C38.1911 106.43 38.4524 106.351 38.6297 106.192C38.8071 106.034 38.8957 105.81 38.8957 105.52V102.44ZM43.728 100.48H44.848V100.858C45.156 100.606 45.5294 100.48 45.968 100.48H46.99V101.6H45.828C45.52 101.6 45.2914 101.703 45.142 101.908C44.9927 102.114 44.918 102.314 44.918 102.51V107.48H43.728V100.48ZM53.4301 107.48L51.5121 104.022L51.1201 104.484V107.48H49.9301V97.6805H51.1201V102.916L53.2201 100.48H54.7181L52.3521 103.182L54.8161 107.48H53.4301ZM57.8943 98.9405V97.6805H59.2243V98.9405H57.8943ZM57.9643 107.48V100.48H59.1543V107.48H57.9643ZM62.9359 100.48H64.0559V100.816C64.3452 100.592 64.7186 100.48 65.1759 100.48H65.5399C66.2959 100.48 66.8559 100.658 67.2199 101.012C67.5932 101.367 67.7799 101.936 67.7799 102.72V107.48H66.5899V102.44C66.5899 102.16 66.5059 101.941 66.3379 101.782C66.1792 101.614 65.9599 101.53 65.6799 101.53H65.0359C64.7279 101.53 64.4992 101.614 64.3499 101.782C64.2006 101.941 64.1259 102.114 64.1259 102.3V107.48H62.9359V100.48ZM76.5856 107.97C76.5856 108.605 76.3943 109.076 76.0116 109.384C75.6382 109.702 75.0502 109.86 74.2476 109.86H71.4196V108.81H74.3876C74.7236 108.81 74.9756 108.745 75.1436 108.614C75.3116 108.484 75.3956 108.316 75.3956 108.11V107.662C75.3956 107.448 75.3116 107.28 75.1436 107.158C74.9756 107.028 74.7236 106.962 74.3876 106.962H72.0496V105.03C71.7416 104.862 71.5129 104.62 71.3636 104.302C71.2142 103.985 71.1396 103.574 71.1396 103.07V102.72C71.1396 101.936 71.3309 101.367 71.7136 101.012C72.1056 100.658 72.7076 100.48 73.5196 100.48H76.3756V103.07C76.3756 103.77 76.1843 104.321 75.8016 104.722C75.4189 105.114 74.9102 105.31 74.2756 105.31H73.2396V105.912H74.2476C75.0502 105.912 75.6382 106.071 76.0116 106.388C76.3943 106.696 76.5856 107.168 76.5856 107.802V107.97ZM74.2756 104.26C74.5649 104.26 74.7842 104.167 74.9336 103.98C75.0829 103.794 75.1669 103.598 75.1856 103.392V101.53H73.3796C73.0342 101.53 72.7729 101.61 72.5956 101.768C72.4182 101.927 72.3296 102.151 72.3296 102.44V103.35C72.3296 103.64 72.4182 103.864 72.5956 104.022C72.7729 104.181 73.0342 104.26 73.3796 104.26H74.2756ZM79.7376 101.88V100.48H81.1376V101.88H79.7376ZM79.7376 107.48V106.08H81.1376V107.48H79.7376ZM1.42615 119.63V118.58H5.97615V119.63H1.42615ZM20.2545 121.1C20.2545 121.894 20.0352 122.491 19.5965 122.892C19.1672 123.284 18.5465 123.48 17.7345 123.48H17.5245C16.7125 123.48 16.0872 123.284 15.6485 122.892C15.2192 122.491 15.0045 121.894 15.0045 121.1V113.68H16.2225V121.366C16.2225 121.656 16.3298 121.903 16.5445 122.108C16.7592 122.314 17.0392 122.416 17.3845 122.416H17.8745C18.2198 122.416 18.4998 122.314 18.7145 122.108C18.9292 121.903 19.0365 121.656 19.0365 121.366V113.68H20.2545V121.1ZM24.0367 116.48H25.1567V116.816C25.446 116.592 25.8194 116.48 26.2767 116.48H26.5007C27.322 116.48 27.924 116.658 28.3067 117.012C28.6894 117.358 28.8807 117.927 28.8807 118.72V121.24C28.8807 122.024 28.6847 122.594 28.2927 122.948C27.91 123.303 27.3127 123.48 26.5007 123.48H25.2267V125.86H24.0367V116.48ZM26.1367 117.53C25.8287 117.53 25.6 117.614 25.4507 117.782C25.3014 117.941 25.2267 118.114 25.2267 118.3V122.43H26.6407C26.986 122.43 27.2474 122.351 27.4247 122.192C27.602 122.034 27.6907 121.81 27.6907 121.52V118.44C27.6907 118.151 27.602 117.927 27.4247 117.768C27.2474 117.61 26.986 117.53 26.6407 117.53H26.1367ZM37.4887 117.88V116.48H38.8887V117.88H37.4887ZM37.4887 123.48V122.08H38.8887V123.48H37.4887ZM52.234 121.1C52.234 121.875 52.0193 122.468 51.59 122.878C51.17 123.28 50.6007 123.48 49.882 123.48H49.742C49.0233 123.48 48.4493 123.28 48.02 122.878C47.6 122.468 47.39 121.875 47.39 121.1V116.06C47.39 115.276 47.6 114.684 48.02 114.282C48.44 113.881 49.014 113.68 49.742 113.68H49.882C50.61 113.68 51.184 113.881 51.604 114.282C52.024 114.684 52.234 115.276 52.234 116.06V121.1ZM51.044 115.794C51.044 115.505 50.932 115.258 50.708 115.052C50.4933 114.838 50.218 114.73 49.882 114.73H49.742C49.406 114.73 49.126 114.838 48.902 115.052C48.6873 115.258 48.58 115.505 48.58 115.794V121.366C48.58 121.656 48.6873 121.908 48.902 122.122C49.126 122.328 49.406 122.43 49.742 122.43H49.882C50.218 122.43 50.4933 122.328 50.708 122.122C50.932 121.908 51.044 121.656 51.044 121.366V115.794ZM60.8682 121.268C60.8682 122.071 60.6815 122.64 60.3082 122.976C59.9442 123.312 59.3375 123.48 58.4882 123.48H55.8282V113.68H58.3202C59.1508 113.68 59.7575 113.848 60.1402 114.184C60.5322 114.52 60.7282 115.08 60.7282 115.864V116.662C60.7282 117.381 60.4715 117.922 59.9582 118.286C60.5648 118.622 60.8682 119.196 60.8682 120.008V121.268ZM59.5102 115.738C59.5102 115.384 59.4262 115.127 59.2582 114.968C59.0995 114.81 58.8428 114.73 58.4882 114.73H57.0462V117.824H58.4882C58.7775 117.824 59.0202 117.731 59.2162 117.544C59.4122 117.358 59.5102 117.11 59.5102 116.802V115.738ZM59.6502 119.882C59.6502 119.574 59.5568 119.332 59.3702 119.154C59.1835 118.968 58.9362 118.874 58.6282 118.874H57.0462V122.43H58.6142C58.9688 122.43 59.2302 122.351 59.3982 122.192C59.5662 122.024 59.6502 121.763 59.6502 121.408V119.882ZM95.7019 119.63V118.58H100.252V119.63H95.7019ZM114.474 121.268C114.474 122.071 114.288 122.64 113.914 122.976C113.55 123.312 112.944 123.48 112.094 123.48H109.35V113.68H111.926C112.766 113.68 113.401 113.853 113.83 114.198C114.26 114.534 114.474 115.09 114.474 115.864V121.268ZM113.256 115.738C113.256 115.43 113.163 115.188 112.976 115.01C112.79 114.824 112.542 114.73 112.234 114.73H110.568V122.43H112.22C112.575 122.43 112.836 122.351 113.004 122.192C113.172 122.024 113.256 121.763 113.256 121.408V115.738ZM122.991 121.24C122.991 122.024 122.795 122.594 122.403 122.948C122.021 123.303 121.423 123.48 120.611 123.48H120.429C119.617 123.48 119.015 123.303 118.623 122.948C118.241 122.594 118.049 122.024 118.049 121.24V118.72C118.049 117.936 118.241 117.367 118.623 117.012C119.015 116.658 119.617 116.48 120.429 116.48H120.611C121.423 116.48 122.021 116.658 122.403 117.012C122.795 117.367 122.991 117.936 122.991 118.72V121.24ZM121.801 118.44C121.801 118.151 121.713 117.927 121.535 117.768C121.358 117.61 121.097 117.53 120.751 117.53H120.289C119.944 117.53 119.683 117.61 119.505 117.768C119.328 117.927 119.239 118.151 119.239 118.44V121.52C119.239 121.81 119.328 122.034 119.505 122.192C119.683 122.351 119.944 122.43 120.289 122.43H120.751C121.097 122.43 121.358 122.351 121.535 122.192C121.713 122.034 121.801 121.81 121.801 121.52V118.44ZM132.811 123.48H130.977L130.095 119.686L129.129 123.48H127.337L125.937 116.48H127.169L128.303 122.584L129.549 117.74H130.739L131.901 122.584L133.035 116.48H134.197L132.811 123.48ZM137.416 116.48H138.536V116.816C138.825 116.592 139.199 116.48 139.656 116.48H140.02C140.776 116.48 141.336 116.658 141.7 117.012C142.073 117.367 142.26 117.936 142.26 118.72V123.48H141.07V118.44C141.07 118.16 140.986 117.941 140.818 117.782C140.659 117.614 140.44 117.53 140.16 117.53H139.516C139.208 117.53 138.979 117.614 138.83 117.782C138.681 117.941 138.606 118.114 138.606 118.3V123.48H137.416V116.48ZM145.76 117.88V116.48H147.16V117.88H145.76ZM145.76 123.48V122.08H147.16V123.48H145.76ZM156.081 123.48V122.43H157.775V114.786L155.941 115.514V114.38L157.635 113.68H158.965V122.43H160.351V123.48H156.081ZM163.791 122.248L165.891 119.056C166.199 118.59 166.404 118.268 166.507 118.09C166.61 117.904 166.68 117.722 166.717 117.544C166.754 117.367 166.773 117.11 166.773 116.774V115.794C166.773 115.505 166.666 115.258 166.451 115.052C166.236 114.847 165.956 114.744 165.611 114.744H164.071V113.68H165.471C166.283 113.68 166.904 113.881 167.333 114.282C167.772 114.674 167.991 115.267 167.991 116.06V116.648C167.991 117.115 167.968 117.47 167.921 117.712C167.874 117.955 167.79 118.184 167.669 118.398C167.557 118.613 167.333 118.977 166.997 119.49L165.065 122.416H168.271V123.48H163.791V122.248ZM176.121 123.48L173.937 119.028L173.433 119.868V123.48H172.215V113.68H173.433V117.908L176.023 113.68H177.353L174.693 117.964L177.493 123.48H176.121ZM185.686 121.268C185.686 122.071 185.499 122.64 185.126 122.976C184.762 123.312 184.155 123.48 183.306 123.48H180.646V113.68H183.138C183.968 113.68 184.575 113.848 184.958 114.184C185.35 114.52 185.546 115.08 185.546 115.864V116.662C185.546 117.381 185.289 117.922 184.776 118.286C185.382 118.622 185.686 119.196 185.686 120.008V121.268ZM184.328 115.738C184.328 115.384 184.244 115.127 184.076 114.968C183.917 114.81 183.66 114.73 183.306 114.73H181.864V117.824H183.306C183.595 117.824 183.838 117.731 184.034 117.544C184.23 117.358 184.328 117.11 184.328 116.802V115.738ZM184.468 119.882C184.468 119.574 184.374 119.332 184.188 119.154C184.001 118.968 183.754 118.874 183.446 118.874H181.864V122.43H183.432C183.786 122.43 184.048 122.351 184.216 122.192C184.384 122.024 184.468 121.763 184.468 121.408V119.882Z" fill="white"/>
<path d="M6.55015 43.2685C6.55015 44.0711 6.36348 44.6405 5.99015 44.9765C5.62615 45.3125 5.01948 45.4805 4.17015 45.4805H1.42615V35.6805H4.00215C4.84215 35.6805 5.47681 35.8531 5.90615 36.1985C6.33548 36.5345 6.55015 37.0898 6.55015 37.8645V43.2685ZM5.33215 37.7385C5.33215 37.4305 5.23881 37.1878 5.05215 37.0105C4.86548 36.8238 4.61815 36.7305 4.31015 36.7305H2.64415V44.4305H4.29615C4.65081 44.4305 4.91215 44.3511 5.08015 44.1925C5.24815 44.0245 5.33215 43.7631 5.33215 43.4085V37.7385ZM14.3953 45.4805C14.274 45.4805 14.1386 45.4431 13.9893 45.3685C13.8493 45.2938 13.728 45.1911 13.6253 45.0605C13.4106 45.3405 13.126 45.4805 12.7713 45.4805H11.8053C11.096 45.4805 10.578 45.3405 10.2513 45.0605C9.93395 44.7711 9.77529 44.2811 9.77529 43.5905V43.3105C9.77529 41.8638 10.4566 41.1405 11.8193 41.1405H13.2753V40.4405C13.2753 40.1511 13.1866 39.9271 13.0093 39.7685C12.832 39.6098 12.5706 39.5305 12.2253 39.5305H10.3353V38.4805H12.0853C12.8973 38.4805 13.4946 38.6578 13.8773 39.0125C14.2693 39.3671 14.4653 39.9365 14.4653 40.7205V44.0805C14.4653 44.2205 14.5166 44.3278 14.6193 44.4025C14.7313 44.4678 14.9133 44.5005 15.1653 44.5005V45.4805H14.3953ZM12.6313 44.4305C12.9113 44.4305 13.0886 44.3651 13.1633 44.2345C13.238 44.1038 13.2753 43.9358 13.2753 43.7305V42.1905H11.8053C11.5626 42.1905 11.362 42.2698 11.2033 42.4285C11.0446 42.5871 10.9653 42.7878 10.9653 43.0305V43.7305C10.9653 43.9731 11.0213 44.1505 11.1333 44.2625C11.2453 44.3745 11.4226 44.4305 11.6653 44.4305H12.6313ZM19.9215 45.4805C19.4455 45.4805 19.0815 45.3265 18.8295 45.0185C18.5775 44.7105 18.4515 44.3045 18.4515 43.8005V39.5305H17.5415V38.4805H18.4515V36.8005H19.6415V38.4805H21.2655V39.5305H19.6415V43.8705C19.6415 44.0758 19.6928 44.2205 19.7955 44.3045C19.8981 44.3885 20.0568 44.4305 20.2715 44.4305H21.2655V45.4805H19.9215ZM28.3991 45.4805C28.2778 45.4805 28.1424 45.4431 27.9931 45.3685C27.8531 45.2938 27.7318 45.1911 27.6291 45.0605C27.4144 45.3405 27.1298 45.4805 26.7751 45.4805H25.8091C25.0998 45.4805 24.5818 45.3405 24.2551 45.0605C23.9378 44.7711 23.7791 44.2811 23.7791 43.5905V43.3105C23.7791 41.8638 24.4604 41.1405 25.8231 41.1405H27.2791V40.4405C27.2791 40.1511 27.1904 39.9271 27.0131 39.7685C26.8358 39.6098 26.5744 39.5305 26.2291 39.5305H24.3391V38.4805H26.0891C26.9011 38.4805 27.4984 38.6578 27.8811 39.0125C28.2731 39.3671 28.4691 39.9365 28.4691 40.7205V44.0805C28.4691 44.2205 28.5204 44.3278 28.6231 44.4025C28.7351 44.4678 28.9171 44.5005 29.1691 44.5005V45.4805H28.3991ZM26.6351 44.4305C26.9151 44.4305 27.0924 44.3651 27.1671 44.2345C27.2418 44.1038 27.2791 43.9358 27.2791 43.7305V42.1905H25.8091C25.5664 42.1905 25.3658 42.2698 25.2071 42.4285C25.0484 42.5871 24.9691 42.7878 24.9691 43.0305V43.7305C24.9691 43.9731 25.0251 44.1505 25.1371 44.2625C25.2491 44.3745 25.4264 44.4305 25.6691 44.4305H26.6351ZM41.818 43.1005C41.818 43.8938 41.5987 44.4911 41.16 44.8925C40.7307 45.2845 40.11 45.4805 39.298 45.4805H37.45V44.4165H39.438C39.7833 44.4165 40.0633 44.3138 40.278 44.1085C40.4927 43.9031 40.6 43.6558 40.6 43.3665V41.9105C40.6 41.6305 40.5253 41.4065 40.376 41.2385C40.236 41.0611 40.0213 40.9725 39.732 40.9725H39.452C38.7613 40.9725 38.2153 40.7718 37.814 40.3705C37.4127 39.9598 37.212 39.3671 37.212 38.5925V38.0605C37.212 37.2671 37.4267 36.6745 37.856 36.2825C38.2947 35.8811 38.92 35.6805 39.732 35.6805H41.594V36.7445H39.592C39.2467 36.7445 38.9667 36.8471 38.752 37.0525C38.5373 37.2578 38.43 37.5051 38.43 37.7945V38.8585C38.43 39.1478 38.5233 39.3905 38.71 39.5865C38.8967 39.7731 39.1393 39.8665 39.438 39.8665H39.718C40.3807 39.8665 40.894 40.0578 41.258 40.4405C41.6313 40.8231 41.818 41.4018 41.818 42.1765V43.1005ZM47.8913 46.0965C47.7793 46.5165 47.6626 46.8525 47.5413 47.1045C47.4199 47.3658 47.2473 47.5665 47.0233 47.7065C46.8086 47.8558 46.5193 47.9305 46.1553 47.9305C45.9593 47.9305 45.6933 47.9025 45.3573 47.8465V46.8245C45.6186 46.8618 45.8613 46.8805 46.0853 46.8805C46.3466 46.8805 46.5333 46.6705 46.6453 46.2505L46.8693 45.4805H46.5893L44.4193 38.4805H45.7073L47.3313 44.2625L48.7033 38.4805H49.9213L47.8913 46.0965ZM53.0697 38.4805H54.1897V38.8165C54.4791 38.5925 54.8524 38.4805 55.3097 38.4805H55.6737C56.4297 38.4805 56.9897 38.6578 57.3537 39.0125C57.7271 39.3671 57.9137 39.9365 57.9137 40.7205V45.4805H56.7237V40.4405C56.7237 40.1605 56.6397 39.9411 56.4717 39.7825C56.3131 39.6145 56.0937 39.5305 55.8137 39.5305H55.1697C54.8617 39.5305 54.6331 39.6145 54.4837 39.7825C54.3344 39.9411 54.2597 40.1138 54.2597 40.3005V45.4805H53.0697V38.4805ZM63.8634 45.4805C63.0421 45.4805 62.4401 45.3078 62.0574 44.9625C61.6747 44.6078 61.4834 44.0338 61.4834 43.2405V40.7205C61.4834 39.9365 61.6747 39.3671 62.0574 39.0125C62.4494 38.6578 63.0514 38.4805 63.8634 38.4805H65.3894V39.5305H63.7234C63.3781 39.5305 63.1167 39.6098 62.9394 39.7685C62.7621 39.9271 62.6734 40.1511 62.6734 40.4405V43.5205C62.6734 43.8098 62.7621 44.0338 62.9394 44.1925C63.1167 44.3511 63.3781 44.4305 63.7234 44.4305H65.3894V45.4805H63.8634ZM68.5452 39.8805V38.4805H69.9452V39.8805H68.5452ZM68.5452 45.4805V44.0805H69.9452V45.4805H68.5452ZM78.4885 38.0605C78.4885 37.2951 78.6985 36.7071 79.1185 36.2965C79.5385 35.8858 80.0658 35.6805 80.7005 35.6805H81.0505C81.6852 35.6805 82.2125 35.8858 82.6325 36.2965C83.0525 36.7071 83.2625 37.2951 83.2625 38.0605V43.1005C83.2625 43.8938 83.0478 44.4911 82.6185 44.8925C82.1985 45.2845 81.5825 45.4805 80.7705 45.4805H79.3005V44.4165H80.9105C81.2558 44.4165 81.5358 44.3138 81.7505 44.1085C81.9652 43.9031 82.0725 43.6558 82.0725 43.3665V41.8405H80.8405C80.0378 41.8405 79.4452 41.6631 79.0625 41.3085C78.6798 40.9538 78.4885 40.3845 78.4885 39.6005V38.0605ZM82.0725 37.7945C82.0725 37.4958 81.9745 37.2438 81.7785 37.0385C81.5825 36.8331 81.3165 36.7305 80.9805 36.7305H80.7705C80.4345 36.7305 80.1685 36.8331 79.9725 37.0385C79.7765 37.2438 79.6785 37.4958 79.6785 37.7945V39.8665C79.6785 40.1558 79.7625 40.3845 79.9305 40.5525C80.1078 40.7111 80.3645 40.7905 80.7005 40.7905H82.0725V37.7945ZM91.4907 43.2685C91.4907 44.0431 91.304 44.6078 90.9307 44.9625C90.5573 45.3078 89.9507 45.4805 89.1107 45.4805H88.8587C88.0187 45.4805 87.412 45.3078 87.0387 44.9625C86.6653 44.6078 86.4787 44.0431 86.4787 43.2685V42.0925C86.4787 41.2805 86.782 40.7065 87.3887 40.3705C86.894 40.0251 86.6467 39.4838 86.6467 38.7465V37.8645C86.6467 37.1178 86.8427 36.5671 87.2347 36.2125C87.6267 35.8578 88.1867 35.6805 88.9147 35.6805H89.0547C89.7827 35.6805 90.3427 35.8578 90.7347 36.2125C91.1267 36.5671 91.3227 37.1178 91.3227 37.8645V38.7465C91.3227 39.4838 91.0753 40.0251 90.5807 40.3705C91.1873 40.7065 91.4907 41.2805 91.4907 42.0925V43.2685ZM88.7467 36.7305C88.4387 36.7305 88.2147 36.8145 88.0747 36.9825C87.9347 37.1505 87.8647 37.4025 87.8647 37.7385V38.8865C87.8647 39.1851 87.9487 39.4278 88.1167 39.6145C88.294 39.7918 88.5133 39.8898 88.7747 39.9085H89.1107C89.4 39.9085 89.638 39.8151 89.8247 39.6285C90.0113 39.4418 90.1047 39.1945 90.1047 38.8865V37.7385C90.1047 37.3838 90.0253 37.1271 89.8667 36.9685C89.7173 36.8098 89.4653 36.7305 89.1107 36.7305H88.7467ZM90.2727 41.9665C90.2727 41.6585 90.1793 41.4158 89.9927 41.2385C89.806 41.0518 89.5587 40.9585 89.2507 40.9585H88.7187C88.4107 40.9585 88.1633 41.0518 87.9767 41.2385C87.79 41.4158 87.6967 41.6585 87.6967 41.9665V43.4085C87.6967 43.7538 87.7713 44.0105 87.9207 44.1785C88.07 44.3465 88.3033 44.4305 88.6207 44.4305H89.2367C89.5913 44.4305 89.8527 44.3511 90.0207 44.1925C90.1887 44.0245 90.2727 43.7631 90.2727 43.4085V41.9665ZM98.7248 39.7125C98.7248 40.3005 98.5755 40.7485 98.2768 41.0565C97.9782 41.3551 97.5582 41.5045 97.0168 41.5045H96.7648C96.2235 41.5045 95.8035 41.3551 95.5048 41.0565C95.2062 40.7485 95.0568 40.3005 95.0568 39.7125V37.4725C95.0568 36.8845 95.2062 36.4411 95.5048 36.1425C95.8035 35.8345 96.2235 35.6805 96.7648 35.6805H97.0168C97.5582 35.6805 97.9782 35.8345 98.2768 36.1425C98.5755 36.4411 98.7248 36.8845 98.7248 37.4725V39.7125ZM98.7248 45.4805H97.5488L100.979 35.6805H102.071L98.7248 45.4805ZM97.7448 37.3185C97.7448 37.0851 97.6842 36.8938 97.5628 36.7445C97.4415 36.5951 97.2595 36.5205 97.0168 36.5205H96.7648C96.5222 36.5205 96.3402 36.5951 96.2188 36.7445C96.0975 36.8938 96.0368 37.0851 96.0368 37.3185V39.8665C96.0368 40.0998 96.0975 40.2911 96.2188 40.4405C96.3402 40.5898 96.5222 40.6645 96.7648 40.6645H97.0168C97.2595 40.6645 97.4415 40.5898 97.5628 40.4405C97.6842 40.2911 97.7448 40.0998 97.7448 39.8665V37.3185ZM104.521 43.6885C104.521 44.2765 104.371 44.7245 104.073 45.0325C103.774 45.3311 103.354 45.4805 102.813 45.4805H102.561C102.019 45.4805 101.599 45.3311 101.301 45.0325C101.002 44.7245 100.853 44.2765 100.853 43.6885V41.4485C100.853 40.8605 101.002 40.4171 101.301 40.1185C101.599 39.8105 102.019 39.6565 102.561 39.6565H102.813C103.354 39.6565 103.774 39.8105 104.073 40.1185C104.371 40.4171 104.521 40.8605 104.521 41.4485V43.6885ZM103.541 41.2945C103.541 41.0611 103.48 40.8698 103.359 40.7205C103.237 40.5711 103.055 40.4965 102.813 40.4965H102.561C102.318 40.4965 102.136 40.5711 102.015 40.7205C101.893 40.8698 101.833 41.0611 101.833 41.2945V43.8425C101.833 44.0758 101.893 44.2671 102.015 44.4165C102.136 44.5658 102.318 44.6405 102.561 44.6405H102.813C103.055 44.6405 103.237 44.5658 103.359 44.4165C103.48 44.2671 103.541 44.0758 103.541 43.8425V41.2945ZM115.878 45.4805C115.056 45.4805 114.454 45.3078 114.072 44.9625C113.689 44.6078 113.498 44.0338 113.498 43.2405V40.7205C113.498 39.9365 113.689 39.3671 114.072 39.0125C114.464 38.6578 115.066 38.4805 115.878 38.4805H117.404V39.5305H115.738C115.392 39.5305 115.131 39.6098 114.954 39.7685C114.776 39.9271 114.688 40.1511 114.688 40.4405V43.5205C114.688 43.8098 114.776 44.0338 114.954 44.1925C115.131 44.3511 115.392 44.4305 115.738 44.4305H117.404V45.4805H115.878ZM125.435 43.2405C125.435 44.0245 125.239 44.5938 124.847 44.9485C124.464 45.3031 123.867 45.4805 123.055 45.4805H122.873C122.061 45.4805 121.459 45.3031 121.067 44.9485C120.684 44.5938 120.493 44.0245 120.493 43.2405V40.7205C120.493 39.9365 120.684 39.3671 121.067 39.0125C121.459 38.6578 122.061 38.4805 122.873 38.4805H123.055C123.867 38.4805 124.464 38.6578 124.847 39.0125C125.239 39.3671 125.435 39.9365 125.435 40.7205V43.2405ZM124.245 40.4405C124.245 40.1511 124.156 39.9271 123.979 39.7685C123.802 39.6098 123.54 39.5305 123.195 39.5305H122.733C122.388 39.5305 122.126 39.6098 121.949 39.7685C121.772 39.9271 121.683 40.1511 121.683 40.4405V43.5205C121.683 43.8098 121.772 44.0338 121.949 44.1925C122.126 44.3511 122.388 44.4305 122.733 44.4305H123.195C123.54 44.4305 123.802 44.3511 123.979 44.1925C124.156 44.0338 124.245 43.8098 124.245 43.5205V40.4405ZM129.077 38.4805H130.197V38.8165C130.486 38.5925 130.86 38.4805 131.317 38.4805H131.401C132.25 38.4805 132.857 38.6951 133.221 39.1245C133.566 38.6951 134.047 38.4805 134.663 38.4805H134.747C135.503 38.4805 136.063 38.6578 136.427 39.0125C136.8 39.3671 136.987 39.9365 136.987 40.7205V45.4805H135.797V40.4405C135.797 40.1605 135.713 39.9411 135.545 39.7825C135.386 39.6145 135.167 39.5305 134.887 39.5305H134.523C134.234 39.5305 134.014 39.6191 133.865 39.7965C133.725 39.9645 133.646 40.1465 133.627 40.3425V45.4805H132.437V40.4405C132.437 40.1605 132.358 39.9411 132.199 39.7825C132.04 39.6145 131.821 39.5305 131.541 39.5305H131.177C130.878 39.5305 130.65 39.6098 130.491 39.7685C130.342 39.9178 130.267 40.0811 130.267 40.2585V45.4805H129.077V38.4805ZM140.693 38.4805H141.813V38.8165C142.103 38.5925 142.476 38.4805 142.933 38.4805H143.157C143.979 38.4805 144.581 38.6578 144.963 39.0125C145.346 39.3578 145.537 39.9271 145.537 40.7205V43.2405C145.537 44.0245 145.341 44.5938 144.949 44.9485C144.567 45.3031 143.969 45.4805 143.157 45.4805H141.883V47.8605H140.693V38.4805ZM142.793 39.5305C142.485 39.5305 142.257 39.6145 142.107 39.7825C141.958 39.9411 141.883 40.1138 141.883 40.3005V44.4305H143.297C143.643 44.4305 143.904 44.3511 144.081 44.1925C144.259 44.0338 144.347 43.8098 144.347 43.5205V40.4405C144.347 40.1511 144.259 39.9271 144.081 39.7685C143.904 39.6098 143.643 39.5305 143.297 39.5305H142.793ZM150.299 45.4805C149.981 45.4805 149.701 45.3685 149.459 45.1445C149.225 44.9205 149.109 44.5658 149.109 44.0805V35.6805H150.299V44.0105C150.299 44.1598 150.336 44.2671 150.411 44.3325C150.485 44.3978 150.611 44.4305 150.789 44.4305H151.069V45.4805H150.299ZM156.459 45.4805C155.637 45.4805 155.035 45.3078 154.653 44.9625C154.27 44.6078 154.079 44.0338 154.079 43.2405V40.7205C154.079 39.9178 154.251 39.3438 154.597 38.9985C154.942 38.6531 155.516 38.4805 156.319 38.4805H156.697C157.359 38.4805 157.859 38.6671 158.195 39.0405C158.54 39.4045 158.713 39.9411 158.713 40.6505V42.4705H155.269V43.5205C155.269 43.8098 155.357 44.0338 155.535 44.1925C155.712 44.3511 155.973 44.4305 156.319 44.4305H158.265V45.4805H156.459ZM157.551 41.4205V40.3705C157.551 40.1278 157.471 39.9271 157.313 39.7685C157.154 39.6098 156.953 39.5305 156.711 39.5305H156.179C155.843 39.5305 155.605 39.6098 155.465 39.7685C155.334 39.9178 155.269 40.1418 155.269 40.4405V41.4205H157.551ZM163.82 45.4805C163.344 45.4805 162.98 45.3265 162.728 45.0185C162.476 44.7105 162.35 44.3045 162.35 43.8005V39.5305H161.44V38.4805H162.35V36.8005H163.54V38.4805H165.164V39.5305H163.54V43.8705C163.54 44.0758 163.591 44.2205 163.694 44.3045C163.797 44.3885 163.955 44.4305 164.17 44.4305H165.164V45.4805H163.82ZM170.408 45.4805C169.586 45.4805 168.984 45.3078 168.602 44.9625C168.219 44.6078 168.028 44.0338 168.028 43.2405V40.7205C168.028 39.9178 168.2 39.3438 168.546 38.9985C168.891 38.6531 169.465 38.4805 170.268 38.4805H170.646C171.308 38.4805 171.808 38.6671 172.144 39.0405C172.489 39.4045 172.662 39.9411 172.662 40.6505V42.4705H169.218V43.5205C169.218 43.8098 169.306 44.0338 169.484 44.1925C169.661 44.3511 169.922 44.4305 170.268 44.4305H172.214V45.4805H170.408ZM171.5 41.4205V40.3705C171.5 40.1278 171.42 39.9271 171.262 39.7685C171.103 39.6098 170.902 39.5305 170.66 39.5305H170.128C169.792 39.5305 169.554 39.6098 169.414 39.7685C169.283 39.9178 169.218 40.1418 169.218 40.4405V41.4205H171.5Z" fill="white"/>
</svg>
