<svg width="273" height="214" viewBox="0 0 273 214" fill="none" xmlns="http://www.w3.org/2000/svg">
<path d="M249.236 69.4805H0.236084V70.4805H249.236V69.4805Z" fill="#F5F5F5"/>
<path d="M244.236 142.48H0.236084V143.48H244.236V142.48Z" fill="#F5F5F5"/>
<path d="M246.236 116.48H0.236084V123.97H246.236V116.48Z" stroke="#F5F5F5" stroke-width="0.472324" stroke-miterlimit="10"/>
<path d="M82.2361 116.48H0.236084V123.48H82.2361V116.48Z" fill="#F27C06"/>
<path d="M246.236 46.4805H0.236084V53.9701H246.236V46.4805Z" stroke="#F5F5F5" stroke-width="0.472324" stroke-miterlimit="10"/>
<path d="M166.236 46.4805H0.236084V53.4805H166.236V46.4805Z" fill="#F27C06"/>
<path d="M2.64408 2.70247V6.04847H5.66808V7.07047H2.64408V11.4805H1.42608V1.68047H6.01808V2.70247H2.64408ZM9.09819 2.94047V1.68047H10.4282V2.94047H9.09819ZM9.16819 11.4805V4.48047H10.3582V11.4805H9.16819ZM15.1198 11.4805C14.8025 11.4805 14.5225 11.3685 14.2798 11.1445C14.0465 10.9205 13.9298 10.5658 13.9298 10.0805V1.68047H15.1198V10.0105C15.1198 10.1598 15.1572 10.2671 15.2318 10.3325C15.3065 10.3978 15.4325 10.4305 15.6098 10.4305H15.8898V11.4805H15.1198ZM21.1398 11.4805C20.3185 11.4805 19.7165 11.3078 19.3338 10.9625C18.9512 10.6078 18.7598 10.0338 18.7598 9.24047V6.72047C18.7598 5.9178 18.9325 5.3438 19.2778 4.99847C19.6232 4.65314 20.1972 4.48047 20.9998 4.48047H21.3778C22.0405 4.48047 22.5398 4.66714 22.8758 5.04047C23.2212 5.40447 23.3938 5.94113 23.3938 6.65047V8.47047H19.9498V9.52047C19.9498 9.8098 20.0385 10.0338 20.2158 10.1925C20.3932 10.3511 20.6545 10.4305 20.9998 10.4305H22.9458V11.4805H21.1398ZM22.2318 7.42047V6.37047C22.2318 6.1278 22.1525 5.92714 21.9938 5.76847C21.8352 5.6098 21.6345 5.53047 21.3918 5.53047H20.8598C20.5238 5.53047 20.2858 5.6098 20.1458 5.76847C20.0152 5.9178 19.9498 6.1418 19.9498 6.44047V7.42047H22.2318ZM36.114 9.10047C36.114 9.8938 35.8947 10.4911 35.456 10.8925C35.0267 11.2845 34.406 11.4805 33.594 11.4805H31.746V10.4165H33.734C34.0794 10.4165 34.3594 10.3138 34.574 10.1085C34.7887 9.90314 34.896 9.6558 34.896 9.36647V7.91047C34.896 7.63047 34.8214 7.40647 34.672 7.23847C34.532 7.06114 34.3174 6.97247 34.028 6.97247H33.748C33.0574 6.97247 32.5114 6.7718 32.11 6.37047C31.7087 5.9598 31.508 5.36714 31.508 4.59247V4.06047C31.508 3.26714 31.7227 2.67447 32.152 2.28247C32.5907 1.88113 33.216 1.68047 34.028 1.68047H35.89V2.74447H33.888C33.5427 2.74447 33.2627 2.84714 33.048 3.05247C32.8334 3.2578 32.726 3.50513 32.726 3.79447V4.85847C32.726 5.1478 32.8194 5.39047 33.006 5.58647C33.1927 5.77314 33.4354 5.86647 33.734 5.86647H34.014C34.6767 5.86647 35.19 6.0578 35.554 6.44047C35.9274 6.82314 36.114 7.4018 36.114 8.17647V9.10047ZM39.3404 2.94047V1.68047H40.6704V2.94047H39.3404ZM39.4104 11.4805V4.48047H40.6004V11.4805H39.4104ZM45.04 10.4445H47.924V11.4805H43.752V10.3605L46.79 5.51647H44.032V4.48047H48.064V5.72647L45.04 10.4445ZM53.5285 11.4805C52.7072 11.4805 52.1052 11.3078 51.7225 10.9625C51.3398 10.6078 51.1485 10.0338 51.1485 9.24047V6.72047C51.1485 5.9178 51.3212 5.3438 51.6665 4.99847C52.0118 4.65314 52.5858 4.48047 53.3885 4.48047H53.7665C54.4292 4.48047 54.9285 4.66714 55.2645 5.04047C55.6098 5.40447 55.7825 5.94113 55.7825 6.65047V8.47047H52.3385V9.52047C52.3385 9.8098 52.4272 10.0338 52.6045 10.1925C52.7818 10.3511 53.0432 10.4305 53.3885 10.4305H55.3345V11.4805H53.5285ZM54.6205 7.42047V6.37047C54.6205 6.1278 54.5412 5.92714 54.3825 5.76847C54.2238 5.6098 54.0232 5.53047 53.7805 5.53047H53.2485C52.9125 5.53047 52.6745 5.6098 52.5345 5.76847C52.4038 5.9178 52.3385 6.1418 52.3385 6.44047V7.42047H54.6205ZM59 5.88047V4.48047H60.4V5.88047H59ZM59 11.4805V10.0805H60.4V11.4805H59ZM68.6353 10.2485L70.7353 7.05647C71.0433 6.5898 71.2486 6.2678 71.3513 6.09047C71.4539 5.9038 71.5239 5.7218 71.5613 5.54447C71.5986 5.36714 71.6173 5.11047 71.6173 4.77447V3.79447C71.6173 3.50513 71.5099 3.2578 71.2953 3.05247C71.0806 2.84714 70.8006 2.74447 70.4553 2.74447H68.9153V1.68047H70.3153C71.1273 1.68047 71.7479 1.88113 72.1773 2.28247C72.6159 2.67447 72.8353 3.26714 72.8353 4.06047V4.64847C72.8353 5.11514 72.8119 5.4698 72.7653 5.71247C72.7186 5.95514 72.6346 6.1838 72.5133 6.39847C72.4013 6.61314 72.1773 6.97714 71.8413 7.49047L69.9093 10.4165H73.1153V11.4805H68.6353V10.2485ZM77.0174 11.4805V10.4305H78.7114V2.78647L76.8774 3.51447V2.38047L78.5714 1.68047H79.9014V10.4305H81.2874V11.4805H77.0174ZM84.6156 11.4805V10.0805H86.0156V11.4805H84.6156ZM90.8763 11.4805H89.6303L91.9683 2.73047H88.8603V1.68047H93.1303V3.03847L90.8763 11.4805ZM107.389 11.4805V2.68847L105.891 8.19047H104.729L103.231 2.68847V11.4805H102.111V1.68047H104.085L105.359 6.69247L106.619 1.68047H108.551V11.4805H107.389ZM117.37 9.26847C117.37 10.0711 117.183 10.6405 116.81 10.9765C116.446 11.3125 115.839 11.4805 114.99 11.4805H112.33V1.68047H114.822C115.652 1.68047 116.259 1.84847 116.642 2.18447C117.034 2.52047 117.23 3.08047 117.23 3.86447V4.66247C117.23 5.38114 116.973 5.92247 116.46 6.28647C117.066 6.62247 117.37 7.19647 117.37 8.00847V9.26847ZM116.012 3.73847C116.012 3.3838 115.928 3.12714 115.76 2.96847C115.601 2.8098 115.344 2.73047 114.99 2.73047H113.548V5.82447H114.99C115.279 5.82447 115.522 5.73114 115.718 5.54447C115.914 5.3578 116.012 5.11047 116.012 4.80247V3.73847ZM116.152 7.88247C116.152 7.57447 116.058 7.3318 115.872 7.15447C115.685 6.9678 115.438 6.87447 115.13 6.87447H113.548V10.4305H115.116C115.47 10.4305 115.732 10.3511 115.9 10.1925C116.068 10.0245 116.152 9.76314 116.152 9.40847V7.88247ZM125.69 4.41047C125.69 3.3278 125.825 2.45047 126.096 1.77847C126.376 1.10647 126.763 0.513801 127.258 0.000468016H128.49C128.042 0.541802 127.71 0.999135 127.496 1.37247C127.281 1.73647 127.122 2.14714 127.02 2.60447C126.926 3.0618 126.88 3.65447 126.88 4.38247V8.77847C126.88 9.50647 126.926 10.0991 127.02 10.5565C127.122 11.0138 127.281 11.4245 127.496 11.7885C127.71 12.1618 128.042 12.6191 128.49 13.1605H127.258C126.763 12.6471 126.376 12.0545 126.096 11.3825C125.825 10.7105 125.69 9.83314 125.69 8.75047V4.41047ZM135.984 11.4805C135.863 11.4805 135.727 11.4431 135.578 11.3685C135.438 11.2938 135.317 11.1911 135.214 11.0605C134.999 11.3405 134.715 11.4805 134.36 11.4805H133.394C132.685 11.4805 132.167 11.3405 131.84 11.0605C131.523 10.7711 131.364 10.2811 131.364 9.59047V9.31047C131.364 7.8638 132.045 7.14047 133.408 7.14047H134.864V6.44047C134.864 6.15114 134.775 5.92714 134.598 5.76847C134.421 5.6098 134.159 5.53047 133.814 5.53047H131.924V4.48047H133.674C134.486 4.48047 135.083 4.6578 135.466 5.01247C135.858 5.36714 136.054 5.93647 136.054 6.72047V10.0805C136.054 10.2205 136.105 10.3278 136.208 10.4025C136.32 10.4678 136.502 10.5005 136.754 10.5005V11.4805H135.984ZM134.22 10.4305C134.5 10.4305 134.677 10.3651 134.752 10.2345C134.827 10.1038 134.864 9.9358 134.864 9.73047V8.19047H133.394C133.151 8.19047 132.951 8.2698 132.792 8.42847C132.633 8.58714 132.554 8.7878 132.554 9.03047V9.73047C132.554 9.97314 132.61 10.1505 132.722 10.2625C132.834 10.3745 133.011 10.4305 133.254 10.4305H134.22ZM139.83 4.48047H140.95V4.85847C141.258 4.60647 141.632 4.48047 142.07 4.48047H143.092V5.60047H141.93C141.622 5.60047 141.394 5.70314 141.244 5.90847C141.095 6.1138 141.02 6.31447 141.02 6.51047V11.4805H139.83V4.48047ZM147.927 11.4805C147.106 11.4805 146.504 11.3078 146.121 10.9625C145.739 10.6078 145.547 10.0338 145.547 9.24047V6.72047C145.547 5.93647 145.739 5.36714 146.121 5.01247C146.513 4.6578 147.115 4.48047 147.927 4.48047H149.453V5.53047H147.787C147.442 5.53047 147.181 5.6098 147.003 5.76847C146.826 5.92714 146.737 6.15114 146.737 6.44047V9.52047C146.737 9.8098 146.826 10.0338 147.003 10.1925C147.181 10.3511 147.442 10.4305 147.787 10.4305H149.453V11.4805H147.927ZM152.679 1.68047H153.869V4.76047C154.149 4.5738 154.499 4.48047 154.919 4.48047H155.283C156.039 4.48047 156.599 4.6578 156.963 5.01247C157.336 5.36714 157.523 5.93647 157.523 6.72047V11.4805H156.333V6.44047C156.333 6.16047 156.249 5.94114 156.081 5.78247C155.922 5.61447 155.703 5.53047 155.423 5.53047H154.779C154.48 5.53047 154.252 5.6098 154.093 5.76847C153.944 5.9178 153.869 6.08114 153.869 6.25847V11.4805H152.679V1.68047ZM161.023 2.94047V1.68047H162.353V2.94047H161.023ZM161.093 11.4805V4.48047H162.283V11.4805H161.093ZM168.906 11.4805H167.184L165.294 4.48047H166.568L168.08 10.4865L169.55 4.48047H170.782L168.906 11.4805ZM177.921 11.4805C177.8 11.4805 177.665 11.4431 177.515 11.3685C177.375 11.2938 177.254 11.1911 177.151 11.0605C176.937 11.3405 176.652 11.4805 176.297 11.4805H175.331C174.622 11.4805 174.104 11.3405 173.777 11.0605C173.46 10.7711 173.301 10.2811 173.301 9.59047V9.31047C173.301 7.8638 173.983 7.14047 175.345 7.14047H176.801V6.44047C176.801 6.15114 176.713 5.92714 176.535 5.76847C176.358 5.6098 176.097 5.53047 175.751 5.53047H173.861V4.48047H175.611C176.423 4.48047 177.021 4.6578 177.403 5.01247C177.795 5.36714 177.991 5.93647 177.991 6.72047V10.0805C177.991 10.2205 178.043 10.3278 178.145 10.4025C178.257 10.4678 178.439 10.5005 178.691 10.5005V11.4805H177.921ZM176.157 10.4305C176.437 10.4305 176.615 10.3651 176.689 10.2345C176.764 10.1038 176.801 9.9358 176.801 9.73047V8.19047H175.331C175.089 8.19047 174.888 8.2698 174.729 8.42847C174.571 8.58714 174.491 8.7878 174.491 9.03047V9.73047C174.491 9.97314 174.547 10.1505 174.659 10.2625C174.771 10.3745 174.949 10.4305 175.191 10.4305H176.157ZM182.887 11.4805C182.57 11.4805 182.29 11.3685 182.047 11.1445C181.814 10.9205 181.697 10.5658 181.697 10.0805V1.68047H182.887V10.0105C182.887 10.1598 182.925 10.2671 182.999 10.3325C183.074 10.3978 183.2 10.4305 183.377 10.4305H183.657V11.4805H182.887ZM191.704 4.48047H192.824V4.85847C193.132 4.60647 193.505 4.48047 193.944 4.48047H194.966V5.60047H193.804C193.496 5.60047 193.267 5.70314 193.118 5.90847C192.969 6.1138 192.894 6.31447 192.894 6.51047V11.4805H191.704V4.48047ZM199.801 11.4805C198.98 11.4805 198.378 11.3078 197.995 10.9625C197.612 10.6078 197.421 10.0338 197.421 9.24047V6.72047C197.421 5.9178 197.594 5.3438 197.939 4.99847C198.284 4.65314 198.858 4.48047 199.661 4.48047H200.039C200.702 4.48047 201.201 4.66714 201.537 5.04047C201.882 5.40447 202.055 5.94113 202.055 6.65047V8.47047H198.611V9.52047C198.611 9.8098 198.7 10.0338 198.877 10.1925C199.054 10.3511 199.316 10.4305 199.661 10.4305H201.607V11.4805H199.801ZM200.893 7.42047V6.37047C200.893 6.1278 200.814 5.92714 200.655 5.76847C200.496 5.6098 200.296 5.53047 200.053 5.53047H199.521C199.185 5.53047 198.947 5.6098 198.807 5.76847C198.676 5.9178 198.611 6.1418 198.611 6.44047V7.42047H200.893ZM207.723 11.4805C206.901 11.4805 206.299 11.3078 205.917 10.9625C205.534 10.6078 205.343 10.0338 205.343 9.24047V6.72047C205.343 5.93647 205.534 5.36714 205.917 5.01247C206.309 4.6578 206.911 4.48047 207.723 4.48047H209.249V5.53047H207.583C207.237 5.53047 206.976 5.6098 206.799 5.76847C206.621 5.92714 206.533 6.15114 206.533 6.44047V9.52047C206.533 9.8098 206.621 10.0338 206.799 10.1925C206.976 10.3511 207.237 10.4305 207.583 10.4305H209.249V11.4805H207.723ZM217.14 9.24047C217.14 10.0245 216.944 10.5938 216.552 10.9485C216.169 11.3031 215.572 11.4805 214.76 11.4805H214.578C213.766 11.4805 213.164 11.3031 212.772 10.9485C212.389 10.5938 212.198 10.0245 212.198 9.24047V6.72047C212.198 5.93647 212.389 5.36714 212.772 5.01247C213.164 4.6578 213.766 4.48047 214.578 4.48047H214.76C215.572 4.48047 216.169 4.6578 216.552 5.01247C216.944 5.36714 217.14 5.93647 217.14 6.72047V9.24047ZM215.95 6.44047C215.95 6.15114 215.861 5.92714 215.684 5.76847C215.506 5.6098 215.245 5.53047 214.9 5.53047H214.438C214.092 5.53047 213.831 5.6098 213.654 5.76847C213.476 5.92714 213.388 6.15114 213.388 6.44047V9.52047C213.388 9.8098 213.476 10.0338 213.654 10.1925C213.831 10.3511 214.092 10.4305 214.438 10.4305H214.9C215.245 10.4305 215.506 10.3511 215.684 10.1925C215.861 10.0338 215.95 9.8098 215.95 9.52047V6.44047ZM220.642 4.48047H221.762V4.85847C222.07 4.60647 222.443 4.48047 222.882 4.48047H223.904V5.60047H222.742C222.434 5.60047 222.205 5.70314 222.056 5.90847C221.907 6.1138 221.832 6.31447 221.832 6.51047V11.4805H220.642V4.48047ZM230.153 11.1585C229.845 11.3731 229.472 11.4805 229.033 11.4805H228.739C227.918 11.4805 227.316 11.3078 226.933 10.9625C226.55 10.6078 226.359 10.0338 226.359 9.24047V6.72047C226.359 5.93647 226.55 5.36714 226.933 5.01247C227.325 4.6578 227.927 4.48047 228.739 4.48047H230.083V1.68047H231.273V11.4805H230.153V11.1585ZM229.173 10.4305C229.481 10.4305 229.71 10.3511 229.859 10.1925C230.008 10.0245 230.083 9.84714 230.083 9.66047V5.53047H228.599C228.254 5.53047 227.992 5.6098 227.815 5.76847C227.638 5.92714 227.549 6.15114 227.549 6.44047V9.52047C227.549 9.8098 227.638 10.0338 227.815 10.1925C227.992 10.3511 228.254 10.4305 228.599 10.4305H229.173ZM237.433 8.75047C237.433 9.83314 237.293 10.7105 237.013 11.3825C236.742 12.0545 236.359 12.6471 235.865 13.1605H234.633C235.081 12.6191 235.412 12.1618 235.627 11.7885C235.841 11.4245 235.995 11.0138 236.089 10.5565C236.191 10.0991 236.243 9.50647 236.243 8.77847V4.38247C236.243 3.65447 236.191 3.0618 236.089 2.60447C235.995 2.14714 235.841 1.73647 235.627 1.37247C235.412 0.999135 235.081 0.541802 234.633 0.000468016H235.865C236.359 0.513801 236.742 1.10647 237.013 1.77847C237.293 2.45047 237.433 3.3278 237.433 4.41047V8.75047Z" fill="white"/>
<path d="M3.80608 190.48C2.99408 190.48 2.36875 190.284 1.93008 189.892C1.50075 189.491 1.28608 188.894 1.28608 188.1V183.06C1.28608 182.267 1.50075 181.674 1.93008 181.282C2.36875 180.881 2.99408 180.68 3.80608 180.68H5.51408V181.744H3.66608C3.32075 181.744 3.04075 181.847 2.82608 182.052C2.61142 182.258 2.50408 182.505 2.50408 182.794V188.366C2.50408 188.656 2.61142 188.903 2.82608 189.108C3.04075 189.314 3.32075 189.416 3.66608 189.416H5.51408V190.48H3.80608ZM13.3993 188.24C13.3993 189.024 13.2033 189.594 12.8113 189.948C12.4286 190.303 11.8313 190.48 11.0193 190.48H10.8373C10.0253 190.48 9.42326 190.303 9.03126 189.948C8.64859 189.594 8.45726 189.024 8.45726 188.24V185.72C8.45726 184.936 8.64859 184.367 9.03126 184.012C9.42326 183.658 10.0253 183.48 10.8373 183.48H11.0193C11.8313 183.48 12.4286 183.658 12.8113 184.012C13.2033 184.367 13.3993 184.936 13.3993 185.72V188.24ZM12.2093 185.44C12.2093 185.151 12.1206 184.927 11.9433 184.768C11.7659 184.61 11.5046 184.53 11.1593 184.53H10.6973C10.3519 184.53 10.0906 184.61 9.91326 184.768C9.73592 184.927 9.64726 185.151 9.64726 185.44V188.52C9.64726 188.81 9.73592 189.034 9.91326 189.192C10.0906 189.351 10.3519 189.43 10.6973 189.43H11.1593C11.5046 189.43 11.7659 189.351 11.9433 189.192C12.1206 189.034 12.2093 188.81 12.2093 188.52V185.44ZM21.8436 188.24C21.8436 189.024 21.6476 189.594 21.2556 189.948C20.8729 190.303 20.2756 190.48 19.4636 190.48H19.2816C18.4696 190.48 17.8676 190.303 17.4756 189.948C17.0929 189.594 16.9016 189.024 16.9016 188.24V185.72C16.9016 184.936 17.0929 184.367 17.4756 184.012C17.8676 183.658 18.4696 183.48 19.2816 183.48H19.4636C20.2756 183.48 20.8729 183.658 21.2556 184.012C21.6476 184.367 21.8436 184.936 21.8436 185.72V188.24ZM20.6536 185.44C20.6536 185.151 20.5649 184.927 20.3876 184.768C20.2102 184.61 19.9489 184.53 19.6036 184.53H19.1416C18.7962 184.53 18.5349 184.61 18.3576 184.768C18.1802 184.927 18.0916 185.151 18.0916 185.44V188.52C18.0916 188.81 18.1802 189.034 18.3576 189.192C18.5349 189.351 18.7962 189.43 19.1416 189.43H19.6036C19.9489 189.43 20.2102 189.351 20.3876 189.192C20.5649 189.034 20.6536 188.81 20.6536 188.52V185.44ZM25.4858 183.48H26.6058V183.858C26.9138 183.606 27.2872 183.48 27.7258 183.48H28.7478V184.6H27.5858C27.2778 184.6 27.0492 184.703 26.8998 184.908C26.7505 185.114 26.6758 185.314 26.6758 185.51V190.48H25.4858V183.48ZM35.1369 190.158C34.8289 190.373 34.4555 190.48 34.0169 190.48H33.7229C32.9015 190.48 32.2995 190.308 31.9169 189.962C31.5342 189.608 31.3429 189.034 31.3429 188.24V185.72C31.3429 184.936 31.5342 184.367 31.9169 184.012C32.3089 183.658 32.9109 183.48 33.7229 183.48H35.0669V180.68H36.2569V190.48H35.1369V190.158ZM34.1569 189.43C34.4649 189.43 34.6935 189.351 34.8429 189.192C34.9922 189.024 35.0669 188.847 35.0669 188.66V184.53H33.5829C33.2375 184.53 32.9762 184.61 32.7989 184.768C32.6215 184.927 32.5329 185.151 32.5329 185.44V188.52C32.5329 188.81 32.6215 189.034 32.7989 189.192C32.9762 189.351 33.2375 189.43 33.5829 189.43H34.1569ZM39.9666 181.94V180.68H41.2966V181.94H39.9666ZM40.0366 190.48V183.48H41.2266V190.48H40.0366ZM45.0082 183.48H46.1282V183.816C46.4175 183.592 46.7909 183.48 47.2482 183.48H47.6122C48.3682 183.48 48.9282 183.658 49.2922 184.012C49.6655 184.367 49.8522 184.936 49.8522 185.72V190.48H48.6622V185.44C48.6622 185.16 48.5782 184.941 48.4102 184.782C48.2515 184.614 48.0322 184.53 47.7522 184.53H47.1082C46.8002 184.53 46.5715 184.614 46.4222 184.782C46.2729 184.941 46.1982 185.114 46.1982 185.3V190.48H45.0082V183.48ZM57.6919 190.48C57.5705 190.48 57.4352 190.443 57.2859 190.368C57.1459 190.294 57.0245 190.191 56.9219 190.06C56.7072 190.34 56.4225 190.48 56.0679 190.48H55.1019C54.3925 190.48 53.8745 190.34 53.5479 190.06C53.2305 189.771 53.0719 189.281 53.0719 188.59V188.31C53.0719 186.864 53.7532 186.14 55.1159 186.14H56.5719V185.44C56.5719 185.151 56.4832 184.927 56.3059 184.768C56.1285 184.61 55.8672 184.53 55.5219 184.53H53.6319V183.48H55.3819C56.1939 183.48 56.7912 183.658 57.1739 184.012C57.5659 184.367 57.7619 184.936 57.7619 185.72V189.08C57.7619 189.22 57.8132 189.328 57.9159 189.402C58.0279 189.468 58.2099 189.5 58.4619 189.5V190.48H57.6919ZM55.9279 189.43C56.2079 189.43 56.3852 189.365 56.4599 189.234C56.5345 189.104 56.5719 188.936 56.5719 188.73V187.19H55.1019C54.8592 187.19 54.6585 187.27 54.4999 187.428C54.3412 187.587 54.2619 187.788 54.2619 188.03V188.73C54.2619 188.973 54.3179 189.15 54.4299 189.262C54.5419 189.374 54.7192 189.43 54.9619 189.43H55.9279ZM63.218 190.48C62.742 190.48 62.378 190.326 62.126 190.018C61.874 189.71 61.748 189.304 61.748 188.8V184.53H60.838V183.48H61.748V181.8H62.938V183.48H64.562V184.53H62.938V188.87C62.938 189.076 62.9894 189.22 63.092 189.304C63.1947 189.388 63.3534 189.43 63.568 189.43H64.562V190.48H63.218ZM69.8057 190.48C68.9844 190.48 68.3824 190.308 67.9997 189.962C67.617 189.608 67.4257 189.034 67.4257 188.24V185.72C67.4257 184.918 67.5984 184.344 67.9437 183.998C68.289 183.653 68.863 183.48 69.6657 183.48H70.0437C70.7064 183.48 71.2057 183.667 71.5417 184.04C71.887 184.404 72.0597 184.941 72.0597 185.65V187.47H68.6157V188.52C68.6157 188.81 68.7044 189.034 68.8817 189.192C69.059 189.351 69.3204 189.43 69.6657 189.43H71.6117V190.48H69.8057ZM70.8977 186.42V185.37C70.8977 185.128 70.8184 184.927 70.6597 184.768C70.501 184.61 70.3004 184.53 70.0577 184.53H69.5257C69.1897 184.53 68.9517 184.61 68.8117 184.768C68.681 184.918 68.6157 185.142 68.6157 185.44V186.42H70.8977ZM79.3232 188.73C79.3232 189.318 79.1412 189.757 78.7772 190.046C78.4225 190.336 77.9045 190.48 77.2232 190.48H75.4172V189.43H77.3632C77.6152 189.43 77.8065 189.379 77.9372 189.276C78.0678 189.164 78.1332 189.006 78.1332 188.8V188.058C78.1332 187.638 77.9325 187.428 77.5312 187.428H77.2932C76.6398 187.428 76.1498 187.288 75.8232 187.008C75.5058 186.719 75.3472 186.266 75.3472 185.65V185.244C75.3472 184.619 75.5245 184.171 75.8792 183.9C76.2338 183.62 76.7565 183.48 77.4472 183.48H79.0432V184.53H77.3072C77.0738 184.53 76.8872 184.586 76.7472 184.698C76.6072 184.801 76.5372 184.955 76.5372 185.16V185.664C76.5372 185.879 76.5978 186.038 76.7192 186.14C76.8498 186.243 77.0132 186.294 77.2092 186.294H77.4052C78.0305 186.294 78.5065 186.448 78.8332 186.756C79.1598 187.055 79.3232 187.503 79.3232 188.1V188.73ZM82.549 184.88V183.48H83.949V184.88H82.549ZM82.549 190.48V189.08H83.949V190.48H82.549ZM95.2363 186.42H93.9903V190.48H92.7723V180.68H95.2783C96.0716 180.68 96.6689 180.858 97.0703 181.212C97.4809 181.558 97.6863 182.108 97.6863 182.864V184.208C97.6863 185.263 97.2663 185.921 96.4263 186.182L98.3723 190.48H97.0423L95.2363 186.42ZM96.4683 182.738C96.4683 182.384 96.3843 182.127 96.2163 181.968C96.0576 181.81 95.8009 181.73 95.4463 181.73H93.9903V185.37H95.4463C95.8009 185.37 96.0576 185.291 96.2163 185.132C96.3843 184.964 96.4683 184.703 96.4683 184.348V182.738ZM105.8 190.48L105.268 188.002H102.538L101.992 190.48H100.746L103.112 180.68H104.722L107.046 190.48H105.8ZM103.896 181.604L102.762 186.952H105.044L103.896 181.604ZM109.846 184.88V183.48H111.246V184.88H109.846ZM109.846 190.48V189.08H111.246V190.48H109.846ZM120.167 190.48V189.43H121.861V181.786L120.027 182.514V181.38L121.721 180.68H123.051V189.43H124.437V190.48H120.167ZM132.665 188.1C132.665 188.866 132.455 189.454 132.035 189.864C131.615 190.275 131.088 190.48 130.453 190.48H130.103C129.468 190.48 128.941 190.275 128.521 189.864C128.101 189.454 127.891 188.866 127.891 188.1V183.06C127.891 182.267 128.101 181.674 128.521 181.282C128.95 180.881 129.571 180.68 130.383 180.68H131.993V181.744H130.243C129.898 181.744 129.618 181.847 129.403 182.052C129.188 182.258 129.081 182.505 129.081 182.794V184.32H130.313C131.116 184.32 131.708 184.498 132.091 184.852C132.474 185.207 132.665 185.776 132.665 186.56V188.1ZM129.081 188.366C129.081 188.665 129.179 188.917 129.375 189.122C129.571 189.328 129.837 189.43 130.173 189.43H130.383C130.719 189.43 130.985 189.328 131.181 189.122C131.377 188.917 131.475 188.665 131.475 188.366V186.294C131.475 186.005 131.386 185.781 131.209 185.622C131.041 185.454 130.789 185.37 130.453 185.37H129.081V188.366ZM136.231 180.68H137.421V183.76C137.701 183.574 138.051 183.48 138.471 183.48H138.835C139.591 183.48 140.151 183.658 140.515 184.012C140.889 184.367 141.075 184.936 141.075 185.72V190.48H139.885V185.44C139.885 185.16 139.801 184.941 139.633 184.782C139.475 184.614 139.255 184.53 138.975 184.53H138.331C138.033 184.53 137.804 184.61 137.645 184.768C137.496 184.918 137.421 185.081 137.421 185.258V190.48H136.231V180.68ZM154.05 188.268C154.05 189.043 153.863 189.608 153.49 189.962C153.116 190.308 152.51 190.48 151.67 190.48H150.018V189.43H151.796C152.15 189.43 152.412 189.351 152.58 189.192C152.748 189.024 152.832 188.763 152.832 188.408V186.966C152.832 186.658 152.738 186.416 152.552 186.238C152.365 186.052 152.118 185.958 151.81 185.958H150.452V184.908H151.67C151.959 184.908 152.202 184.815 152.398 184.628C152.594 184.442 152.692 184.194 152.692 183.886V182.738C152.692 182.384 152.608 182.127 152.44 181.968C152.281 181.81 152.024 181.73 151.67 181.73H150.018V180.68H151.502C152.295 180.68 152.892 180.858 153.294 181.212C153.704 181.558 153.91 182.108 153.91 182.864V183.746C153.91 184.465 153.653 185.006 153.14 185.37C153.746 185.706 154.05 186.28 154.05 187.092V188.268ZM162.754 188.268C162.754 189.043 162.567 189.608 162.194 189.962C161.821 190.308 161.214 190.48 160.374 190.48H160.122C159.282 190.48 158.675 190.308 158.302 189.962C157.929 189.608 157.742 189.043 157.742 188.268V187.092C157.742 186.28 158.045 185.706 158.652 185.37C158.157 185.025 157.91 184.484 157.91 183.746V182.864C157.91 182.118 158.106 181.567 158.498 181.212C158.89 180.858 159.45 180.68 160.178 180.68H160.318C161.046 180.68 161.606 180.858 161.998 181.212C162.39 181.567 162.586 182.118 162.586 182.864V183.746C162.586 184.484 162.339 185.025 161.844 185.37C162.451 185.706 162.754 186.28 162.754 187.092V188.268ZM160.01 181.73C159.702 181.73 159.478 181.814 159.338 181.982C159.198 182.15 159.128 182.402 159.128 182.738V183.886C159.128 184.185 159.212 184.428 159.38 184.614C159.557 184.792 159.777 184.89 160.038 184.908H160.374C160.663 184.908 160.901 184.815 161.088 184.628C161.275 184.442 161.368 184.194 161.368 183.886V182.738C161.368 182.384 161.289 182.127 161.13 181.968C160.981 181.81 160.729 181.73 160.374 181.73H160.01ZM161.536 186.966C161.536 186.658 161.443 186.416 161.256 186.238C161.069 186.052 160.822 185.958 160.514 185.958H159.982C159.674 185.958 159.427 186.052 159.24 186.238C159.053 186.416 158.96 186.658 158.96 186.966V188.408C158.96 188.754 159.035 189.01 159.184 189.178C159.333 189.346 159.567 189.43 159.884 189.43H160.5C160.855 189.43 161.116 189.351 161.284 189.192C161.452 189.024 161.536 188.763 161.536 188.408V186.966ZM166.194 183.48H167.314V183.816C167.603 183.592 167.977 183.48 168.434 183.48H168.518C169.367 183.48 169.974 183.695 170.338 184.124C170.683 183.695 171.164 183.48 171.78 183.48H171.864C172.62 183.48 173.18 183.658 173.544 184.012C173.917 184.367 174.104 184.936 174.104 185.72V190.48H172.914V185.44C172.914 185.16 172.83 184.941 172.662 184.782C172.503 184.614 172.284 184.53 172.004 184.53H171.64C171.351 184.53 171.131 184.619 170.982 184.796C170.842 184.964 170.763 185.146 170.744 185.342V190.48H169.554V185.44C169.554 185.16 169.475 184.941 169.316 184.782C169.157 184.614 168.938 184.53 168.658 184.53H168.294C167.995 184.53 167.767 184.61 167.608 184.768C167.459 184.918 167.384 185.081 167.384 185.258V190.48H166.194V183.48ZM186.795 188.296V190.48H185.605V188.296H182.833V187.092L184.219 180.68H185.353L184.037 187.274H185.605V184.082H186.795V187.274H187.775V188.296H186.795ZM190.865 189.248L192.965 186.056C193.273 185.59 193.478 185.268 193.581 185.09C193.684 184.904 193.754 184.722 193.791 184.544C193.828 184.367 193.847 184.11 193.847 183.774V182.794C193.847 182.505 193.74 182.258 193.525 182.052C193.31 181.847 193.03 181.744 192.685 181.744H191.145V180.68H192.545C193.357 180.68 193.978 180.881 194.407 181.282C194.846 181.674 195.065 182.267 195.065 183.06V183.648C195.065 184.115 195.042 184.47 194.995 184.712C194.948 184.955 194.864 185.184 194.743 185.398C194.631 185.613 194.407 185.977 194.071 186.49L192.139 189.416H195.345V190.48H190.865V189.248ZM202.915 188.73C202.915 189.318 202.733 189.757 202.369 190.046C202.015 190.336 201.497 190.48 200.815 190.48H199.009V189.43H200.955C201.207 189.43 201.399 189.379 201.529 189.276C201.66 189.164 201.725 189.006 201.725 188.8V188.058C201.725 187.638 201.525 187.428 201.123 187.428H200.885C200.232 187.428 199.742 187.288 199.415 187.008C199.098 186.719 198.939 186.266 198.939 185.65V185.244C198.939 184.619 199.117 184.171 199.471 183.9C199.826 183.62 200.349 183.48 201.039 183.48H202.635V184.53H200.899C200.666 184.53 200.479 184.586 200.339 184.698C200.199 184.801 200.129 184.955 200.129 185.16V185.664C200.129 185.879 200.19 186.038 200.311 186.14C200.442 186.243 200.605 186.294 200.801 186.294H200.997C201.623 186.294 202.099 186.448 202.425 186.756C202.752 187.055 202.915 187.503 202.915 188.1V188.73Z" fill="white"/>
<path d="M4.70208 90.4805L2.56008 81.7165V90.4805H1.42608V80.6805H3.41408L5.57008 89.4445V80.6805H6.70408V90.4805H4.70208ZM12.7923 90.4805C11.971 90.4805 11.369 90.3078 10.9863 89.9625C10.6037 89.6078 10.4123 89.0338 10.4123 88.2405V85.7205C10.4123 84.9178 10.585 84.3438 10.9303 83.9985C11.2757 83.6531 11.8497 83.4805 12.6523 83.4805H13.0303C13.693 83.4805 14.1923 83.6671 14.5283 84.0405C14.8737 84.4045 15.0463 84.9411 15.0463 85.6505V87.4705H11.6023V88.5205C11.6023 88.8098 11.691 89.0338 11.8683 89.1925C12.0457 89.3511 12.307 89.4305 12.6523 89.4305H14.5983V90.4805H12.7923ZM13.8843 86.4205V85.3705C13.8843 85.1278 13.805 84.9271 13.6463 84.7685C13.4877 84.6098 13.287 84.5305 13.0443 84.5305H12.5123C12.1763 84.5305 11.9383 84.6098 11.7983 84.7685C11.6677 84.9178 11.6023 85.1418 11.6023 85.4405V86.4205H13.8843ZM20.1538 90.4805C19.6778 90.4805 19.3138 90.3265 19.0618 90.0185C18.8098 89.7105 18.6838 89.3045 18.6838 88.8005V84.5305H17.7738V83.4805H18.6838V81.8005H19.8738V83.4805H21.4978V84.5305H19.8738V88.8705C19.8738 89.0758 19.9252 89.2205 20.0278 89.3045C20.1305 89.3885 20.2892 89.4305 20.5038 89.4305H21.4978V90.4805H20.1538ZM30.8155 90.4805H28.9815L28.0995 86.6865L27.1335 90.4805H25.3415L23.9415 83.4805H25.1735L26.3075 89.5845L27.5535 84.7405H28.7435L29.9055 89.5845L31.0395 83.4805H32.2015L30.8155 90.4805ZM40.0857 88.2405C40.0857 89.0245 39.8897 89.5938 39.4977 89.9485C39.115 90.3031 38.5177 90.4805 37.7057 90.4805H37.5237C36.7117 90.4805 36.1097 90.3031 35.7177 89.9485C35.335 89.5938 35.1437 89.0245 35.1437 88.2405V85.7205C35.1437 84.9365 35.335 84.3671 35.7177 84.0125C36.1097 83.6578 36.7117 83.4805 37.5237 83.4805H37.7057C38.5177 83.4805 39.115 83.6578 39.4977 84.0125C39.8897 84.3671 40.0857 84.9365 40.0857 85.7205V88.2405ZM38.8957 85.4405C38.8957 85.1511 38.807 84.9271 38.6297 84.7685C38.4523 84.6098 38.191 84.5305 37.8457 84.5305H37.3837C37.0383 84.5305 36.777 84.6098 36.5997 84.7685C36.4223 84.9271 36.3337 85.1511 36.3337 85.4405V88.5205C36.3337 88.8098 36.4223 89.0338 36.5997 89.1925C36.777 89.3511 37.0383 89.4305 37.3837 89.4305H37.8457C38.191 89.4305 38.4523 89.3511 38.6297 89.1925C38.807 89.0338 38.8957 88.8098 38.8957 88.5205V85.4405ZM43.728 83.4805H44.848V83.8585C45.156 83.6065 45.5293 83.4805 45.968 83.4805H46.99V84.6005H45.828C45.52 84.6005 45.2913 84.7031 45.142 84.9085C44.9926 85.1138 44.918 85.3145 44.918 85.5105V90.4805H43.728V83.4805ZM53.4301 90.4805L51.5121 87.0225L51.1201 87.4845V90.4805H49.9301V80.6805H51.1201V85.9165L53.2201 83.4805H54.7181L52.3521 86.1825L54.8161 90.4805H53.4301ZM57.8942 81.9405V80.6805H59.2242V81.9405H57.8942ZM57.9642 90.4805V83.4805H59.1542V90.4805H57.9642ZM62.9358 83.4805H64.0558V83.8165C64.3452 83.5925 64.7185 83.4805 65.1758 83.4805H65.5398C66.2958 83.4805 66.8558 83.6578 67.2198 84.0125C67.5932 84.3671 67.7798 84.9365 67.7798 85.7205V90.4805H66.5898V85.4405C66.5898 85.1605 66.5058 84.9411 66.3378 84.7825C66.1792 84.6145 65.9598 84.5305 65.6798 84.5305H65.0358C64.7278 84.5305 64.4992 84.6145 64.3498 84.7825C64.2005 84.9411 64.1258 85.1138 64.1258 85.3005V90.4805H62.9358V83.4805ZM76.5855 90.9705C76.5855 91.6051 76.3942 92.0765 76.0115 92.3845C75.6382 92.7018 75.0502 92.8605 74.2475 92.8605H71.4195V91.8105H74.3875C74.7235 91.8105 74.9755 91.7451 75.1435 91.6145C75.3115 91.4838 75.3955 91.3158 75.3955 91.1105V90.6625C75.3955 90.4478 75.3115 90.2798 75.1435 90.1585C74.9755 90.0278 74.7235 89.9625 74.3875 89.9625H72.0495V88.0305C71.7415 87.8625 71.5129 87.6198 71.3635 87.3025C71.2142 86.9851 71.1395 86.5745 71.1395 86.0705V85.7205C71.1395 84.9365 71.3309 84.3671 71.7135 84.0125C72.1055 83.6578 72.7075 83.4805 73.5195 83.4805H76.3755V86.0705C76.3755 86.7705 76.1842 87.3211 75.8015 87.7225C75.4189 88.1145 74.9102 88.3105 74.2755 88.3105H73.2395V88.9125H74.2475C75.0502 88.9125 75.6382 89.0711 76.0115 89.3885C76.3942 89.6965 76.5855 90.1678 76.5855 90.8025V90.9705ZM74.2755 87.2605C74.5649 87.2605 74.7842 87.1671 74.9335 86.9805C75.0829 86.7938 75.1669 86.5978 75.1855 86.3925V84.5305H73.3795C73.0342 84.5305 72.7729 84.6098 72.5955 84.7685C72.4182 84.9271 72.3295 85.1511 72.3295 85.4405V86.3505C72.3295 86.6398 72.4182 86.8638 72.5955 87.0225C72.7729 87.1811 73.0342 87.2605 73.3795 87.2605H74.2755ZM79.7375 84.8805V83.4805H81.1375V84.8805H79.7375ZM79.7375 90.4805V89.0805H81.1375V90.4805H79.7375ZM1.42608 102.63V101.58H5.97608V102.63H1.42608ZM20.2544 104.1C20.2544 104.894 20.0351 105.491 19.5964 105.892C19.1671 106.284 18.5464 106.48 17.7344 106.48H17.5244C16.7124 106.48 16.0871 106.284 15.6484 105.892C15.2191 105.491 15.0044 104.894 15.0044 104.1V96.6805H16.2224V104.366C16.2224 104.656 16.3298 104.903 16.5444 105.108C16.7591 105.314 17.0391 105.416 17.3844 105.416H17.8744C18.2198 105.416 18.4998 105.314 18.7144 105.108C18.9291 104.903 19.0364 104.656 19.0364 104.366V96.6805H20.2544V104.1ZM24.0366 99.4805H25.1566V99.8165C25.446 99.5925 25.8193 99.4805 26.2766 99.4805H26.5006C27.322 99.4805 27.924 99.6578 28.3066 100.012C28.6893 100.358 28.8806 100.927 28.8806 101.72V104.24C28.8806 105.024 28.6846 105.594 28.2926 105.948C27.91 106.303 27.3126 106.48 26.5006 106.48H25.2266V108.86H24.0366V99.4805ZM26.1366 100.53C25.8286 100.53 25.6 100.614 25.4506 100.782C25.3013 100.941 25.2266 101.114 25.2266 101.3V105.43H26.6406C26.986 105.43 27.2473 105.351 27.4246 105.192C27.602 105.034 27.6906 104.81 27.6906 104.52V101.44C27.6906 101.151 27.602 100.927 27.4246 100.768C27.2473 100.61 26.986 100.53 26.6406 100.53H26.1366ZM37.4887 100.88V99.4805H38.8887V100.88H37.4887ZM37.4887 106.48V105.08H38.8887V106.48H37.4887ZM47.8099 106.48V105.43H49.5039V97.7865L47.6699 98.5145V97.3805L49.3639 96.6805H50.6939V105.43H52.0799V106.48H47.8099ZM60.3501 104.1C60.3501 104.875 60.1354 105.468 59.7061 105.878C59.2861 106.28 58.7168 106.48 57.9981 106.48H57.8581C57.1394 106.48 56.5654 106.28 56.1361 105.878C55.7161 105.468 55.5061 104.875 55.5061 104.1V99.0605C55.5061 98.2765 55.7161 97.6838 56.1361 97.2825C56.5561 96.8811 57.1301 96.6805 57.8581 96.6805H57.9981C58.7261 96.6805 59.3001 96.8811 59.7201 97.2825C60.1401 97.6838 60.3501 98.2765 60.3501 99.0605V104.1ZM59.1601 98.7945C59.1601 98.5051 59.0481 98.2578 58.8241 98.0525C58.6094 97.8378 58.3341 97.7305 57.9981 97.7305H57.8581C57.5221 97.7305 57.2421 97.8378 57.0181 98.0525C56.8034 98.2578 56.6961 98.5051 56.6961 98.7945V104.366C56.6961 104.656 56.8034 104.908 57.0181 105.122C57.2421 105.328 57.5221 105.43 57.8581 105.43H57.9981C58.3341 105.43 58.6094 105.328 58.8241 105.122C59.0481 104.908 59.1601 104.656 59.1601 104.366V98.7945ZM68.9843 104.268C68.9843 105.071 68.7976 105.64 68.4243 105.976C68.0603 106.312 67.4536 106.48 66.6043 106.48H63.9443V96.6805H66.4363C67.267 96.6805 67.8736 96.8485 68.2563 97.1845C68.6483 97.5205 68.8443 98.0805 68.8443 98.8645V99.6625C68.8443 100.381 68.5876 100.922 68.0743 101.286C68.681 101.622 68.9843 102.196 68.9843 103.008V104.268ZM67.6263 98.7385C67.6263 98.3838 67.5423 98.1271 67.3743 97.9685C67.2156 97.8098 66.959 97.7305 66.6043 97.7305H65.1623V100.824H66.6043C66.8936 100.824 67.1363 100.731 67.3323 100.544C67.5283 100.358 67.6263 100.11 67.6263 99.8025V98.7385ZM67.7663 102.882C67.7663 102.574 67.673 102.332 67.4863 102.154C67.2996 101.968 67.0523 101.874 66.7443 101.874H65.1623V105.43H66.7303C67.085 105.43 67.3463 105.351 67.5143 105.192C67.6823 105.024 67.7663 104.763 67.7663 104.408V102.882ZM103.818 102.63V101.58H108.368V102.63H103.818ZM122.59 104.268C122.59 105.071 122.404 105.64 122.03 105.976C121.666 106.312 121.06 106.48 120.21 106.48H117.466V96.6805H120.042C120.882 96.6805 121.517 96.8531 121.946 97.1985C122.376 97.5345 122.59 98.0898 122.59 98.8645V104.268ZM121.372 98.7385C121.372 98.4305 121.279 98.1878 121.092 98.0105C120.906 97.8238 120.658 97.7305 120.35 97.7305H118.684V105.43H120.336C120.691 105.43 120.952 105.351 121.12 105.192C121.288 105.024 121.372 104.763 121.372 104.408V98.7385ZM131.108 104.24C131.108 105.024 130.912 105.594 130.52 105.948C130.137 106.303 129.54 106.48 128.728 106.48H128.546C127.734 106.48 127.132 106.303 126.74 105.948C126.357 105.594 126.166 105.024 126.166 104.24V101.72C126.166 100.936 126.357 100.367 126.74 100.012C127.132 99.6578 127.734 99.4805 128.546 99.4805H128.728C129.54 99.4805 130.137 99.6578 130.52 100.012C130.912 100.367 131.108 100.936 131.108 101.72V104.24ZM129.918 101.44C129.918 101.151 129.829 100.927 129.652 100.768C129.474 100.61 129.213 100.53 128.868 100.53H128.406C128.06 100.53 127.799 100.61 127.622 100.768C127.444 100.927 127.356 101.151 127.356 101.44V104.52C127.356 104.81 127.444 105.034 127.622 105.192C127.799 105.351 128.06 105.43 128.406 105.43H128.868C129.213 105.43 129.474 105.351 129.652 105.192C129.829 105.034 129.918 104.81 129.918 104.52V101.44ZM140.927 106.48H139.093L138.211 102.686L137.245 106.48H135.453L134.053 99.4805H135.285L136.419 105.584L137.665 100.74H138.855L140.017 105.584L141.151 99.4805H142.313L140.927 106.48ZM145.532 99.4805H146.652V99.8165C146.941 99.5925 147.315 99.4805 147.772 99.4805H148.136C148.892 99.4805 149.452 99.6578 149.816 100.012C150.189 100.367 150.376 100.936 150.376 101.72V106.48H149.186V101.44C149.186 101.16 149.102 100.941 148.934 100.782C148.775 100.614 148.556 100.53 148.276 100.53H147.632C147.324 100.53 147.095 100.614 146.946 100.782C146.797 100.941 146.722 101.114 146.722 101.3V106.48H145.532V99.4805ZM153.876 100.88V99.4805H155.276V100.88H153.876ZM153.876 106.48V105.08H155.276V106.48H153.876ZM164.197 106.48V105.43H165.891V97.7865L164.057 98.5145V97.3805L165.751 96.6805H167.081V105.43H168.467V106.48H164.197ZM176.121 106.48L173.937 102.028L173.433 102.868V106.48H172.215V96.6805H173.433V100.908L176.023 96.6805H177.353L174.693 100.964L177.493 106.48H176.121ZM185.686 104.268C185.686 105.071 185.499 105.64 185.126 105.976C184.762 106.312 184.155 106.48 183.306 106.48H180.646V96.6805H183.138C183.968 96.6805 184.575 96.8485 184.958 97.1845C185.35 97.5205 185.546 98.0805 185.546 98.8645V99.6625C185.546 100.381 185.289 100.922 184.776 101.286C185.382 101.622 185.686 102.196 185.686 103.008V104.268ZM184.328 98.7385C184.328 98.3838 184.244 98.1271 184.076 97.9685C183.917 97.8098 183.66 97.7305 183.306 97.7305H181.864V100.824H183.306C183.595 100.824 183.838 100.731 184.034 100.544C184.23 100.358 184.328 100.11 184.328 99.8025V98.7385ZM184.468 102.882C184.468 102.574 184.374 102.332 184.188 102.154C184.001 101.968 183.754 101.874 183.446 101.874H181.864V105.43H183.432C183.786 105.43 184.048 105.351 184.216 105.192C184.384 105.024 184.468 104.763 184.468 104.408V102.882Z" fill="white"/>
<path d="M6.55008 31.2685C6.55008 32.0711 6.36342 32.6405 5.99008 32.9765C5.62608 33.3125 5.01942 33.4805 4.17008 33.4805H1.42608V23.6805H4.00208C4.84208 23.6805 5.47675 23.8531 5.90608 24.1985C6.33542 24.5345 6.55008 25.0898 6.55008 25.8645V31.2685ZM5.33208 25.7385C5.33208 25.4305 5.23875 25.1878 5.05208 25.0105C4.86542 24.8238 4.61808 24.7305 4.31008 24.7305H2.64408V32.4305H4.29608C4.65075 32.4305 4.91208 32.3511 5.08008 32.1925C5.24808 32.0245 5.33208 31.7631 5.33208 31.4085V25.7385ZM14.3952 33.4805C14.2739 33.4805 14.1386 33.4431 13.9892 33.3685C13.8492 33.2938 13.7279 33.1911 13.6252 33.0605C13.4106 33.3405 13.1259 33.4805 12.7712 33.4805H11.8052C11.0959 33.4805 10.5779 33.3405 10.2512 33.0605C9.93389 32.7711 9.77522 32.2811 9.77522 31.5905V31.3105C9.77522 29.8638 10.4566 29.1405 11.8192 29.1405H13.2752V28.4405C13.2752 28.1511 13.1866 27.9271 13.0092 27.7685C12.8319 27.6098 12.5706 27.5305 12.2252 27.5305H10.3352V26.4805H12.0852C12.8972 26.4805 13.4946 26.6578 13.8772 27.0125C14.2692 27.3671 14.4652 27.9365 14.4652 28.7205V32.0805C14.4652 32.2205 14.5166 32.3278 14.6192 32.4025C14.7312 32.4678 14.9132 32.5005 15.1652 32.5005V33.4805H14.3952ZM12.6312 32.4305C12.9112 32.4305 13.0886 32.3651 13.1632 32.2345C13.2379 32.1038 13.2752 31.9358 13.2752 31.7305V30.1905H11.8052C11.5626 30.1905 11.3619 30.2698 11.2032 30.4285C11.0446 30.5871 10.9652 30.7878 10.9652 31.0305V31.7305C10.9652 31.9731 11.0212 32.1505 11.1332 32.2625C11.2452 32.3745 11.4226 32.4305 11.6652 32.4305H12.6312ZM19.9214 33.4805C19.4454 33.4805 19.0814 33.3265 18.8294 33.0185C18.5774 32.7105 18.4514 32.3045 18.4514 31.8005V27.5305H17.5414V26.4805H18.4514V24.8005H19.6414V26.4805H21.2654V27.5305H19.6414V31.8705C19.6414 32.0758 19.6927 32.2205 19.7954 32.3045C19.8981 32.3885 20.0567 32.4305 20.2714 32.4305H21.2654V33.4805H19.9214ZM28.3991 33.4805C28.2777 33.4805 28.1424 33.4431 27.9931 33.3685C27.8531 33.2938 27.7317 33.1911 27.6291 33.0605C27.4144 33.3405 27.1297 33.4805 26.7751 33.4805H25.8091C25.0997 33.4805 24.5817 33.3405 24.2551 33.0605C23.9377 32.7711 23.7791 32.2811 23.7791 31.5905V31.3105C23.7791 29.8638 24.4604 29.1405 25.8231 29.1405H27.2791V28.4405C27.2791 28.1511 27.1904 27.9271 27.0131 27.7685C26.8357 27.6098 26.5744 27.5305 26.2291 27.5305H24.3391V26.4805H26.0891C26.9011 26.4805 27.4984 26.6578 27.8811 27.0125C28.2731 27.3671 28.4691 27.9365 28.4691 28.7205V32.0805C28.4691 32.2205 28.5204 32.3278 28.6231 32.4025C28.7351 32.4678 28.9171 32.5005 29.1691 32.5005V33.4805H28.3991ZM26.6351 32.4305C26.9151 32.4305 27.0924 32.3651 27.1671 32.2345C27.2417 32.1038 27.2791 31.9358 27.2791 31.7305V30.1905H25.8091C25.5664 30.1905 25.3657 30.2698 25.2071 30.4285C25.0484 30.5871 24.9691 30.7878 24.9691 31.0305V31.7305C24.9691 31.9731 25.0251 32.1505 25.1371 32.2625C25.2491 32.3745 25.4264 32.4305 25.6691 32.4305H26.6351ZM41.8179 31.1005C41.8179 31.8938 41.5986 32.4911 41.1599 32.8925C40.7306 33.2845 40.1099 33.4805 39.2979 33.4805H37.4499V32.4165H39.4379C39.7833 32.4165 40.0633 32.3138 40.2779 32.1085C40.4926 31.9031 40.5999 31.6558 40.5999 31.3665V29.9105C40.5999 29.6305 40.5253 29.4065 40.3759 29.2385C40.2359 29.0611 40.0213 28.9725 39.7319 28.9725H39.4519C38.7613 28.9725 38.2153 28.7718 37.8139 28.3705C37.4126 27.9598 37.2119 27.3671 37.2119 26.5925V26.0605C37.2119 25.2671 37.4266 24.6745 37.8559 24.2825C38.2946 23.8811 38.9199 23.6805 39.7319 23.6805H41.5939V24.7445H39.5919C39.2466 24.7445 38.9666 24.8471 38.7519 25.0525C38.5373 25.2578 38.4299 25.5051 38.4299 25.7945V26.8585C38.4299 27.1478 38.5233 27.3905 38.7099 27.5865C38.8966 27.7731 39.1393 27.8665 39.4379 27.8665H39.7179C40.3806 27.8665 40.8939 28.0578 41.2579 28.4405C41.6313 28.8231 41.8179 29.4018 41.8179 30.1765V31.1005ZM47.8912 34.0965C47.7792 34.5165 47.6625 34.8525 47.5412 35.1045C47.4199 35.3658 47.2472 35.5665 47.0232 35.7065C46.8085 35.8558 46.5192 35.9305 46.1552 35.9305C45.9592 35.9305 45.6932 35.9025 45.3572 35.8465V34.8245C45.6185 34.8618 45.8612 34.8805 46.0852 34.8805C46.3465 34.8805 46.5332 34.6705 46.6452 34.2505L46.8692 33.4805H46.5892L44.4192 26.4805H45.7072L47.3312 32.2625L48.7032 26.4805H49.9212L47.8912 34.0965ZM53.0697 26.4805H54.1897V26.8165C54.479 26.5925 54.8523 26.4805 55.3097 26.4805H55.6737C56.4297 26.4805 56.9897 26.6578 57.3537 27.0125C57.727 27.3671 57.9137 27.9365 57.9137 28.7205V33.4805H56.7237V28.4405C56.7237 28.1605 56.6397 27.9411 56.4717 27.7825C56.313 27.6145 56.0937 27.5305 55.8137 27.5305H55.1697C54.8617 27.5305 54.633 27.6145 54.4837 27.7825C54.3343 27.9411 54.2597 28.1138 54.2597 28.3005V33.4805H53.0697V26.4805ZM63.8633 33.4805C63.042 33.4805 62.44 33.3078 62.0573 32.9625C61.6747 32.6078 61.4833 32.0338 61.4833 31.2405V28.7205C61.4833 27.9365 61.6747 27.3671 62.0573 27.0125C62.4493 26.6578 63.0513 26.4805 63.8633 26.4805H65.3893V27.5305H63.7233C63.378 27.5305 63.1167 27.6098 62.9393 27.7685C62.762 27.9271 62.6733 28.1511 62.6733 28.4405V31.5205C62.6733 31.8098 62.762 32.0338 62.9393 32.1925C63.1167 32.3511 63.378 32.4305 63.7233 32.4305H65.3893V33.4805H63.8633ZM68.5451 27.8805V26.4805H69.9451V27.8805H68.5451ZM68.5451 33.4805V32.0805H69.9451V33.4805H68.5451ZM83.2484 31.1005C83.2484 31.8658 83.0384 32.4538 82.6184 32.8645C82.1984 33.2751 81.6711 33.4805 81.0364 33.4805H80.6864C80.0518 33.4805 79.5244 33.2751 79.1044 32.8645C78.6844 32.4538 78.4744 31.8658 78.4744 31.1005V26.0605C78.4744 25.2671 78.6844 24.6745 79.1044 24.2825C79.5338 23.8811 80.1544 23.6805 80.9664 23.6805H82.5764V24.7445H80.8264C80.4811 24.7445 80.2011 24.8471 79.9864 25.0525C79.7718 25.2578 79.6644 25.5051 79.6644 25.7945V27.3205H80.8964C81.6991 27.3205 82.2918 27.4978 82.6744 27.8525C83.0571 28.2071 83.2484 28.7765 83.2484 29.5605V31.1005ZM79.6644 31.3665C79.6644 31.6651 79.7624 31.9171 79.9584 32.1225C80.1544 32.3278 80.4204 32.4305 80.7564 32.4305H80.9664C81.3024 32.4305 81.5684 32.3278 81.7644 32.1225C81.9604 31.9171 82.0584 31.6651 82.0584 31.3665V29.2945C82.0584 29.0051 81.9698 28.7811 81.7924 28.6225C81.6244 28.4545 81.3724 28.3705 81.0364 28.3705H79.6644V31.3665ZM88.6626 33.4805H87.4166L89.7546 24.7305H86.6466V23.6805H90.9166V25.0385L88.6626 33.4805ZM98.7248 27.7125C98.7248 28.3005 98.5754 28.7485 98.2768 29.0565C97.9781 29.3551 97.5581 29.5045 97.0168 29.5045H96.7648C96.2234 29.5045 95.8034 29.3551 95.5048 29.0565C95.2061 28.7485 95.0568 28.3005 95.0568 27.7125V25.4725C95.0568 24.8845 95.2061 24.4411 95.5048 24.1425C95.8034 23.8345 96.2234 23.6805 96.7648 23.6805H97.0168C97.5581 23.6805 97.9781 23.8345 98.2768 24.1425C98.5754 24.4411 98.7248 24.8845 98.7248 25.4725V27.7125ZM98.7248 33.4805H97.5488L100.979 23.6805H102.071L98.7248 33.4805ZM97.7448 25.3185C97.7448 25.0851 97.6841 24.8938 97.5628 24.7445C97.4414 24.5951 97.2594 24.5205 97.0168 24.5205H96.7648C96.5221 24.5205 96.3401 24.5951 96.2188 24.7445C96.0974 24.8938 96.0368 25.0851 96.0368 25.3185V27.8665C96.0368 28.0998 96.0974 28.2911 96.2188 28.4405C96.3401 28.5898 96.5221 28.6645 96.7648 28.6645H97.0168C97.2594 28.6645 97.4414 28.5898 97.5628 28.4405C97.6841 28.2911 97.7448 28.0998 97.7448 27.8665V25.3185ZM104.521 31.6885C104.521 32.2765 104.371 32.7245 104.073 33.0325C103.774 33.3311 103.354 33.4805 102.813 33.4805H102.561C102.019 33.4805 101.599 33.3311 101.301 33.0325C101.002 32.7245 100.853 32.2765 100.853 31.6885V29.4485C100.853 28.8605 101.002 28.4171 101.301 28.1185C101.599 27.8105 102.019 27.6565 102.561 27.6565H102.813C103.354 27.6565 103.774 27.8105 104.073 28.1185C104.371 28.4171 104.521 28.8605 104.521 29.4485V31.6885ZM103.541 29.2945C103.541 29.0611 103.48 28.8698 103.359 28.7205C103.237 28.5711 103.055 28.4965 102.813 28.4965H102.561C102.318 28.4965 102.136 28.5711 102.015 28.7205C101.893 28.8698 101.833 29.0611 101.833 29.2945V31.8425C101.833 32.0758 101.893 32.2671 102.015 32.4165C102.136 32.5658 102.318 32.6405 102.561 32.6405H102.813C103.055 32.6405 103.237 32.5658 103.359 32.4165C103.48 32.2671 103.541 32.0758 103.541 31.8425V29.2945ZM115.878 33.4805C115.056 33.4805 114.454 33.3078 114.072 32.9625C113.689 32.6078 113.498 32.0338 113.498 31.2405V28.7205C113.498 27.9365 113.689 27.3671 114.072 27.0125C114.464 26.6578 115.066 26.4805 115.878 26.4805H117.404V27.5305H115.738C115.392 27.5305 115.131 27.6098 114.954 27.7685C114.776 27.9271 114.688 28.1511 114.688 28.4405V31.5205C114.688 31.8098 114.776 32.0338 114.954 32.1925C115.131 32.3511 115.392 32.4305 115.738 32.4305H117.404V33.4805H115.878ZM125.435 31.2405C125.435 32.0245 125.239 32.5938 124.847 32.9485C124.464 33.3031 123.867 33.4805 123.055 33.4805H122.873C122.061 33.4805 121.459 33.3031 121.067 32.9485C120.684 32.5938 120.493 32.0245 120.493 31.2405V28.7205C120.493 27.9365 120.684 27.3671 121.067 27.0125C121.459 26.6578 122.061 26.4805 122.873 26.4805H123.055C123.867 26.4805 124.464 26.6578 124.847 27.0125C125.239 27.3671 125.435 27.9365 125.435 28.7205V31.2405ZM124.245 28.4405C124.245 28.1511 124.156 27.9271 123.979 27.7685C123.801 27.6098 123.54 27.5305 123.195 27.5305H122.733C122.387 27.5305 122.126 27.6098 121.949 27.7685C121.771 27.9271 121.683 28.1511 121.683 28.4405V31.5205C121.683 31.8098 121.771 32.0338 121.949 32.1925C122.126 32.3511 122.387 32.4305 122.733 32.4305H123.195C123.54 32.4305 123.801 32.3511 123.979 32.1925C124.156 32.0338 124.245 31.8098 124.245 31.5205V28.4405ZM129.077 26.4805H130.197V26.8165C130.486 26.5925 130.86 26.4805 131.317 26.4805H131.401C132.25 26.4805 132.857 26.6951 133.221 27.1245C133.566 26.6951 134.047 26.4805 134.663 26.4805H134.747C135.503 26.4805 136.063 26.6578 136.427 27.0125C136.8 27.3671 136.987 27.9365 136.987 28.7205V33.4805H135.797V28.4405C135.797 28.1605 135.713 27.9411 135.545 27.7825C135.386 27.6145 135.167 27.5305 134.887 27.5305H134.523C134.234 27.5305 134.014 27.6191 133.865 27.7965C133.725 27.9645 133.646 28.1465 133.627 28.3425V33.4805H132.437V28.4405C132.437 28.1605 132.358 27.9411 132.199 27.7825C132.04 27.6145 131.821 27.5305 131.541 27.5305H131.177C130.878 27.5305 130.65 27.6098 130.491 27.7685C130.342 27.9178 130.267 28.0811 130.267 28.2585V33.4805H129.077V26.4805ZM140.693 26.4805H141.813V26.8165C142.103 26.5925 142.476 26.4805 142.933 26.4805H143.157C143.979 26.4805 144.581 26.6578 144.963 27.0125C145.346 27.3578 145.537 27.9271 145.537 28.7205V31.2405C145.537 32.0245 145.341 32.5938 144.949 32.9485C144.567 33.3031 143.969 33.4805 143.157 33.4805H141.883V35.8605H140.693V26.4805ZM142.793 27.5305C142.485 27.5305 142.257 27.6145 142.107 27.7825C141.958 27.9411 141.883 28.1138 141.883 28.3005V32.4305H143.297C143.643 32.4305 143.904 32.3511 144.081 32.1925C144.259 32.0338 144.347 31.8098 144.347 31.5205V28.4405C144.347 28.1511 144.259 27.9271 144.081 27.7685C143.904 27.6098 143.643 27.5305 143.297 27.5305H142.793ZM150.299 33.4805C149.981 33.4805 149.701 33.3685 149.459 33.1445C149.225 32.9205 149.109 32.5658 149.109 32.0805V23.6805H150.299V32.0105C150.299 32.1598 150.336 32.2671 150.411 32.3325C150.485 32.3978 150.611 32.4305 150.789 32.4305H151.069V33.4805H150.299ZM156.459 33.4805C155.637 33.4805 155.035 33.3078 154.653 32.9625C154.27 32.6078 154.079 32.0338 154.079 31.2405V28.7205C154.079 27.9178 154.251 27.3438 154.597 26.9985C154.942 26.6531 155.516 26.4805 156.319 26.4805H156.697C157.359 26.4805 157.859 26.6671 158.195 27.0405C158.54 27.4045 158.713 27.9411 158.713 28.6505V30.4705H155.269V31.5205C155.269 31.8098 155.357 32.0338 155.535 32.1925C155.712 32.3511 155.973 32.4305 156.319 32.4305H158.265V33.4805H156.459ZM157.551 29.4205V28.3705C157.551 28.1278 157.471 27.9271 157.313 27.7685C157.154 27.6098 156.953 27.5305 156.711 27.5305H156.179C155.843 27.5305 155.605 27.6098 155.465 27.7685C155.334 27.9178 155.269 28.1418 155.269 28.4405V29.4205H157.551ZM163.82 33.4805C163.344 33.4805 162.98 33.3265 162.728 33.0185C162.476 32.7105 162.35 32.3045 162.35 31.8005V27.5305H161.44V26.4805H162.35V24.8005H163.54V26.4805H165.164V27.5305H163.54V31.8705C163.54 32.0758 163.591 32.2205 163.694 32.3045C163.797 32.3885 163.955 32.4305 164.17 32.4305H165.164V33.4805H163.82ZM170.408 33.4805C169.586 33.4805 168.984 33.3078 168.602 32.9625C168.219 32.6078 168.028 32.0338 168.028 31.2405V28.7205C168.028 27.9178 168.2 27.3438 168.546 26.9985C168.891 26.6531 169.465 26.4805 170.268 26.4805H170.646C171.308 26.4805 171.808 26.6671 172.144 27.0405C172.489 27.4045 172.662 27.9411 172.662 28.6505V30.4705H169.218V31.5205C169.218 31.8098 169.306 32.0338 169.484 32.1925C169.661 32.3511 169.922 32.4305 170.268 32.4305H172.214V33.4805H170.408ZM171.5 29.4205V28.3705C171.5 28.1278 171.42 27.9271 171.262 27.7685C171.103 27.6098 170.902 27.5305 170.66 27.5305H170.128C169.792 27.5305 169.554 27.6098 169.414 27.7685C169.283 27.9178 169.218 28.1418 169.218 28.4405V29.4205H171.5Z" fill="white"/>
</svg>
