<svg width="78" height="180" viewBox="0 0 78 180" fill="none" xmlns="http://www.w3.org/2000/svg">
<path d="M41 72C41 70.8954 40.1046 70 39 70C37.8954 70 37 70.8954 37 72L39 72L41 72ZM39 158.333C33.109 158.333 28.3333 163.109 28.3333 169C28.3333 174.891 33.109 179.667 39 179.667C44.891 179.667 49.6667 174.891 49.6667 169C49.6667 163.109 44.891 158.333 39 158.333ZM39 72L37 72L37 169L39 169L41 169L41 72L39 72Z" fill="#F5F5F5"/>
<circle cx="39" cy="39" r="17" fill="#F27C06"/>
<path d="M39.0225 1.94936C38.6785 1.94517 38.3395 2.03188 38.0398 2.20073L6.83984 19.7507C6.53934 19.921 6.28937 20.168 6.11541 20.4664C5.94145 20.7648 5.84974 21.104 5.84961 21.4494V56.5494C5.84974 56.8948 5.94145 57.234 6.11541 57.5324C6.28937 57.8308 6.53934 58.0777 6.83984 58.248L38.0398 75.798C38.3327 75.9632 38.6633 76.0501 38.9996 76.0501C39.3359 76.0501 39.6665 75.9632 39.9594 75.798L71.1594 58.248C71.4599 58.0777 71.7099 57.8308 71.8838 57.5324C72.0578 57.234 72.1495 56.8948 72.1496 56.5494V21.4494C72.1495 21.104 72.0578 20.7648 71.8838 20.4664C71.7099 20.168 71.4599 19.921 71.1594 19.7507L39.9594 2.20073C39.6732 2.03949 39.3509 1.95304 39.0225 1.94936ZM38.9996 6.13882L66.2158 21.4494L38.9996 36.7599L11.7834 21.4494L38.9996 6.13882ZM9.74961 24.7857L37.0496 40.1419V70.763L9.74961 55.4068V24.7857ZM68.2496 24.7857V55.4068L40.9496 70.763V40.1419L68.2496 24.7857Z" fill="#F5F5F5"/>
</svg>
