<svg width="8465" height="683" viewBox="0 0 8465 683" fill="none" xmlns="http://www.w3.org/2000/svg">
<path d="M0.740234 337.664C682.74 -413 1277.42 375.85 1513.82 496.408C2477.74 988.001 2874.33 56.5008 3379.74 56.5008C3885.15 56.5008 3958.79 525.576 4655.74 658.5C5343.79 726.576 5731.94 105.722 6197.24 86.5027C6784.68 62.2854 7308.24 999.5 8463.74 363.5" stroke="white" stroke-width="2"/>
<rect x="3374.74" y="44" width="27" height="27" stroke="#F27C06" stroke-width="6"/>
<rect x="2016.74" y="627" width="27" height="27" fill="black" stroke="#F27C06" stroke-width="6"/>
<rect x="611.74" y="3" width="27" height="27" fill="black" stroke="#F27C06" stroke-width="6"/>
<rect x="3374.74" y="44" width="27" height="27" fill="black" stroke="#F27C06" stroke-width="6"/>
<rect x="4763.74" y="653" width="27" height="27" fill="black" stroke="#F27C06" stroke-width="6"/>
<rect x="6175.74" y="73" width="27" height="27" fill="black" stroke="#F27C06" stroke-width="6"/>
<rect x="7653.74" y="573" width="27" height="27" fill="black" stroke="#F27C06" stroke-width="6"/>
</svg>
